<?xml version="1.0" encoding="UTF-8" standalone="no"?>
<svg viewBox="0 0 22 22" version="1.1" xmlns="http://www.w3.org/2000/svg" xmlns:xlink="http://www.w3.org/1999/xlink">
    <title>behance</title>
    <g id="Page-1" stroke="none" stroke-width="1" fill="none" fill-rule="evenodd">
        <path d="M15.9216,9.3172 C14.0976,9.3172 13.8436,11.1372 13.8436,11.1372 L17.7216,11.1372 L17.7216,11.1342 L17.7216,11.1342 L17.7216,11.1342 C17.7216,11.0492 17.7006,9.3172 15.9216,9.3172 L15.9216,9.3172 Z M7.1226,6.6822 L6.6796,6.6822 L3.6856,6.6822 L3.6856,9.3172 L6.9096,9.3172 C7.4656,9.3172 7.9576,9.1392 7.9576,7.9112 C7.9576,6.6822 7.1226,6.6822 7.1226,6.6822 L7.1226,6.6822 Z M11.3386,12.1242 C11.3386,12.0842 11.3546,7.5882 15.8746,7.5882 C19.6086,7.5882 20.0166,10.7162 20.0166,12.0842 C20.0166,12.4682 19.9846,12.7132 19.9846,12.7132 L13.8666,12.7132 C13.8666,14.6602 15.5036,14.7692 15.8716,14.7692 C15.9176,14.7692 15.9446,14.7672 15.9446,14.7672 C17.7776,14.7672 17.8376,13.6602 17.8376,13.5142 L17.8376,13.4982 L19.9156,13.4982 C19.9156,16.4622 16.7896,16.6412 16.0366,16.6412 C15.9336,16.6412 15.8746,16.6372 15.8746,16.6372 C11.5786,16.6372 11.3346,13.0932 11.3346,12.2862 C11.3346,12.1822 11.3386,12.1242 11.3386,12.1242 L11.3386,12.1242 L11.3386,12.1242 L11.3386,12.1242 L11.3386,12.1242 Z M13.3346,5.2792 L18.2066,5.2792 L18.2066,6.7342 L13.3346,6.7342 L13.3346,5.2792 Z M7.1236,11.1372 L7.1226,11.1372 L3.6856,11.1372 L3.6856,14.2922 L6.9636,14.2922 C7.4566,14.2792 8.3666,14.1242 8.3666,12.7582 C8.3666,11.1532 7.1706,11.1372 7.1236,11.1372 Z M0.9786,4.5842 L0.9786,4.5842 L3.5846,4.5842 L3.6856,4.5842 L7.1226,4.5842 C8.9896,4.5842 10.4636,5.6152 10.4636,7.7282 C10.4636,9.8402 8.6616,9.9742 8.6616,9.9742 C10.7486,9.9742 10.8756,12.2392 10.8756,12.7872 C10.8756,12.8632 10.8726,12.9062 10.8726,12.9062 C10.8726,16.2872 7.5696,16.3912 7.1636,16.3912 L7.1226,16.3912 L3.6856,16.3912 L3.5846,16.3912 L0.9786,16.3912 L0.9786,4.5842 Z M18.7216,0.0002 L2.5046,0.0002 C1.1206,0.0002 -0.0004,1.1212 -0.0004,2.5042 L-0.0004,18.7212 C-0.0004,20.1042 1.1206,21.2252 2.5046,21.2252 L18.7216,21.2252 C20.1046,21.2252 21.2256,20.1042 21.2256,18.7212 L21.2256,2.5042 C21.2256,1.1212 20.1046,0.0002 18.7216,0.0002 Z" id="behance" fill="#000000"></path>
    </g>
</svg>