<?xml version="1.0" encoding="UTF-8" standalone="no"?>
<svg viewBox="0 0 22 22" version="1.1" xmlns="http://www.w3.org/2000/svg" xmlns:xlink="http://www.w3.org/1999/xlink">
    <title>facebook</title>
    <g id="Page-1" stroke="none" stroke-width="1" fill="none" fill-rule="evenodd">
        <path d="M17.8324,0.0246 C17.6964,0.0086 17.5594,-0.0004 17.4194,-0.0004 L17.2474,-0.0004 L3.7734,-0.0004 L3.5604,-0.0004 C3.4674,-0.0004 3.3754,0.0046 3.2844,0.0116 C1.4754,0.2476 0.0644,1.7686 0.0024,3.6256 C0.0014,3.6746 0.0004,3.7236 0.0004,3.7726 L0.0004,17.2476 C0.0004,19.3266 1.6934,21.0206 3.7734,21.0206 L17.2474,21.0206 C19.3274,21.0206 21.0204,19.3266 21.0204,17.2476 L21.0204,3.7726 C21.0204,3.7476 21.0194,3.7216 21.0194,3.6966 C20.9894,1.8366 19.6154,0.3026 17.8324,0.0246 Z M16.1499,5.6789 L17.4979,5.6789 L17.4979,2.9519 L14.5759,2.9519 C12.8019,2.9519 11.3629,4.3899 11.3629,6.1649 L11.3629,7.7959 L9.0589,7.7959 L9.0589,10.5229 L11.3629,10.5229 L11.3629,18.9199 L14.9479,18.9199 L14.9479,10.5229 L17.4979,10.5229 L17.4979,7.7959 L14.9479,7.7959 L14.9479,6.8809 C14.9479,6.2169 15.4859,5.6789 16.1499,5.6789 Z" id="facebook" fill="#000000"></path>
    </g>
</svg>