<?xml version="1.0" encoding="UTF-8" standalone="no"?>
<svg viewBox="0 0 22 22" version="1.1" xmlns="http://www.w3.org/2000/svg" xmlns:xlink="http://www.w3.org/1999/xlink">
    <title>linkedin</title>
    <g id="Page-1" stroke="none" stroke-width="1" fill="none" fill-rule="evenodd">
        <path d="M19.4642,0 L1.5512,0 C0.6952,0 0.0002,0.678 0.0002,1.515 L0.0002,19.503 C0.0002,20.34 0.6952,21.02 1.5512,21.02 L19.4642,21.02 C20.3212,21.02 21.0202,20.34 21.0202,19.503 L21.0202,1.515 C21.0202,0.678 20.3212,0 19.4642,0 Z M3.117,17.9115 L6.235,17.9115 L6.235,7.8805 L3.117,7.8805 L3.117,17.9115 Z M4.676,2.8935 C5.673,2.8935 6.483,3.7035 6.483,4.7005 C6.483,5.6985 5.673,6.5095 4.676,6.5095 C3.677,6.5095 2.868,5.6985 2.868,4.7005 C2.868,3.7035 3.677,2.8935 4.676,2.8935 Z M8.1898,7.8802 L11.1798,7.8802 L11.1798,9.2512 L11.2218,9.2512 C11.6378,8.4622 12.6548,7.6312 14.1718,7.6312 C17.3288,7.6312 17.9118,9.7082 17.9118,12.4092 L17.9118,17.9112 L14.7958,17.9112 L14.7958,13.0332 C14.7958,11.8702 14.7748,10.3732 13.1758,10.3732 C11.5538,10.3732 11.3048,11.6412 11.3048,12.9492 L11.3048,17.9112 L8.1898,17.9112 L8.1898,7.8802 Z" id="linkedin" fill="#000000"></path>
    </g>
</svg>