<?xml version="1.0" encoding="UTF-8" standalone="no"?>
<svg viewBox="0 0 107 27" version="1.1" xmlns="http://www.w3.org/2000/svg" xmlns:xlink="http://www.w3.org/1999/xlink">
    <title>Spire</title>
    <g id="letters" transform="translate(0.000000, 6.000000)">
        <path d="M17.4,3.5 C14.8,1.8 11.7,0.9 8.4,0.9 C6,0.9 4.3,1.4 2.8,2.4 C1.3,3.5 0.5,5 0.5,6.7 C0.5,8.3 1.4,9.7 3,10.6 C4.1,11.2 5.8,11.6 8.3,11.8 C11.4,12 12.6,12.3 13.1,12.4 C14.7,12.9 14.7,13.8 14.7,14.1 C14.7,14.9 14.3,15.5 13.5,15.9 C12.6,16.4 11.4,16.7 9.7,16.7 C7.1,16.7 4.6,15.9 2.3,14.3 C2.2,14.2 2.1,14.2 1.9,14.2 C1.8,14.2 1.7,14.3 1.6,14.4 L0.2,16.6 C0.1,16.8 0.1,17.1 0.3,17.2 C1.9,18.7 5.8,20.2 9.9,20.2 C12.5,20.2 14.5,19.6 16.2,18.5 C17.8,17.4 18.6,15.9 18.6,13.9 C18.6,12.4 18,11.1 17,10.2 C16,9.4 14.6,8.8 12.6,8.5 C11.8,8.4 10.4,8.3 8.5,8.1 C7.1,8 6.1,7.8 5.6,7.6 C4.7,7.2 4.6,6.7 4.6,6.4 C4.6,6.1 4.7,5.5 5.6,5.1 C6.4,4.7 7.5,4.5 9,4.5 C11.3,4.5 13.5,5.1 15.7,6.4 C15.9,6.5 16.2,6.5 16.3,6.3 L17.9,4.2 C18,4.1 18,4 18,3.8 C17.6,3.7 17.5,3.6 17.4,3.5" id="Shape"></path>
        <path d="M42.7,3.1 C41.7,2 40.3,1.5 38.6,1.5 L26.6,1.5 C26.3,1.5 26.1,1.7 26.1,2 L26.1,19.4 C26.1,19.7 26.3,19.9 26.6,19.9 L29.1,19.9 C29.4,19.9 29.6,19.7 29.6,19.4 L29.6,13.3 L38.2,13.3 C40.1,13.3 41.6,12.8 42.7,11.8 C43.7,10.8 44.3,9.3 44.3,7.5 C44.2,5.6 43.7,4.2 42.7,3.1 M38.2,9.6 L29.6,9.6 L29.6,5 L38,5 C39.8,5 40.6,5.7 40.6,7.4 C40.7,8.9 39.9,9.6 38.2,9.6" id="Shape"></path>
        <path d="M53.9,1.5 L51.4,1.5 C51.1,1.5 50.9,1.7 50.9,2 L50.9,19.4 C50.9,19.7 51.1,19.9 51.4,19.9 L53.9,19.9 C54.2,19.9 54.4,19.7 54.4,19.4 L54.4,2 C54.4,1.7 54.1,1.5 53.9,1.5" id="Shape"></path>
        <path d="M77.6,12.9 C77.6,12.9 77.5,12.9 77.6,12.9 C78.6,12.5 79.4,12 80.1,11.3 C80.9,10.3 81.3,9 81.3,7.4 C81.3,5.6 80.8,4.1 79.8,3.1 C78.8,2 77.4,1.5 75.7,1.5 L63.7,1.5 C63.4,1.5 63.2,1.7 63.2,2 L63.2,19.4 C63.2,19.7 63.4,19.9 63.7,19.9 L66.2,19.9 C66.5,19.9 66.7,19.7 66.7,19.4 L66.7,13.3 L73.7,13.3 L76.7,19.7 C76.8,19.8 77,19.9 77.1,19.9 L80.2,19.9 C80.4,19.9 80.5,19.8 80.6,19.7 C80.7,19.5 80.7,19.4 80.6,19.2 L77.6,12.9 L77.6,12.9 Z M75.3,9.6 L66.7,9.6 L66.7,5 L75.1,5 C76.9,5 77.8,5.7 77.8,7.4 C77.7,8.9 77,9.6 75.3,9.6 L75.3,9.6 Z" id="Shape"></path>
        <path d="M92.6,16.3 L92.6,12.1 L92.6,12.1 L105.8,12.1 C106.1,12.1 106.3,11.9 106.3,11.6 L106.3,9 C106.3,8.7 106.1,8.5 105.8,8.5 L92.6,8.5 L92.6,8.5 L92.6,5 L92.6,5 L105.8,5 C106.1,5 106.3,4.8 106.3,4.5 L106.3,2 C106.3,1.7 106.1,1.5 105.8,1.5 L89.6,1.5 C89.3,1.5 89.1,1.7 89.1,2 L89.1,19.4 C89.1,19.7 89.3,19.9 89.6,19.9 L105.8,19.9 C106.1,19.9 106.3,19.7 106.3,19.4 L106.3,16.8 C106.3,16.5 106.1,16.3 105.8,16.3 L92.6,16.3 L92.6,16.3 L92.6,16.3 Z" id="Shape"></path>
    </g>
    <path d="M54.4,0.5 C54.4,0.2 54.2,0.1 54,0.3 L51.3,2 C51.1,2.1 50.9,2.5 50.9,2.8 L50.9,5.9 C50.9,6 51,6.2 51.3,6 L54,4.3 C54.2,4.2 54.4,3.8 54.4,3.5 L54.4,0.5 L54.4,0.5 Z" id="apostrophe"></path>
</svg>