<?xml version="1.0" encoding="UTF-8" standalone="no"?>
<svg width="107px" height="21px" viewBox="0 0 107 21" version="1.1" xmlns="http://www.w3.org/2000/svg" xmlns:xlink="http://www.w3.org/1999/xlink">
    <!-- Generator: Sketch 3.8.3 (29802) - http://www.bohemiancoding.com/sketch -->
    <title>spire</title>
    <desc>Created with Sketch.</desc>
    <defs></defs>
    <g id="Page-1" stroke="none" stroke-width="1" fill="none" fill-rule="evenodd">
        <g id="spire" transform="translate(0.000000, 0.976450)" fill="#F58326">
            <path d="M92.5877,15.3733 L92.5877,11.2023 L92.5877,11.2263 L105.7717,11.2263 C106.0367,11.2263 106.2657,11.0133 106.2657,10.7403 L106.2657,8.1233 C106.2657,7.8583 106.0367,7.6413 105.7717,7.6413 L92.5877,7.6413 L92.5877,7.6533 L92.5877,4.1753 L92.5877,4.1673 L105.7717,4.1673 C106.0367,4.1673 106.2657,3.9563 106.2657,3.6813 L106.2657,1.0673 C106.2657,0.7973 106.0367,0.5793 105.7717,0.5793 L89.5767,0.5793 C89.3057,0.5793 89.0867,0.7973 89.0867,1.0673 L89.0867,18.4623 C89.0867,18.7293 89.3057,18.9483 89.5767,18.9483 L105.7717,18.9483 C106.0367,18.9483 106.2657,18.7293 106.2657,18.4623 L106.2657,15.8443 C106.2657,15.5763 106.0367,15.3573 105.7717,15.3573 L92.5877,15.3573 L92.5877,15.3733 Z" id="Fill-9"></path>
            <path d="M75.288,8.7252 L66.662,8.7252 L66.662,4.1682 L75.056,4.1682 C76.905,4.1682 77.727,4.9022 77.727,6.5402 C77.727,8.0492 76.975,8.7252 75.288,8.7252 L75.288,8.7252 Z M77.617,12.0462 C77.617,12.0462 77.484,12.0462 77.664,11.9902 C78.65,11.6892 79.461,11.1582 80.076,10.4082 C80.884,9.4302 81.304,8.1262 81.304,6.5462 C81.304,4.7422 80.798,3.2832 79.806,2.2152 C78.801,1.1242 77.408,0.5772 75.674,0.5772 L63.651,0.5772 C63.389,0.5772 63.168,0.7982 63.168,1.0672 L63.168,18.4612 C63.168,18.7302 63.389,18.9472 63.651,18.9472 L66.179,18.9472 C66.445,18.9472 66.662,18.7302 66.662,18.4612 L66.662,12.3162 L73.648,12.3162 L76.692,18.7162 C76.782,18.8612 76.946,18.9472 77.106,18.9472 L80.187,18.9472 C80.365,18.9472 80.523,18.8532 80.613,18.7032 C80.702,18.5452 80.696,18.3592 80.603,18.2032 L77.617,12.0462 Z" id="Fill-7"></path>
            <path d="M53.8642,0.5781 L51.3412,0.5781 C51.0722,0.5781 50.8552,0.7961 50.8552,1.0661 L50.8552,18.4591 C50.8552,18.7311 51.0722,18.9481 51.3412,18.9481 L53.8642,18.9481 C54.1342,18.9481 54.3562,18.7311 54.3562,18.4591 L54.3562,1.0661 C54.3562,0.7961 54.1342,0.5781 53.8642,0.5781" id="Fill-5"></path>
            <path d="M38.2185,8.7244 L29.5935,8.7244 L29.5935,4.1674 L38.0465,4.1674 C39.8505,4.1674 40.6535,4.9034 40.6535,6.5414 C40.6535,8.0484 39.9015,8.7244 38.2185,8.7244 M42.7305,2.2144 C41.7315,1.1254 40.3565,0.5784 38.6635,0.5784 L26.5795,0.5784 C26.3175,0.5784 26.0935,0.7974 26.0935,1.0664 L26.0935,18.4614 C26.0935,18.7294 26.3175,18.9484 26.5795,18.9484 L29.1035,18.9484 C29.3695,18.9484 29.5935,18.7294 29.5935,18.4614 L29.5935,12.3154 L38.1795,12.3154 C40.1025,12.3154 41.6135,11.8054 42.6585,10.8074 C43.6995,9.8024 44.2265,8.3514 44.2265,6.4944 C44.2265,4.7254 43.7285,3.2864 42.7305,2.2144" id="Fill-3"></path>
            <path d="M17.3894,2.6497 C14.8154,0.9117 11.6914,-0.0003 8.3434,-0.0003 C5.9394,-0.0003 4.2644,0.4547 2.7434,1.5227 C1.2284,2.5907 0.4254,4.0847 0.4254,5.8367 C0.4254,7.4097 1.3414,8.8707 2.8764,9.7437 C3.9594,10.3657 5.6624,10.7467 8.2124,10.9427 C11.3114,11.1667 12.5394,11.4267 12.9924,11.5607 C14.6014,12.0417 14.6014,12.9667 14.6014,13.2737 C14.6014,14.0407 14.2164,14.6327 13.4354,15.0797 C12.5154,15.6127 11.3034,15.8607 9.6354,15.8607 C6.9954,15.8607 4.4924,15.0507 2.2044,13.4417 C2.0954,13.3707 1.9664,13.3437 1.8354,13.3657 C1.7004,13.3927 1.5874,13.4667 1.5154,13.5747 L0.0784,15.7767 C-0.0506,15.9717 -0.0156,16.2397 0.1504,16.3997 C1.7144,17.8697 5.6014,19.4377 9.7154,19.4377 C12.2714,19.4377 14.3204,18.8677 15.9814,17.6977 C17.5654,16.5827 18.3344,15.0737 18.3344,13.0807 C18.3344,11.5337 17.7794,10.2467 16.7314,9.3467 C15.7534,8.5097 14.3084,7.9567 12.2954,7.6597 C11.5104,7.5467 10.0924,7.4137 8.1904,7.2637 C6.8144,7.1777 5.8224,7.0097 5.2424,6.7737 C4.3254,6.4107 4.2174,5.8987 4.2174,5.5457 C4.2174,5.1977 4.3154,4.6917 5.1914,4.2587 C5.9494,3.8717 7.0794,3.6807 8.5504,3.6807 C10.8074,3.6807 13.0484,4.3227 15.2204,5.5787 C15.4334,5.6977 15.7004,5.6467 15.8524,5.4577 L17.5004,3.3547 C17.5824,3.2467 17.6194,3.1127 17.5944,2.9757 C17.5754,2.8447 17.5004,2.7237 17.3894,2.6497" id="Fill-1"></path>
        </g>
    </g>
</svg>