<?xml version="1.0" standalone="no"?>
<!DOCTYPE svg PUBLIC "-//W3C//DTD SVG 20010904//EN"
 "http://www.w3.org/TR/2001/REC-SVG-20010904/DTD/svg10.dtd">
<svg version="1.0" xmlns="http://www.w3.org/2000/svg"
 width="700.000000pt" height="700.000000pt" viewBox="0 0 700.000000 700.000000"
 preserveAspectRatio="xMidYMid meet">
<metadata>
Created by potrace 1.11, written by Peter Selinger 2001-2013
</metadata>
<g transform="translate(0.000000,700.000000) scale(0.100000,-0.100000)"
fill="#000000" stroke="none">
<path d="M4835 6070 c-39 -9 -69 -25 -130 -71 -27 -20 -581 -371 -1230 -779
-649 -408 -1194 -753 -1212 -766 -74 -56 -179 -223 -232 -371 -58 -161 -56
-97 -56 -1633 0 -1409 0 -1415 21 -1450 11 -19 36 -46 55 -58 50 -35 135 -27
221 21 35 19 596 370 1248 780 1089 684 1191 751 1265 823 87 86 153 196 201
336 55 162 54 128 54 1594 0 945 -3 1369 -11 1406 -26 124 -102 190 -194 168z"/>
</g>
</svg>
