<svg xmlns="http://www.w3.org/2000/svg" viewBox="0 0 68.77 38.92">
  <defs>
    <style>
      .a {
        fill: #fff;
      }
    </style>
  </defs>
  <title>avison</title>
  <g>
    <polygon class="a" points="14.91 15.63 11.49 7.29 9 7.29 12.43 15.63 14.91 15.63"/>
    <polygon class="a" points="4.32 15.63 7.87 7.04 9.15 9.96 8.06 12.58 10.15 12.58 10.7 13.87 7.53 13.87 6.8 15.63 4.32 15.63"/>
    <rect class="a" x="27.36" y="7.29" width="2.26" height="8.34"/>
    <polygon class="a" points="63.84 15.63 63.84 7.29 61.59 7.29 61.59 12.86 57.42 7.29 54.8 7.29 61.09 15.63 63.84 15.63"/>
    <polygon class="a" points="57.18 15.63 57.18 11.75 54.92 8.85 54.92 15.63 57.18 15.63"/>
    <g>
      <path class="a" d="M534.08,275.94h-5.74a2.43,2.43,0,0,0-2.46,2.24c-0.17,2.32,2.42,2.43,2.68,2.49a23.56,23.56,0,0,1,3.21.63,1,1,0,0,1,.38.71,0.8,0.8,0,0,1-.81,1h-5.53v1.31h6.44a2.38,2.38,0,0,0,2-2,2.13,2.13,0,0,0-1.82-2.49c-0.31-.1-3.46-0.5-3.71-0.57a0.94,0.94,0,0,1-.64-1.14,1,1,0,0,1,1-.87h5v-1.3" transform="translate(-493.66 -268.64)"/>
      <path class="a" d="M516,298c0,1.12-1.94,1-1.94,1s-1.94.1-1.94-1V294c0-1.13,1.94-1,1.94-1s1.94-.11,1.94,1V298m2.19-4.29s0.28-2-3-2H513c-3.32,0-3,2-3,2v4.5s-0.28,2,3,2h2.19c3.32,0,3-2,3-2v-4.5Z" transform="translate(-493.66 -268.64)"/>
      <path class="a" d="M543.17,282.15c0,1.13-1.94,1-1.94,1s-1.94.11-1.94-1v-4.08c0-1.13,1.94-1,1.94-1s1.94-.11,1.94,1v4.08m2.19-4.29s0.28-2-3-2h-2.19c-3.32,0-3,2-3,2v4.5s-0.28,2,3,2h2.19c3.31,0,3-2,3-2v-4.5Z" transform="translate(-493.66 -268.64)"/>
      <polygon class="a" points="50.7 31.57 50.7 23.23 48.44 23.23 48.44 28.79 44.27 23.23 41.65 23.23 47.95 31.57 50.7 31.57"/>
      <polygon class="a" points="44.03 31.57 44.03 27.69 41.78 24.79 41.78 31.57 44.03 31.57"/>
      <rect class="a" y="36.67" width="68.77" height="2.25"/>
      <rect class="a" width="68.77" height="2.25"/>
      <polygon class="a" points="22.98 7.29 25.47 7.29 22 15.63 18.05 15.63 14.62 7.29 17.08 7.29 20.05 14.49 22.98 7.29"/>
      <path class="a" d="M503.25,294.77l1.85-3h2.47l-3.17,4.79Zm0.64,2.62v2.82h-2.26v-2.82l-3.7-5.56h2.46l2.36,3.76Z" transform="translate(-493.66 -268.64)"/>
      <path class="a" d="M531.16,291.82v5.59c0,2.24-1.27,2.86-4.23,2.86-4,0-4.47-.85-4.47-2.86v-5.59h2.25v6c0,1.2.81,1.21,2.24,1.21s1.93-.1,1.93-1.34v-5.89h2.28" transform="translate(-493.66 -268.64)"/>
      <path class="a" d="M555.18,294.42l0-.42c-0.07-1.07-1.17-1.06-2.19-1.06-2.44,0-2.51.62-2.55,2.32V297c0,1.87.78,2.07,2.55,2.07s2.19-.32,2.19-1.79l0-.39h-2.33v-1.28h4.63v1.34c0,2.83-.86,3.34-4.47,3.34-3.18,0-4.79-.45-4.79-3.16v-2.17c0-2.77,1.83-3.19,4.79-3.19,2.61,0,4.47,0,4.47,2.67h-2.26" transform="translate(-493.66 -268.64)"/>
      <rect class="a" x="4.15" y="19.12" width="59.73" height="0.72"/>
    </g>
  </g>
</svg>
