<svg xmlns="http://www.w3.org/2000/svg" viewBox="0 0 74.17 56.3">
  <defs>
    <style>
      .a {
        fill: #fff;
      }
    </style>
  </defs>
  <title>seritage</title>
  <g>
    <path class="a" d="M353.95,123.63a0.53,0.53,0,0,0-.64-0.52h-0.79v1h0.8A0.55,0.55,0,0,0,353.95,123.63Z" transform="translate(-314.53 -73.81)"/>
    <path class="a" d="M357.32,123.06a1.05,1.05,0,0,0-1,1.1,1.07,1.07,0,0,0,1.06,1.11,1.05,1.05,0,0,0,1-1.1A1.07,1.07,0,0,0,357.32,123.06Z" transform="translate(-314.53 -73.81)"/>
    <polygon class="a" points="47.72 40.7 46.48 43.6 48.98 43.6 47.72 40.7"/>
    <path class="a" d="M330.33,123.06a1.05,1.05,0,0,0-1,1.1,1.07,1.07,0,0,0,1.06,1.11,1.05,1.05,0,0,0,1-1.1A1.07,1.07,0,0,0,330.33,123.06Z" transform="translate(-314.53 -73.81)"/>
    <path class="a" d="M361.46,123.11h-0.63v1.12h0.63a0.58,0.58,0,0,0,.67-0.56A0.57,0.57,0,0,0,361.46,123.11Z" transform="translate(-314.53 -73.81)"/>
    <path class="a" d="M349.51,123.11h-0.63v1.12h0.63a0.58,0.58,0,0,0,.67-0.56A0.57,0.57,0,0,0,349.51,123.11Z" transform="translate(-314.53 -73.81)"/>
    <path class="a" d="M327,123.63a0.53,0.53,0,0,0-.64-0.52h-0.79v1h0.8A0.55,0.55,0,0,0,327,123.63Z" transform="translate(-314.53 -73.81)"/>
    <path class="a" d="M342.4,115.41a1.25,1.25,0,0,0-1.5-1.21H339v2.44h1.87A1.29,1.29,0,0,0,342.4,115.41Z" transform="translate(-314.53 -73.81)"/>
    <path class="a" d="M369.54,123.63a0.53,0.53,0,0,0-.64-0.52H368.1v1h0.8A0.55,0.55,0,0,0,369.54,123.63Z" transform="translate(-314.53 -73.81)"/>
    <path class="a" d="M314.53,73.81v56.3H388.7V73.81H314.53ZM377.43,113h5.38v1.14h-4.1v1.89h3.64v1.14h-3.64v1.95h4.16v1.14h-5.43V113Zm-48.19,0h5.38v1.14h-4.1v1.89h3.64v1.14h-3.64v1.95h4.16v1.14h-5.43V113Zm-6,4.19c-1.54-.37-2.41-0.83-2.41-2.18a2.21,2.21,0,0,1,2.48-2.11,4,4,0,0,1,2.63.91l-0.68,1a3.29,3.29,0,0,0-2-.75,1,1,0,0,0-1.18.87c0,0.57.33,0.82,1.72,1.15s2.33,0.92,2.33,2.13c0,1.37-1.07,2.18-2.59,2.18a4.47,4.47,0,0,1-3-1.16l0.77-.91a3.34,3.34,0,0,0,2.29.94,1.07,1.07,0,0,0,1.28-.92C324.84,117.82,324.55,117.54,323.2,117.23Zm0.39,8.07a2,2,0,0,1-1.3.48,1.54,1.54,0,0,1-1.61-1.6,1.58,1.58,0,0,1,1.6-1.61,1.68,1.68,0,0,1,1.19.42l-0.35.41a1.22,1.22,0,0,0-.87-0.33,1,1,0,0,0-1,1.1,1,1,0,0,0,1.06,1.11,1.27,1.27,0,0,0,.75-0.24v-0.58h-0.79V124h1.32v1.31Zm3.37,0.43-0.76-1.08h-0.68v1.08H325v-3.11h1.38a1,1,0,0,1,1.15,1,0.93,0.93,0,0,1-.74.95l0.84,1.18H327Zm3.37,0.05a1.61,1.61,0,1,1,1.63-1.61A1.58,1.58,0,0,1,330.33,125.78Zm6.1,0H336l-0.76-2.23-0.76,2.23H334l-1.08-3.13h0.59l0.74,2.3,0.76-2.31h0.46l0.76,2.31,0.74-2.3h0.57Zm1.33-12.7H341c1.67,0,2.69.88,2.69,2.3a2.17,2.17,0,0,1-1.73,2.21l2,2.75h-1.5l-1.78-2.53H339v2.53h-1.27V113ZM341,123.12h-1v2.6h-0.55v-2.6h-1v-0.51H341v0.51Zm3.82,2.6h-0.55v-1.31h-1.48v1.31h-0.55v-3.11h0.55v1.29h1.48v-1.29h0.55v3.11Zm1.77-6.7h0.55v-4.7h-0.55V113H349v1.27h-0.55V119H349v1.27h-2.37V119Zm2.86,5.7h-0.62v1h-0.55v-3.11h1.23a1,1,0,0,1,1.18,1A1.1,1.1,0,0,1,349.49,124.72Zm4.46,1-0.76-1.08h-0.68v1.08H352v-3.11h1.39a1,1,0,0,1,1.15,1,0.93,0.93,0,0,1-.74.95l0.84,1.18H354Zm1.21-5.43h-1.29v-6.07h-2.3V113h5.89v1.18h-2.3v6.07Zm2.16,5.48a1.61,1.61,0,1,1,1.63-1.61A1.58,1.58,0,0,1,357.32,125.78Zm1.17-5.48,3.19-7.31h1.18l3.19,7.31h-1.35L364,118.54h-3.43l-0.75,1.75h-1.31Zm2.95,4.43h-0.62v1h-0.55v-3.11h1.23a1,1,0,0,1,1.18,1A1.1,1.1,0,0,1,361.44,124.72Zm4.8,1h-2.33v-3.11h2.3v0.49h-1.76v0.81H366v0.49h-1.56v0.83h1.78v0.49Zm3.31,0-0.76-1.08H368.1v1.08h-0.55v-3.11h1.39a1,1,0,0,1,1.15,1,0.93,0.93,0,0,1-.74.95l0.84,1.18h-0.64Zm4.17-2.6h-1v2.6h-0.55v-2.6h-1v-0.51h2.52v0.51Zm0.56-3.83a4.63,4.63,0,0,1-3,1.13,3.6,3.6,0,0,1-3.76-3.74,3.7,3.7,0,0,1,3.74-3.76,3.92,3.92,0,0,1,2.79,1l-0.81,1a2.84,2.84,0,0,0-2-.78,2.45,2.45,0,0,0-2.35,2.57,2.43,2.43,0,0,0,2.47,2.6,3,3,0,0,0,1.75-.55v-1.36h-1.86v-1.11h3.09v3Zm1.26,6.43H375v-3.11h0.55v3.11Zm3.82,0H377v-3.11h2.3v0.49h-1.76v0.81h1.56v0.49h-1.56v0.83h1.78v0.49Zm2.4,0a1.91,1.91,0,0,1-1.3-.5l0.33-.39a1.43,1.43,0,0,0,1,.4,0.46,0.46,0,0,0,.55-0.4c0-.23-0.12-0.35-0.7-0.48a1,1,0,0,1-1-.93,1,1,0,0,1,1.06-.91,1.72,1.72,0,0,1,1.13.39l-0.29.41a1.41,1.41,0,0,0-.84-0.32,0.43,0.43,0,0,0-.51.37c0,0.24.14,0.35,0.74,0.49a1,1,0,0,1,1,.91A1,1,0,0,1,381.77,125.77Z" transform="translate(-314.53 -73.81)"/>
  </g>
</svg>
