<svg xmlns="http://www.w3.org/2000/svg" viewBox="0 0 128.43 26.51">
  <defs>
    <style>
      .a {
        fill: #fff;
      }
    </style>
  </defs>
  <title>ngkf</title>
  <g>
    <path class="a" d="M453.76,192.89V201h8.15l4.1-4.09-8.14-8.13Zm0-16.32v8.13l4.11,4.09,8.14-8.13-4.1-4.09h-8.15Zm16.35,0-4.1,4.09,8.15,8.13L466,196.92l4.1,4.09h8.1v-8.19l-4.05-4,4.05-4v-8.18h-8.1Z" transform="translate(-453.76 -176.57)"/>
    <rect class="a" x="28.61" width="0.45" height="24.45"/>
    <rect class="a" x="49.54" width="8.13" height="2.19"/>
    <rect class="a" x="49.54" y="7.2" width="8.13" height="2.4"/>
    <polygon class="a" points="44.03 3.5 33.22 3.5 33.22 5.89 45.87 5.89 44.03 3.5"/>
    <polygon class="a" points="33.22 0 33.22 2.19 43.03 2.19 41.35 0 33.22 0"/>
    <rect class="a" x="49.54" y="3.49" width="8.13" height="2.4"/>
    <polygon class="a" points="46.87 7.2 33.22 7.2 33.22 9.59 48.71 9.59 46.87 7.2"/>
    <rect class="a" x="33.22" y="14.6" width="8.13" height="2.4"/>
    <rect class="a" x="33.22" y="18.3" width="8.13" height="2.4"/>
    <polygon class="a" points="49.54 24.45 57.67 24.45 57.67 22 47.67 22 49.54 24.45"/>
    <rect class="a" x="33.22" y="22" width="8.13" height="2.44"/>
    <polygon class="a" points="46.67 20.7 57.67 20.7 57.67 18.3 44.84 18.3 46.67 20.7"/>
    <polygon class="a" points="43.84 17 57.67 17 57.67 14.6 42.02 14.6 43.84 17"/>
    <rect class="a" x="33.22" y="10.9" width="24.45" height="2.4"/>
    <path class="a" d="M523.12,200.43a2.77,2.77,0,0,1-.85.48,3.17,3.17,0,0,1-1,.15,2.78,2.78,0,0,1-2.2-.93,3.49,3.49,0,0,1-.81-2.41,4.4,4.4,0,0,1,.46-2.09,3,3,0,0,1,1.08-1.15,2.84,2.84,0,0,1,1.5-.41,3.17,3.17,0,0,1,1,.15,2.07,2.07,0,0,1,.74.39l-0.61.92a1.79,1.79,0,0,0-1.08-.38,1.43,1.43,0,0,0-.65.16,1.27,1.27,0,0,0-.49.43,3.16,3.16,0,0,0-.38,1.73,7.52,7.52,0,0,0,.06,1.11,2.1,2.1,0,0,0,.22.69,1.38,1.38,0,0,0,1.3.76,1.73,1.73,0,0,0,.58-0.1,2,2,0,0,0,.58-0.34Z" transform="translate(-453.76 -176.57)"/>
    <path class="a" d="M526.25,198.77a2,2,0,0,0-.94.16,0.63,0.63,0,0,0-.27.6,0.68,0.68,0,0,0,.16.47,0.53,0.53,0,0,0,.41.18,0.8,0.8,0,0,0,.36-0.09,1,1,0,0,0,.32-0.25l0-1.07h-0.06Zm1.11,2.42a1.72,1.72,0,0,1-.41-0.25,1.05,1.05,0,0,1-.29-0.35l-0.15.15-0.15.12a1.68,1.68,0,0,1-1,.27,1.81,1.81,0,0,1-1.27-.4,1.48,1.48,0,0,1-.44-1.15,1.46,1.46,0,0,1,.6-1.29,3.17,3.17,0,0,1,1.79-.41h0.29v-0.2a1.07,1.07,0,0,0-.11-0.58,0.55,0.55,0,0,0-.47-0.16,1.8,1.8,0,0,0-.67.15,4.25,4.25,0,0,0-.77.42l-0.55-.93,0.37-.21,0.44-.19a3.92,3.92,0,0,1,.69-0.22,3.26,3.26,0,0,1,.66-0.07,2.17,2.17,0,0,1,1,.22,1.14,1.14,0,0,1,.56.64,0.84,0.84,0,0,1,0,.15l0,0.17a1.58,1.58,0,0,1,0,.23v0.34l0,1.67c0,0.14,0,.25,0,0.35a0.91,0.91,0,0,0,.06.28,0.84,0.84,0,0,0,.14.24,1.6,1.6,0,0,0,.26.24Z" transform="translate(-453.76 -176.57)"/>
    <path class="a" d="M531.75,198.45a6.22,6.22,0,0,0,0-.63,1.93,1.93,0,0,0-.1-0.46,0.59,0.59,0,0,0-.62-0.42,1.14,1.14,0,0,0-.86.38v2.41a1.69,1.69,0,0,0,.33.2,0.89,0.89,0,0,0,.39.09,0.73,0.73,0,0,0,.69-0.36,2.62,2.62,0,0,0,.2-1.21m1.42-.13a6.68,6.68,0,0,1,0,.71,2.85,2.85,0,0,1-.12.57,2.09,2.09,0,0,1-.21.47,2.6,2.6,0,0,1-.32.42,1.75,1.75,0,0,1-.59.42,1.85,1.85,0,0,1-.74.15,2.26,2.26,0,0,1-.56-0.07,1.84,1.84,0,0,1-.48-0.19,0.88,0.88,0,0,1,0,.19v1.76l-1.25.33v-5.74c0-.16,0-0.3,0-0.41s0-.21,0-0.3,0-.17,0-0.26,0-.18,0-0.28l1.15-.2c0,0.09,0,.17.06,0.24s0,0.15,0,.22a1.16,1.16,0,0,1,.5-0.33,2,2,0,0,1,.72-0.13,1.72,1.72,0,0,1,.52.08,1.79,1.79,0,0,1,.83.54,2,2,0,0,1,.29.45,2.54,2.54,0,0,1,.19.6,4,4,0,0,1,.07.77" transform="translate(-453.76 -176.57)"/>
    <path class="a" d="M534,200.94v-4.87l1.3-.2v5.08H534Zm1.45-6.33a0.8,0.8,0,1,1-1.36-.57,0.8,0.8,0,0,1,.58-0.23,0.75,0.75,0,0,1,.56.23,0.79,0.79,0,0,1,.23.57" transform="translate(-453.76 -176.57)"/>
    <path class="a" d="M539.17,200.83a2.78,2.78,0,0,1-1.06.22,1.76,1.76,0,0,1-.86-0.2,1,1,0,0,1-.48-0.53l0-.15a0.67,0.67,0,0,1,0-.15c0-.05,0-0.11,0-0.19s0-.17,0-0.29v-2.69h-0.49V196h0.49c0-.25,0-0.46,0-0.63a4.43,4.43,0,0,1,0-.54l1.32-.33c0,0.23,0,.47-0.06.73s0,0.52,0,.77h1.16l-0.33.89H538v2.49a1.23,1.23,0,0,0,.11.63,0.52,0.52,0,0,0,.45.16l0.19,0,0.28-.07Z" transform="translate(-453.76 -176.57)"/>
    <path class="a" d="M542.27,198.77a2,2,0,0,0-.95.16,0.63,0.63,0,0,0-.27.6,0.68,0.68,0,0,0,.16.47,0.53,0.53,0,0,0,.41.18,0.8,0.8,0,0,0,.36-0.09,1,1,0,0,0,.32-0.25l0-1.07h-0.06Zm1.1,2.42a1.74,1.74,0,0,1-.41-0.25,1.07,1.07,0,0,1-.29-0.35l-0.15.15-0.15.12a1.68,1.68,0,0,1-1,.27,1.81,1.81,0,0,1-1.27-.4,1.48,1.48,0,0,1-.44-1.15,1.47,1.47,0,0,1,.6-1.29,3.16,3.16,0,0,1,1.79-.41h0.29v-0.2a1.07,1.07,0,0,0-.11-0.58,0.55,0.55,0,0,0-.47-0.16,1.79,1.79,0,0,0-.67.15,4.29,4.29,0,0,0-.77.42l-0.55-.93,0.37-.21,0.44-.19a3.92,3.92,0,0,1,.69-0.22,3.26,3.26,0,0,1,.66-0.07,2.17,2.17,0,0,1,1,.22,1.14,1.14,0,0,1,.56.64,1,1,0,0,1,0,.15l0,0.17a1.58,1.58,0,0,1,0,.23v0.34l0,1.67c0,0.14,0,.25,0,0.35a0.93,0.93,0,0,0,.06.28,0.83,0.83,0,0,0,.14.24,1.56,1.56,0,0,0,.26.24Z" transform="translate(-453.76 -176.57)"/>
    <path class="a" d="M546.76,200.92a2.14,2.14,0,0,1-.78.14,1.38,1.38,0,0,1-.73-0.18,1,1,0,0,1-.43-0.49,1.14,1.14,0,0,1-.06-0.18,2.06,2.06,0,0,1,0-.2c0-.08,0-0.17,0-0.29s0-.26,0-0.43v-3.7q0-.49,0-0.82c0-.22,0-0.44-0.05-0.67l1.33-.3a3.56,3.56,0,0,1,.05.48q0,0.28,0,.8v3.87c0,0.21,0,.39,0,0.51s0,0.23,0,.31a0.64,0.64,0,0,0,0,.17,0.5,0.5,0,0,0,0,.11,0.28,0.28,0,0,0,.26.14h0.07l0.08,0Z" transform="translate(-453.76 -176.57)"/>
    <path class="a" d="M554.92,200.94l-0.25-3.6c0-.21,0-0.41,0-0.59s0-.36,0-0.54c0,0.19-.08.36-0.11,0.51s-0.08.32-.14,0.53l-1.07,3.68h-1.15l-1-3.54c0-.17-0.09-0.36-0.15-0.57s-0.09-.41-0.13-0.6c0,0.19,0,.39,0,0.58s0,0.4,0,.61l-0.23,3.52h-1.35l0.63-6.74h1.74l0.88,3.37,0.08,0.32,0.06,0.26,0,0.24c0,0.08,0,.16,0,0.24,0.06-.34.14-0.7,0.24-1.1l0.91-3.34h1.72l0.6,6.74h-1.33Z" transform="translate(-453.76 -176.57)"/>
    <path class="a" d="M559.47,198.77a2,2,0,0,0-.95.16,0.63,0.63,0,0,0-.27.6,0.68,0.68,0,0,0,.16.47,0.53,0.53,0,0,0,.41.18,0.8,0.8,0,0,0,.36-0.09,1,1,0,0,0,.32-0.25l0-1.07h-0.06Zm1.1,2.42a1.76,1.76,0,0,1-.41-0.25,1.06,1.06,0,0,1-.28-0.35l-0.15.15-0.15.12a1.68,1.68,0,0,1-1,.27,1.81,1.81,0,0,1-1.27-.4,1.48,1.48,0,0,1-.44-1.15,1.46,1.46,0,0,1,.6-1.29,3.16,3.16,0,0,1,1.79-.41h0.29v-0.2a1.07,1.07,0,0,0-.11-0.58,0.55,0.55,0,0,0-.47-0.16,1.79,1.79,0,0,0-.67.15,4.3,4.3,0,0,0-.77.42l-0.55-.93,0.37-.21,0.44-.19a3.94,3.94,0,0,1,.69-0.22,3.26,3.26,0,0,1,.66-0.07,2.17,2.17,0,0,1,1,.22,1.13,1.13,0,0,1,.56.64,1,1,0,0,1,0,.15l0,0.17a1.49,1.49,0,0,1,0,.23v0.34l0,1.67c0,0.14,0,.25,0,0.35a0.93,0.93,0,0,0,.06.28,0.84,0.84,0,0,0,.14.24,1.59,1.59,0,0,0,.26.24Z" transform="translate(-453.76 -176.57)"/>
    <path class="a" d="M564.54,197.11a0.81,0.81,0,0,0-.38-0.1,1,1,0,0,0-.79.42v3.51h-1.3v-3.31a6.15,6.15,0,0,0-.05-0.87,3.07,3.07,0,0,0-.13-0.58l1.16-.31a1.67,1.67,0,0,1,.2.71,2.42,2.42,0,0,1,.5-0.49,1.08,1.08,0,0,1,.66-0.21l0.24,0L564.9,196Z" transform="translate(-453.76 -176.57)"/>
    <path class="a" d="M568.63,200.94L567,198.13l1.27-2.15h1.56l-1.58,2.07,1.95,2.89h-1.53Zm-3,0v-5.59c0-.22,0-0.42,0-0.62s0-.42-0.07-0.67l1.31-.32a5.49,5.49,0,0,1,.06.7c0,0.28,0,.58,0,0.91v5.59h-1.3Z" transform="translate(-453.76 -176.57)"/>
    <path class="a" d="M573.06,197.86a2.36,2.36,0,0,0,0-.45,0.91,0.91,0,0,0-.12-0.3,0.64,0.64,0,0,0-.57-0.29,0.67,0.67,0,0,0-.57.28,1.34,1.34,0,0,0-.2.8v0h1.5v-0.06Zm-1.52,1v0a1.31,1.31,0,0,0,.27.89,1,1,0,0,0,.78.31,2,2,0,0,0,1.26-.49l0.5,0.78a2.89,2.89,0,0,1-1.87.69,2.46,2.46,0,0,1-1-.18,2.09,2.09,0,0,1-.74-0.52,2.3,2.3,0,0,1-.47-0.81,3.19,3.19,0,0,1-.16-1.06,3.84,3.84,0,0,1,.15-1.13,2.24,2.24,0,0,1,.48-0.83,2,2,0,0,1,.69-0.5,2.17,2.17,0,0,1,.87-0.16,2.37,2.37,0,0,1,.81.14,1.58,1.58,0,0,1,.62.39,2.12,2.12,0,0,1,.5.87,4.52,4.52,0,0,1,.16,1.3v0.3h-2.87Z" transform="translate(-453.76 -176.57)"/>
    <path class="a" d="M577.79,200.83a2.78,2.78,0,0,1-1.06.22,1.75,1.75,0,0,1-.86-0.2,1,1,0,0,1-.48-0.53l0-.15a0.63,0.63,0,0,1,0-.15c0-.05,0-0.11,0-0.19s0-.17,0-0.29v-2.69h-0.49V196h0.49c0-.25,0-0.46,0-0.63a4.71,4.71,0,0,1,0-.54l1.32-.33c0,0.23,0,.47-0.06.73s0,0.52,0,.77h1.16l-0.33.89H576.6v2.49a1.21,1.21,0,0,0,.11.63,0.52,0.52,0,0,0,.45.16l0.19,0,0.28-.07Z" transform="translate(-453.76 -176.57)"/>
    <path class="a" d="M582.19,199.37a1.57,1.57,0,0,1-.16.7,1.64,1.64,0,0,1-.43.54,2,2,0,0,1-.67.35,2.82,2.82,0,0,1-.87.13,4.38,4.38,0,0,1-2-.57l0.46-.95,0.34,0.19,0.42,0.18a3.69,3.69,0,0,0,.45.14,1.88,1.88,0,0,0,.44.05,0.7,0.7,0,0,0,.47-0.16,0.5,0.5,0,0,0,.19-0.4,0.47,0.47,0,0,0-.18-0.39,1.43,1.43,0,0,0-.58-0.22l-0.58-.11a1.76,1.76,0,0,1-.51-0.19,1.37,1.37,0,0,1-.4-0.31,1.16,1.16,0,0,1-.21-0.41,1.65,1.65,0,0,1-.07-0.48,1.58,1.58,0,0,1,.14-0.66,1.46,1.46,0,0,1,.39-0.51,1.78,1.78,0,0,1,.61-0.33,2.52,2.52,0,0,1,.79-0.12,3,3,0,0,1,1,.15,7.51,7.51,0,0,1,.76.32l-0.43.87a3.65,3.65,0,0,0-.65-0.28,2.06,2.06,0,0,0-.57-0.08,0.74,0.74,0,0,0-.46.13,0.42,0.42,0,0,0-.17.35,0.37,0.37,0,0,0,.14.31,1.34,1.34,0,0,0,.48.2l0.6,0.16a3,3,0,0,1,.39.12,1.61,1.61,0,0,1,.27.14l0.19,0.15,0.15,0.16a1.3,1.3,0,0,1,.27.84" transform="translate(-453.76 -176.57)"/>
    <polygon class="a" points="117.12 0 117.12 3.02 117.12 14.58 121.89 14.58 121.89 8.46 126.73 8.46 126.73 5.45 121.89 5.45 121.89 3.02 128.43 3.02 128.43 0 117.12 0"/>
    <polygon class="a" points="110.19 0 104.93 5.64 104.93 0 100.16 0 100.16 14.58 104.93 14.58 104.93 8.95 110.19 14.58 115.67 14.58 109.04 7.29 115.67 0 110.19 0"/>
    <polygon class="a" points="76.15 0 76.15 8.15 69.46 0 64.47 0 64.47 14.58 69.24 14.58 69.24 6.15 76.15 14.58 80.92 14.58 80.92 0 76.15 0"/>
    <path class="a" d="M544,182.78V186h3.22v2.35l-0.35.08a9,9,0,0,1-1.12.07,6.08,6.08,0,0,1-2.06-.32,4.05,4.05,0,0,1-2.41-2.32,4.64,4.64,0,0,1-.28-1.67,4.11,4.11,0,0,1,2.22-3.9A4.65,4.65,0,0,1,544,180h0l0.27-.08,0.14,0h0l0.28-.06a7.23,7.23,0,0,1,1.43-.1,7.61,7.61,0,0,1,1.87.27,5.83,5.83,0,0,1,1.47.63l2.2-2.36a10.54,10.54,0,0,0-2.92-1.22,13.86,13.86,0,0,0-3.41-.41,13.29,13.29,0,0,0-2.6.24,9.4,9.4,0,0,0-2.27.78,6.82,6.82,0,0,0-4.23,6.56,7,7,0,0,0,.52,2.81,6.61,6.61,0,0,0,1.64,2.23,7.72,7.72,0,0,0,2.94,1.67,12.91,12.91,0,0,0,3.92.54,18.58,18.58,0,0,0,3.39-.3,15.64,15.64,0,0,0,3.17-1l0.25-.1v-7.24H544Z" transform="translate(-453.76 -176.57)"/>
  </g>
</svg>
