<svg xmlns="http://www.w3.org/2000/svg" viewBox="0 0 74.67 27.77">
  <defs>
    <style>
      .a {
        fill: #fff;
      }
    </style>
  </defs>
  <title>hff</title>
  <g>
    <path class="a" d="M177.13,92.08v1.4h-1.66c-0.83,0-.92.26-0.92,1.09v9.24h12.22v-4.6c0-4.47-.09-5.74-2.06-5.74h-1.49v-1.4h11v1.4h-1.62c-0.92,0-1,.31-1,1.27v18c0,4.55.09,5.69,2.06,5.69h1.53v1.45H184.18v-1.45h1.62c0.92,0,1-.31,1-1.49V105.57H174.54v7.14c0,4.55.09,5.69,2.06,5.69h1.66v1.45H167.05v-1.45h1.62c0.92,0,1-.31,1-1.49V99.22c0-4.51-.13-5.74-2.1-5.74h-1.31v-1.4h10.9Z" transform="translate(-166.22 -92.08)"/>
    <path class="a" d="M218.16,92.08l-0.53,3.63c-0.09.57-.18,0.79-0.57,0.79-0.7,0-.53-0.83-1-1.31-0.92-1.09-3.28-1.53-7.18-1.53H206.2c-1,0-1,.18-1,1v9.07h3.68c4.07,0,5.21-.13,5.21-1.93v-1.23h1.31v7.62h-1.31v-1.44c0-1.36-1-1.45-4.12-1.45H205.2v7.45c0,4.73.13,5.69,2.06,5.69h1.84v1.45H197.71v-1.4h1.62c0.88,0,1-.22,1-0.92V99.22c0-4.73-.18-5.74-2.1-5.74h-1.31v-1.4h21.28Z" transform="translate(-166.22 -92.08)"/>
    <path class="a" d="M240.89,92.08l-0.53,3.63c-0.09.57-.18,0.79-0.57,0.79-0.7,0-.53-0.83-1-1.31-0.92-1.09-3.28-1.53-7.18-1.53h-2.72c-1,0-1,.18-1,1v9.07h3.68c4.07,0,5.21-.13,5.21-1.93v-1.23h1.31v7.62h-1.31v-1.44c0-1.36-1-1.45-4.12-1.45h-4.77v7.45c0,4.73.13,5.69,2.06,5.69h1.84v1.45H220.44v-1.4h1.62c0.88,0,1-.22,1-0.92V99.22c0-4.73-.18-5.74-2.1-5.74h-1.31v-1.4h21.28Z" transform="translate(-166.22 -92.08)"/>
    <path class="a" d="M234.57,117.87a1.88,1.88,0,1,1,1.88,1.78A1.78,1.78,0,0,1,234.57,117.87Zm3.41,0a1.53,1.53,0,0,0-3.07,0A1.53,1.53,0,0,0,238,117.85Zm-2.23-.29c0-.31,0-0.45,0-0.55s-0.06-.14-0.22-0.14a0.07,0.07,0,0,1-.06,0s0-.06.1-0.06h0.1l0.27,0,0.43,0a0.69,0.69,0,0,1,.86.55,0.72,0.72,0,0,1-.37.61l0.35,0.43a0.7,0.7,0,0,0,.39.35,0.05,0.05,0,0,1,.06,0s0,0.06-.14.06a0.69,0.69,0,0,1-.71-0.39l-0.29-.39h-0.37v0.18a0.75,0.75,0,0,0,0,.45,0.6,0.6,0,0,0,.2,0s0.06,0,.06,0a0.07,0.07,0,0,1-.08.06h-0.08l-0.33,0-0.31,0h-0.1s-0.08,0-.08,0a0.07,0.07,0,0,1,.08-0.06c0.18,0,.18,0,0.2-0.12s0-.25,0-0.57v-0.45Zm0.37,0.25a0.62,0.62,0,0,0,.31.06,0.4,0.4,0,0,0,.2-0.06,0.38,0.38,0,0,0,.18-0.37,0.47,0.47,0,0,0-.51-0.49,0.34,0.34,0,0,0-.18,0v0.82Z" transform="translate(-166.22 -92.08)"/>
  </g>
</svg>
