<svg xmlns="http://www.w3.org/2000/svg" viewBox="0 0 113.09 19.52">
  <defs>
    <style>
      .a {
        fill: #fff;
      }
    </style>
  </defs>
  <title>millcreek</title>
  <g>
    <g>
      <path class="a" d="M212.48,385.12H213a0.48,0.48,0,0,0,.55-0.49,0.46,0.46,0,0,0-.53-0.47h-0.52v1Zm0.52-1.36a0.87,0.87,0,0,1,1,.89,0.89,0.89,0,0,1-1,.87h-0.46v1.34H212v-3.1h1Z" transform="translate(-182.49 -368.18)"/>
      <polygon class="a" points="34.14 15.99 32.83 15.99 32.83 16.92 34.1 16.92 34.1 17.32 32.83 17.32 32.83 18.29 34.18 18.29 34.18 18.68 32.38 18.68 32.38 15.59 34.14 15.59 34.14 15.99"/>
      <path class="a" d="M219.17,386.5a1.18,1.18,0,1,0-1.2-1.18,1.16,1.16,0,0,0,1.2,1.18m0-2.77a1.59,1.59,0,1,1-1.66,1.59,1.58,1.58,0,0,1,1.66-1.59" transform="translate(-182.49 -368.18)"/>
      <path class="a" d="M222.3,385.12h0.5a0.48,0.48,0,0,0,.54-0.49,0.46,0.46,0,0,0-.53-0.47H222.3v1Zm0.52-1.36a0.87,0.87,0,0,1,1,.89,0.89,0.89,0,0,1-1,.87H222.3v1.34h-0.45v-3.1h1Z" transform="translate(-182.49 -368.18)"/>
      <polygon class="a" points="42.65 18.29 44.04 18.29 44.04 18.68 42.2 18.68 42.2 15.59 42.65 15.59 42.65 18.29"/>
      <polygon class="a" points="46.69 15.99 45.37 15.99 45.37 16.92 46.64 16.92 46.64 17.32 45.37 17.32 45.37 18.29 46.73 18.29 46.73 18.68 44.93 18.68 44.93 15.59 46.69 15.59 46.69 15.99"/>
      <rect class="a" x="49.55" y="16.96" width="0.59" height="0.59"/>
      <path class="a" d="M235.81,385.12h0.5a0.48,0.48,0,0,0,.54-0.49,0.46,0.46,0,0,0-.53-0.47h-0.52v1Zm0.52-1.36a0.87,0.87,0,0,1,1,.89,0.89,0.89,0,0,1-1,.87h-0.46v1.34h-0.44v-3.1h1Z" transform="translate(-182.49 -368.18)"/>
      <polygon class="a" points="56.16 18.29 57.56 18.29 57.56 18.68 55.71 18.68 55.71 15.59 56.16 15.59 56.16 18.29"/>
      <path class="a" d="M241.61,385.55h1l-0.5-1.12Zm2,1.31h-0.45l-0.41-.91h-1.32l-0.39.91h-0.45l1.33-3.12h0.31Z" transform="translate(-182.49 -368.18)"/>
      <path class="a" d="M246.92,384.46a2,2,0,0,0-1.07-.32,1.18,1.18,0,0,0-1.23,1.19,1.16,1.16,0,0,0,1.25,1.18,2,2,0,0,0,1.08-.35v0.49a2.27,2.27,0,0,1-1.12.27,1.58,1.58,0,0,1-1.67-1.54,1.61,1.61,0,0,1,1.7-1.63,2.69,2.69,0,0,1,1.06.25v0.48Z" transform="translate(-182.49 -368.18)"/>
      <polygon class="a" points="67.26 15.99 65.95 15.99 65.95 16.92 67.21 16.92 67.21 17.32 65.95 17.32 65.95 18.29 67.3 18.29 67.3 18.68 65.5 18.68 65.5 15.59 67.26 15.59 67.26 15.99"/>
      <path class="a" d="M252.23,384.45a1,1,0,0,0-.73-0.32,0.42,0.42,0,0,0-.49.37c0,0.6,1.34.59,1.34,1.57a0.83,0.83,0,0,1-.87.84,1.37,1.37,0,0,1-.87-0.29v-0.56a1,1,0,0,0,.82.45,0.44,0.44,0,0,0,.5-0.39c0-.64-1.34-0.71-1.34-1.56a0.83,0.83,0,0,1,.94-0.83,1.23,1.23,0,0,1,.69.22v0.5Z" transform="translate(-182.49 -368.18)"/>
      <rect class="a" x="72.34" y="16.96" width="0.59" height="0.59"/>
      <path class="a" d="M258.63,385.12h0.29a0.5,0.5,0,0,0,.61-0.5,0.49,0.49,0,0,0-.61-0.47h-0.29v1Zm0.34-1.35a0.88,0.88,0,0,1,1,.87,0.78,0.78,0,0,1-.52.76,2.53,2.53,0,0,1,.69.86c0.13,0.21.21,0.32,0.42,0.61h-0.53l-0.41-.64a1,1,0,0,0-.82-0.71h-0.19v1.34h-0.44v-3.1H259Z" transform="translate(-182.49 -368.18)"/>
      <polygon class="a" points="80.69 15.99 79.38 15.99 79.38 16.92 80.65 16.92 80.65 17.32 79.38 17.32 79.38 18.29 80.73 18.29 80.73 18.68 78.94 18.68 78.94 15.59 80.69 15.59 80.69 15.99"/>
      <polygon class="a" points="82.14 18.29 83.54 18.29 83.54 18.68 81.7 18.68 81.7 15.59 82.14 15.59 82.14 18.29"/>
      <path class="a" d="M267.59,385.55h1l-0.5-1.12Zm2,1.31h-0.45l-0.41-.91h-1.32l-0.39.91h-0.45l1.33-3.12h0.31Z" transform="translate(-182.49 -368.18)"/>
      <polygon class="a" points="89.83 15.99 88.75 15.99 88.75 18.68 88.31 18.68 88.31 15.99 87.24 15.99 87.24 15.59 89.83 15.59 89.83 15.99"/>
      <rect class="a" x="90.75" y="15.59" width="0.44" height="3.1"/>
      <path class="a" d="M276.39,386.5a1.18,1.18,0,1,0-1.2-1.18,1.16,1.16,0,0,0,1.2,1.18m0-2.77a1.59,1.59,0,1,1-1.66,1.59,1.58,1.58,0,0,1,1.66-1.59" transform="translate(-182.49 -368.18)"/>
      <polygon class="a" points="99.48 18.68 99.1 18.68 97.03 16.3 97.03 18.68 96.61 18.68 96.61 15.59 96.96 15.59 99.06 17.99 99.06 15.59 99.48 15.59 99.48 18.68"/>
      <path class="a" d="M284.62,384.45a1,1,0,0,0-.73-0.32,0.42,0.42,0,0,0-.49.37c0,0.6,1.34.59,1.34,1.57a0.83,0.83,0,0,1-.87.84,1.37,1.37,0,0,1-.87-0.29v-0.56a1,1,0,0,0,.82.45,0.44,0.44,0,0,0,.5-0.39c0-.64-1.34-0.71-1.34-1.56a0.83,0.83,0,0,1,.94-0.83,1.23,1.23,0,0,1,.69.22v0.5Z" transform="translate(-182.49 -368.18)"/>
      <polygon class="a" points="105.86 18.68 105.42 18.68 105.42 17.34 103.68 17.34 103.68 18.68 103.24 18.68 103.24 15.59 103.68 15.59 103.68 16.94 105.42 16.94 105.42 15.59 105.86 15.59 105.86 18.68"/>
      <rect class="a" x="107.05" y="15.59" width="0.44" height="3.1"/>
      <path class="a" d="M291.59,385.12h0.5a0.48,0.48,0,0,0,.55-0.49,0.46,0.46,0,0,0-.53-0.47h-0.52v1Zm0.52-1.36a0.87,0.87,0,0,1,1,.89,0.89,0.89,0,0,1-1,.87h-0.46v1.34h-0.44v-3.1h1Z" transform="translate(-182.49 -368.18)"/>
      <path class="a" d="M295.45,384.45a1,1,0,0,0-.73-0.32,0.42,0.42,0,0,0-.49.37c0,0.6,1.34.59,1.34,1.57a0.83,0.83,0,0,1-.87.84,1.36,1.36,0,0,1-.87-0.29v-0.56a1,1,0,0,0,.82.45,0.44,0.44,0,0,0,.5-0.39c0-.64-1.34-0.71-1.34-1.56a0.83,0.83,0,0,1,.94-0.83,1.24,1.24,0,0,1,.69.22v0.5Z" transform="translate(-182.49 -368.18)"/>
    </g>
    <path class="a" d="M197.19,368.18l-4.9,3.75v3.72l-4.9-3.75-4.9,3.75v3.73l4.9-3.75,4.9,3.75-4.9,3.75v4.57c2-.28,4.56-1.48,7.63-3.39a21,21,0,0,1,2.16-1.19l-4.88-3.74v-3.72l4.9-3.75,4.9,3.75v-3.73Z" transform="translate(-182.49 -368.18)"/>
    <g>
      <path class="a" d="M200.86,382a12.68,12.68,0,0,1,6.13.52v-3.1l-4.9-3.75-4.9,3.75v3.7a13.14,13.14,0,0,1,3.67-1.13" transform="translate(-182.49 -368.18)"/>
      <path class="a" d="M205.75,383.73c-2.54.08-3.85,0.69-7,2.74l-0.64.4H207v-3a6.47,6.47,0,0,0-1.24-.1" transform="translate(-182.49 -368.18)"/>
    </g>
    <g>
      <polygon class="a" points="92.84 11.97 88.67 11.97 88.67 4.84 92.75 4.84 92.75 5.82 89.75 5.82 89.75 7.88 92.65 7.88 92.65 8.86 89.75 8.86 89.75 10.99 92.84 10.99 92.84 11.97"/>
      <polygon class="a" points="101.95 11.97 97.78 11.97 97.78 4.84 101.86 4.84 101.86 5.82 98.86 5.82 98.86 7.88 101.75 7.88 101.75 8.86 98.86 8.86 98.86 10.99 101.95 10.99 101.95 11.97"/>
      <polygon class="a" points="113.01 11.97 111.51 11.97 111.5 11.96 107.96 8.53 107.96 11.97 106.88 11.97 106.88 4.84 107.96 4.84 107.96 8.02 110.89 4.84 112.25 4.84 109.14 8.22 113.01 11.97"/>
      <path class="a" d="M253.41,380.25a3.63,3.63,0,0,1-3.85-3.56,3.71,3.71,0,0,1,3.91-3.77,6.13,6.13,0,0,1,2.44.58h0v1.17l-0.05,0a4.63,4.63,0,0,0-2.42-.73,2.67,2.67,0,0,0-2.79,2.67,2.63,2.63,0,0,0,2.83,2.65,4.61,4.61,0,0,0,2.45-.79l0.05,0v1.19h0a5.21,5.21,0,0,1-2.58.63" transform="translate(-182.49 -368.18)"/>
      <polygon class="a" points="36.21 11.97 35.13 11.97 35.13 6.5 32.98 9.21 32.78 9.21 32.77 9.19 30.63 6.5 30.63 11.97 29.55 11.97 29.55 4.84 30.55 4.84 30.56 4.85 32.88 7.72 35.22 4.84 36.21 4.84 36.21 11.97"/>
      <rect class="a" x="41.59" y="4.84" width="1.08" height="7.14"/>
      <polygon class="a" points="52.31 11.97 48.04 11.97 48.04 4.84 49.12 4.84 49.12 10.99 52.31 10.99 52.31 11.97"/>
      <polygon class="a" points="61.19 11.97 56.91 11.97 56.91 4.84 57.99 4.84 57.99 10.99 61.19 10.99 61.19 11.97"/>
      <path class="a" d="M266.49,380c-0.41-.57-0.59-0.81-0.86-1.26l0,0a5.83,5.83,0,0,0-1.51-1.9,1.79,1.79,0,0,0,1.15-1.74c0-1.24-.9-2-2.36-2h-1.82v7.14h1.08v-3.07h0.39c0.48,0,.89.12,1.85,1.6l0.93,1.45v0h1.3Zm-3.72-3.86h-0.62V374h0.62c0.9,0,1.34.34,1.36,1a1,1,0,0,1-.27.77A1.48,1.48,0,0,1,262.77,376.1Z" transform="translate(-182.49 -368.18)"/>
    </g>
  </g>
</svg>
