<svg xmlns="http://www.w3.org/2000/svg" viewBox="0 0 123.15 18.9">
  <defs>
    <style>
      .a {
        fill: #fff;
      }
    </style>
  </defs>
  <title>nailatter</title>
  <g>
    <polygon class="a" points="3.75 10.4 3.75 18.66 0 18.66 0 4.47 4.84 4.47 9.27 11.01 9.27 4.47 13.35 4.47 13.35 12.17 9.13 17.82 3.75 10.4"/>
    <rect class="a" x="25.21" y="4.47" width="3.75" height="14.19"/>
    <polygon class="a" points="19.63 18.66 23.95 18.66 23.95 0 9.98 18.66 14.41 18.66 20.27 10.85 20.27 15.12 17.27 15.14 19.63 18.66"/>
    <g>
      <path class="a" d="M326.55,285.23h2.62v9.71H335v2.2h-8.43V285.23Z" transform="translate(-296.17 -278.48)"/>
      <path class="a" d="M335.76,291.17c0.13-2.22,2.12-2.89,4.06-2.89,1.72,0,3.79.38,3.79,2.45v4.49a4.42,4.42,0,0,0,.3,1.92h-2.4a3.52,3.52,0,0,1-.17-0.83,4,4,0,0,1-2.9,1.07c-1.64,0-2.94-.82-2.94-2.59,0-2,1.47-2.42,2.94-2.62s2.8-.17,2.8-1.13-0.7-1.17-1.54-1.17a1.35,1.35,0,0,0-1.57,1.3h-2.37Zm5.47,1.75a4.72,4.72,0,0,1-2,.5c-0.73.15-1.4,0.4-1.4,1.27s0.68,1.1,1.45,1.1a1.76,1.76,0,0,0,1.92-2v-0.88Z" transform="translate(-296.17 -278.48)"/>
      <path class="a" d="M347.44,288.52h1.74v1.59h-1.74v4.27c0,0.8.2,1,1,1a3.65,3.65,0,0,0,.73-0.07v1.85a9.09,9.09,0,0,1-1.39.08c-1.45,0-2.72-.33-2.72-2.05v-5.09h-1.44v-1.59h1.44v-2.59h2.37v2.59Z" transform="translate(-296.17 -278.48)"/>
      <path class="a" d="M352.65,288.52h1.74v1.59h-1.74v4.27c0,0.8.2,1,1,1a3.65,3.65,0,0,0,.73-0.07v1.85a9.09,9.09,0,0,1-1.39.08c-1.45,0-2.72-.33-2.72-2.05v-5.09h-1.44v-1.59h1.44v-2.59h2.37v2.59Z" transform="translate(-296.17 -278.48)"/>
      <path class="a" d="M356.8,293.41c0.07,1.5.8,2.19,2.12,2.19a2,2,0,0,0,1.87-1.12h2.09a3.88,3.88,0,0,1-4,2.9,4.21,4.21,0,0,1-4.41-4.54,4.33,4.33,0,0,1,4.41-4.56c2.94,0,4.36,2.47,4.19,5.12H356.8Zm3.85-1.5c-0.22-1.2-.73-1.84-1.89-1.84a1.87,1.87,0,0,0-2,1.84h3.85Z" transform="translate(-296.17 -278.48)"/>
      <path class="a" d="M363.43,288.52h2.25v1.6h0a3.05,3.05,0,0,1,2.75-1.84,1.76,1.76,0,0,1,.52.08v2.2a4.33,4.33,0,0,0-.85-0.08c-1.74,0-2.34,1.25-2.34,2.77v3.89h-2.37v-8.63Z" transform="translate(-296.17 -278.48)"/>
      <path class="a" d="M377.73,296a4.54,4.54,0,0,1-3.35,1.42,3.54,3.54,0,0,1-3.85-3.57,4,4,0,0,1,2.67-3.45,3.91,3.91,0,0,1-1.13-2.54,2.91,2.91,0,0,1,3.1-2.72c1.8,0,3.27,1,3.27,2.85a3.4,3.4,0,0,1-2.12,3l1.54,1.89a4.24,4.24,0,0,0,.43-1.42h2.05a5.66,5.66,0,0,1-1.15,2.94l2.42,2.82h-2.9Zm-3.29-4.07a2.36,2.36,0,0,0-1.67,2,1.66,1.66,0,0,0,1.7,1.57,2.61,2.61,0,0,0,2-1.05Zm0.83-5.21a1.05,1.05,0,0,0-1.07,1.05,2.84,2.84,0,0,0,.93,1.79,2,2,0,0,0,1.22-1.7A1.13,1.13,0,0,0,375.28,286.68Z" transform="translate(-296.17 -278.48)"/>
      <path class="a" d="M383.37,285.23H389c2.27,0,3.8.73,3.8,3a2.61,2.61,0,0,1-1.62,2.49,2.91,2.91,0,0,1,2.19,3c0,2.42-2.05,3.45-4.21,3.45h-5.77V285.23Zm2.62,4.82h2.65a1.38,1.38,0,0,0,1.6-1.42c0-1.13-.87-1.37-1.8-1.37H386v2.79Zm0,5.06h2.8c1,0,1.94-.33,1.94-1.57a1.61,1.61,0,0,0-1.89-1.7H386v3.27Z" transform="translate(-296.17 -278.48)"/>
      <path class="a" d="M393.93,285.23h2.37v11.91h-2.37V285.23Z" transform="translate(-296.17 -278.48)"/>
      <path class="a" d="M405.26,297.15H403v-1.2H403a3.08,3.08,0,0,1-2.64,1.44c-2.52,0-3.15-1.42-3.15-3.55v-5.31h2.37v4.87c0,1.42.42,2.12,1.52,2.12,1.29,0,1.84-.72,1.84-2.47v-4.52h2.37v8.63Z" transform="translate(-296.17 -278.48)"/>
      <path class="a" d="M406.13,288.52h2.24v1.17h0a3.12,3.12,0,0,1,2.64-1.4,2.55,2.55,0,0,1,2.52,1.44,3.13,3.13,0,0,1,2.6-1.44c1.84,0,3.15.85,3.15,3.09v5.77h-2.37v-4.89c0-1.15-.1-2.1-1.45-2.1s-1.59,1.1-1.59,2.19v4.81h-2.37v-4.84c0-1,.07-2.15-1.44-2.15a1.7,1.7,0,0,0-1.6,2v5h-2.37v-8.63Z" transform="translate(-296.17 -278.48)"/>
    </g>
  </g>
</svg>
