<svg xmlns="http://www.w3.org/2000/svg" viewBox="0 0 112.63 23.63">
  <defs>
    <style>
      .a {
        fill: #fff;
      }
    </style>
  </defs>
  <title>cushman</title>
  <g>
    <g>
      <polygon class="a" points="16.58 0 16.58 23.63 23.53 23.63 23.53 5.25 16.58 0"/>
      <g>
        <polygon class="a" points="13.82 2.09 13.82 23.63 15.24 23.63 15.24 1.01 13.82 2.09"/>
        <polygon class="a" points="11.05 23.63 12.48 23.63 12.48 3.1 11.05 4.18 11.05 23.63"/>
        <polygon class="a" points="8.29 23.63 9.71 23.63 9.71 5.19 8.29 6.27 8.29 23.63"/>
      </g>
      <polygon class="a" points="24.87 10.59 24.87 23.63 31.82 23.63 31.82 15.85 24.87 10.59"/>
      <g>
        <polygon class="a" points="5.53 12.65 5.53 23.63 6.95 23.63 6.95 11.58 5.53 12.65"/>
        <polygon class="a" points="2.76 23.63 4.18 23.63 4.18 13.67 2.76 14.74 2.76 23.63"/>
        <polygon class="a" points="0 23.63 1.42 23.63 1.42 15.76 0 16.83 0 23.63"/>
      </g>
    </g>
    <g>
      <path class="a" d="M517.91,107.31c-2.09,0-3.37-1.17-3.37-3.46V99.4h1.71v4.4a1.64,1.64,0,0,0,1.68,1.92,1.61,1.61,0,0,0,1.68-1.87V99.4h1.71v4.39C521.32,106.15,520,107.31,517.91,107.31Z" transform="translate(-468.13 -94.15)"/>
      <path class="a" d="M526.47,107.3a5,5,0,0,1-3.3-1.25l1-1.21a3.57,3.57,0,0,0,2.32.95c0.7,0,1.12-.28,1.12-0.73v0c0-.43-0.27-0.66-1.57-1-1.57-.4-2.58-0.87-2.58-2.41v0a2.43,2.43,0,0,1,2.72-2.35,4.51,4.51,0,0,1,2.89,1l-0.89,1.29a3.65,3.65,0,0,0-2-.77,0.82,0.82,0,0,0-1,.68v0c0,0.51.33,0.71,1.68,1.05,1.58,0.41,2.47,1,2.47,2.34v0C529.33,106.43,528.15,107.3,526.47,107.3Z" transform="translate(-468.13 -94.15)"/>
      <path class="a" d="M536.52,107.19v-3.12h-3.16v3.12h-1.71V99.4h1.71v3.08h3.16V99.4h1.71v7.78h-1.71Z" transform="translate(-468.13 -94.15)"/>
      <path class="a" d="M566.23,107.19l-3.67-4.87v4.87h-1.69V99.4h1.58l3.65,5v-5h1.69v7.78h-1.56Z" transform="translate(-468.13 -94.15)"/>
      <path class="a" d="M532.74,117.78l-2.41-3.31-0.9.93v2.38h-1.71V110h1.71v3.4l3.16-3.4h2.07l-3.17,3.3,3.31,4.48h-2.06Z" transform="translate(-468.13 -94.15)"/>
      <path class="a" d="M536.72,117.78V110h5.82v1.52h-4.12v1.58H542v1.52h-3.62v1.63h4.17v1.52h-5.88Z" transform="translate(-468.13 -94.15)"/>
      <path class="a" d="M553.27,117.78V110H555v7.78h-1.71Z" transform="translate(-468.13 -94.15)"/>
      <path class="a" d="M557.51,117.77V110h5.82v1.52h-4.12v1.58h3.62v1.52h-3.62v1.63h4.17v1.52h-5.88Z" transform="translate(-468.13 -94.15)"/>
      <path class="a" d="M565.94,117.78V110h1.71v6.23h3.88v1.56h-5.59Z" transform="translate(-468.13 -94.15)"/>
      <path class="a" d="M576.63,117.78h-3V110h3a3.88,3.88,0,0,1,4.14,3.87v0A3.9,3.9,0,0,1,576.63,117.78Zm2.35-3.89a2.24,2.24,0,0,0-2.35-2.35H575.3v4.69h1.32a2.22,2.22,0,0,0,2.35-2.32v0Z" transform="translate(-468.13 -94.15)"/>
      <path class="a" d="M509.45,105.73a2.34,2.34,0,0,1-2.4-2.4v0a2.33,2.33,0,0,1,2.29-2.46,2.44,2.44,0,0,1,1.91.86l1.09-1.3a4.15,4.15,0,0,0-3-1.14,4,4,0,0,0-4.08,4.1v0a4,4,0,0,0,4.19,3.93,4.13,4.13,0,0,0,3.06-1.42l-1.15-1.13A2.41,2.41,0,0,1,509.45,105.73Z" transform="translate(-468.13 -94.15)"/>
      <polygon class="a" points="78.81 5.25 80.64 5.25 80.64 13.03 79.01 13.03 79.01 7.94 76.8 11.28 76.75 11.28 74.55 7.94 74.55 13.03 72.92 13.03 72.92 5.25 74.75 5.25 76.78 8.51 78.81 5.25"/>
      <path class="a" d="M554,99.4l-3.31,7.78h1.75l0.71-1.75h3.29l0.71,1.75H559l-3.31-7.78H554Zm-0.24,4.53,1-2.52,1,2.52h-2.07Z" transform="translate(-468.13 -94.15)"/>
      <path class="a" d="M520.85,110l-3.31,7.78h1.75L520,116h3.29l0.71,1.75h1.79L522.48,110h-1.63Zm-0.24,4.53,1-2.52,1,2.52h-2.07Z" transform="translate(-468.13 -94.15)"/>
      <path class="a" d="M546.72,111.55v1.66h3.66v1.56h-3.66v3H545V110h5.93v1.56h-4.22Z" transform="translate(-468.13 -94.15)"/>
      <polygon class="a" points="47.57 15.85 45.77 21.27 43.97 15.85 42.31 15.85 40.51 21.27 38.7 15.85 36.87 15.85 39.68 23.63 41.38 23.63 43.14 18.29 44.9 23.63 46.6 23.63 49.41 15.85 47.57 15.85"/>
      <path class="a" d="M578.72,105.27l0.9-1-1.08-1.16-0.8.94-1-1.15a2,2,0,0,0,1-1.79,1.94,1.94,0,0,0-2-1.85,1.87,1.87,0,0,0-1.9,2,2.46,2.46,0,0,0,.7,1.42,2.52,2.52,0,0,0-1.56,2.28,2.56,2.56,0,0,0,2.56,2.41,3.06,3.06,0,0,0,2.13-1l0.7,0.85h2Zm-1.92-.07a1.65,1.65,0,0,1-1.21.73,1.09,1.09,0,0,1-1.07-1,1.46,1.46,0,0,1,1-1.21Zm-1-3.24a1.46,1.46,0,0,1-.5-0.72,0.53,0.53,0,0,1,.51-0.62,0.54,0.54,0,0,1,.6.57A1,1,0,0,1,575.83,102Z" transform="translate(-468.13 -94.15)"/>
    </g>
  </g>
</svg>
