<svg xmlns="http://www.w3.org/2000/svg" viewBox="0 0 99.37 26.26">
  <defs>
    <style>
      .a {
        fill: #fff;
      }
    </style>
  </defs>
  <title>bag</title>
  <polygon class="a" points="0 0 0 10.32 2.23 8.09 2.23 2.23 8.09 2.23 10.31 0 0 0"/>
  <g>
    <path class="a" d="M102.45,373.06c0-.84,0-1,0-1.17a0.27,0.27,0,0,0-.25-0.3l-0.23,0c-0.06,0-.1,0-0.1-0.06s0-.05.13-0.05h1.64c1,0,1.22.53,1.22,0.83a1.22,1.22,0,0,1-.65,1,1.37,1.37,0,0,1,1.06,1.2,1.31,1.31,0,0,1-1.52,1.21l-0.46,0h-1.21c-0.07,0-.11,0-0.11-0.06s0-.06.09-0.06l0.2,0a0.27,0.27,0,0,0,.17-0.29c0-.23,0-0.67,0-1.18v-1Zm0.74,0.09a0,0,0,0,0,0,.06l0.27,0a0.75,0.75,0,0,0,.45-0.1,0.72,0.72,0,0,0,.26-0.59,0.77,0.77,0,0,0-.72-0.83,1.39,1.39,0,0,0-.25,0s-0.05,0-.05.09v1.34Zm0,1.63c0,0.37,0,.48.2,0.55a1.06,1.06,0,0,0,.41.06,0.69,0.69,0,0,0,.7-0.78,1.22,1.22,0,0,0-.54-1,0.82,0.82,0,0,0-.5-0.14h-0.25s0,0,0,0v1.26Z" transform="translate(-35.07 -363.21)"/>
    <path class="a" d="M106.86,373.06c0-.84,0-1,0-1.17a0.27,0.27,0,0,0-.25-0.3l-0.22,0c-0.07,0-.1,0-0.1-0.06s0-.05.12-0.05H108c0.09,0,.12,0,0.12.05s0,0.06-.09.06l-0.17,0a0.25,0.25,0,0,0-.21.3c0,0.18,0,.33,0,1.17v0.78a1.49,1.49,0,0,0,.44,1.34,1.11,1.11,0,0,0,.72.22,1.09,1.09,0,0,0,.77-0.29,1.78,1.78,0,0,0,.33-1.35v-0.7c0-.84,0-1,0-1.17a0.27,0.27,0,0,0-.24-0.3l-0.21,0c-0.07,0-.1,0-0.1-0.06s0-.05.12-0.05h1.36c0.08,0,.12,0,0.12.05s0,0.06-.1.06l-0.17,0c-0.16,0-.2.1-0.21,0.3s0,0.33,0,1.17v0.59a2,2,0,0,1-.55,1.67,1.78,1.78,0,0,1-1.21.4,2,2,0,0,1-1.31-.38,1.78,1.78,0,0,1-.52-1.47v-0.81Z" transform="translate(-35.07 -363.21)"/>
    <path class="a" d="M112.42,373.06c0-.84,0-1,0-1.17a0.27,0.27,0,0,0-.2-0.29,0.76,0.76,0,0,0-.21,0c-0.06,0-.09,0-0.09-0.07s0,0,.14,0h1.51c0.07,0,.12,0,0.12,0s0,0.07-.09.07l-0.17,0a0.25,0.25,0,0,0-.22.3c0,0.18,0,.33,0,1.17v1c0,0.53,0,1,0,1.21a0.24,0.24,0,0,0,.23.26l0.29,0a0.07,0.07,0,0,1,.09.06s0,0.06-.11.06l-0.93,0-0.75,0c-0.07,0-.11,0-0.11-0.06s0-.06.09-0.06l0.2,0a0.24,0.24,0,0,0,.17-0.27c0-.23,0-0.67,0-1.21v-1Z" transform="translate(-35.07 -363.21)"/>
    <path class="a" d="M116.34,374a2.15,2.15,0,0,0,.12,1.17,1.34,1.34,0,0,0,.76.12,0.89,0.89,0,0,0,.67-0.16,0.67,0.67,0,0,0,.14-0.33c0-.05,0-0.08.07-0.08s0.05,0.06.05,0.12a4.23,4.23,0,0,1-.09.64c0,0.12-.07.15-0.36,0.15l-1,0h-1.49c-0.07,0-.11,0-0.11-0.06s0-.06.09-0.06l0.2,0a0.27,0.27,0,0,0,.17-0.29c0-.24,0-0.67,0-1.18v-1c0-.84,0-1,0-1.17a0.27,0.27,0,0,0-.25-0.3l-0.19,0c-0.06,0-.1,0-0.1-0.06s0-.05.12-0.05h1.62c0.09,0,.12,0,0.12.05s0,0.06-.11.06l-0.22,0a0.25,0.25,0,0,0-.22.3c0,0.18,0,.33,0,1.17v1Z" transform="translate(-35.07 -363.21)"/>
    <path class="a" d="M119.65,373.06c0-.84,0-1,0-1.17a0.27,0.27,0,0,0-.25-0.3l-0.23,0c-0.06,0-.1,0-0.1-0.06s0-.05.13-0.05H121a3.13,3.13,0,0,1,2.31.63,1.94,1.94,0,0,1,.54,1.41,2.15,2.15,0,0,1-.63,1.54,2.68,2.68,0,0,1-1.92.65l-0.68,0-0.58,0h-0.72c-0.07,0-.11,0-0.11-0.06s0-.06.09-0.06l0.2,0a0.27,0.27,0,0,0,.17-0.29c0-.24,0-0.67,0-1.18v-1Zm0.77,0.61c0,0.59,0,1,0,1.12a1,1,0,0,0,.07.39,0.93,0.93,0,0,0,.75.22,1.81,1.81,0,0,0,1.25-.38,1.69,1.69,0,0,0,.49-1.38,1.8,1.8,0,0,0-.53-1.38,2.31,2.31,0,0,0-1.6-.53,1.22,1.22,0,0,0-.35,0,0.1,0.1,0,0,0-.07.11c0,0.19,0,.65,0,1.08v0.7Z" transform="translate(-35.07 -363.21)"/>
    <path class="a" d="M125.49,373.06c0-.84,0-1,0-1.17a0.27,0.27,0,0,0-.25-0.3l-0.23,0c-0.06,0-.1,0-0.1-0.06s0-.05.13-0.05h2.39l0.24,0,0.09,0a0,0,0,0,1,0,.05,2.42,2.42,0,0,0,0,.36c0,0.06,0,.3,0,0.37a0.1,0.1,0,0,1-.07.09s0,0,0-.07a0.53,0.53,0,0,0,0-.2,0.35,0.35,0,0,0-.38-0.2c-0.1,0-.78,0-0.9,0a0,0,0,0,0,0,.05v1.37s0,0.06,0,.06,0.87,0,1,0a0.4,0.4,0,0,0,.27-0.08,0.23,0.23,0,0,1,.09-0.07,0.05,0.05,0,0,1,0,.06s0,0.12,0,.4c0,0.11,0,.33,0,0.37s0,0.12-.06.12a0,0,0,0,1-.05,0c0-.06,0-0.13,0-0.2a0.3,0.3,0,0,0-.32-0.22l-0.9,0s0,0,0,.06v0.44c0,0.19,0,.66,0,0.82,0,0.38.19,0.46,0.78,0.46a1.56,1.56,0,0,0,.54-0.07,0.47,0.47,0,0,0,.25-0.41c0-.06,0-0.09.07-0.09s0.05,0.07.05,0.13a3.73,3.73,0,0,1-.08.61c0,0.14-.09.14-0.31,0.14l-1.06,0h-1.39c-0.07,0-.11,0-0.11-0.06s0-.06.09-0.06l0.2,0a0.28,0.28,0,0,0,.17-0.29c0-.23,0-0.67,0-1.18v-1Z" transform="translate(-35.07 -363.21)"/>
    <path class="a" d="M129.61,373.06c0-.84,0-1,0-1.17a0.27,0.27,0,0,0-.25-0.3l-0.23,0c-0.06,0-.1,0-0.1-0.06s0-.05.13-0.05h1.68a2,2,0,0,1,1.09.23,1,1,0,0,1,.4.76,1.62,1.62,0,0,1-.79,1.22c0.51,0.63.91,1.13,1.26,1.47a1.08,1.08,0,0,0,.61.37h0.14a0.07,0.07,0,0,1,.07.06s0,0.06-.11.06H133a1.24,1.24,0,0,1-.63-0.11,2.59,2.59,0,0,1-.78-0.81c-0.23-.3-0.47-0.67-0.54-0.76a0.13,0.13,0,0,0-.1,0h-0.52a0,0,0,0,0,0,0V374c0,0.51,0,.94,0,1.18a0.26,0.26,0,0,0,.22.29l0.28,0a0.07,0.07,0,0,1,.07.06s0,0.06-.12.06l-0.89,0-0.7,0c-0.07,0-.11,0-0.11-0.06s0-.06.09-0.06l0.2,0a0.27,0.27,0,0,0,.17-0.29c0-.23,0-0.67,0-1.18v-1Zm0.73,0.43a0.09,0.09,0,0,0,.05.1,1.55,1.55,0,0,0,.44.05,0.58,0.58,0,0,0,.4-0.09,0.94,0.94,0,0,0,.37-0.82,0.87,0.87,0,0,0-.87-1l-0.34,0a0.07,0.07,0,0,0-.05.08v1.65Z" transform="translate(-35.07 -363.21)"/>
    <path class="a" d="M102.7,381.11a0,0,0,0,0-.05,0l-0.31.74a1,1,0,0,0-.08.34c0,0.1.05,0.16,0.23,0.16h0.09c0.07,0,.08,0,0.08.06s0,0.06-.09.06l-0.64,0-0.66,0c-0.07,0-.11,0-0.11-0.06a0.06,0.06,0,0,1,.07-0.06h0.17a0.62,0.62,0,0,0,.48-0.49l1.5-3.49a0.28,0.28,0,0,1,.17-0.22c0.09,0,.11.05,0.17,0.18,0.14,0.31,1.09,2.57,1.46,3.41a0.8,0.8,0,0,0,.49.59l0.22,0c0.05,0,.08,0,0.08.06s0,0.06-.25.06h-1.1c-0.11,0-.17,0-0.17,0s0-.05.07-0.06a0.09,0.09,0,0,0,.05-0.12l-0.44-1.11a0.05,0.05,0,0,0-.06,0H102.7Zm1.23-.31s0,0,0,0l-0.54-1.41a0.08,0.08,0,0,0,0-.05,0.06,0.06,0,0,0,0,.05l-0.55,1.4s0,0,0,0h1.11Z" transform="translate(-35.07 -363.21)"/>
    <path class="a" d="M107.06,379.92c0-.84,0-1,0-1.17a0.27,0.27,0,0,0-.25-0.3l-0.23,0c-0.06,0-.1,0-0.1-0.06s0-.05.13-0.05h1.76a3.13,3.13,0,0,1,2.31.63,1.94,1.94,0,0,1,.54,1.41,2.15,2.15,0,0,1-.63,1.54,2.68,2.68,0,0,1-1.92.65l-0.68,0-0.58,0h-0.72c-0.07,0-.11,0-0.11-0.06s0-.06.09-0.06l0.2,0a0.27,0.27,0,0,0,.17-0.29c0-.24,0-0.67,0-1.18v-1Zm0.77,0.61c0,0.59,0,1,0,1.12a1,1,0,0,0,.07.39,0.93,0.93,0,0,0,.75.22,1.81,1.81,0,0,0,1.25-.38,1.69,1.69,0,0,0,.49-1.38,1.8,1.8,0,0,0-.53-1.38,2.31,2.31,0,0,0-1.6-.53,1.22,1.22,0,0,0-.35,0,0.1,0.1,0,0,0-.07.11c0,0.19,0,.65,0,1.08v0.7Z" transform="translate(-35.07 -363.21)"/>
    <path class="a" d="M112.42,378.86a0.53,0.53,0,0,0-.42-0.41,1,1,0,0,0-.22,0,0.05,0.05,0,0,1-.07-0.06s0.06-.05.14-0.05h1.56c0.07,0,.14,0,0.14.05a0.07,0.07,0,0,1-.09.06,0.42,0.42,0,0,0-.22,0,0.12,0.12,0,0,0-.06.11,1.59,1.59,0,0,0,.13.42l1,2.48h0c0.25-.57,1-2.36,1.12-2.73a0.74,0.74,0,0,0,.05-0.2,0.09,0.09,0,0,0-.08-0.1,0.87,0.87,0,0,0-.23,0,0.08,0.08,0,0,1-.1-0.06s0.05-.05.16-0.05h1.15c0.07,0,.12,0,0.12.05s0,0.06-.09.06a0.46,0.46,0,0,0-.28.06,1.06,1.06,0,0,0-.3.49c-0.23.52-.38,0.82-0.69,1.5s-0.63,1.41-.76,1.69a0.53,0.53,0,0,1-.27.4c-0.08,0-.12-0.07-0.23-0.33Z" transform="translate(-35.07 -363.21)"/>
    <path class="a" d="M117.61,379.92c0-.84,0-1,0-1.17a0.27,0.27,0,0,0-.2-0.29,0.73,0.73,0,0,0-.21,0c-0.06,0-.09,0-0.09-0.06s0,0,.14,0h1.51c0.07,0,.12,0,0.12,0s0,0.06-.09.06l-0.17,0a0.25,0.25,0,0,0-.22.3c0,0.18,0,.33,0,1.17v1c0,0.53,0,1,0,1.21a0.24,0.24,0,0,0,.23.26l0.29,0a0.08,0.08,0,0,1,.09.06s0,0.06-.11.06l-0.93,0-0.75,0c-0.07,0-.11,0-0.11-0.06s0-.06.09-0.06l0.2,0a0.24,0.24,0,0,0,.17-0.27c0-.23,0-0.67,0-1.21v-1Z" transform="translate(-35.07 -363.21)"/>
    <path class="a" d="M120.44,382.44a0.15,0.15,0,0,1-.11-0.19c0-.3,0-0.65,0-0.74s0-.14.07-0.14,0.06,0.05.06,0.09a1,1,0,0,0,.05.29,0.89,0.89,0,0,0,.91.55,0.72,0.72,0,0,0,.79-0.7,0.85,0.85,0,0,0-.57-0.78l-0.33-.2a1.4,1.4,0,0,1-.9-1.26,1.27,1.27,0,0,1,1.45-1.11,3.37,3.37,0,0,1,.81.09,0.08,0.08,0,0,1,.08.07c0,0.07,0,.23,0,0.66,0,0.12,0,.18-0.07.18s-0.06,0-.06-0.1a0.63,0.63,0,0,0-.15-0.37,0.77,0.77,0,0,0-.64-0.26,0.68,0.68,0,0,0-.78.59,0.82,0.82,0,0,0,.61.73l0.24,0.13a1.5,1.5,0,0,1,1,1.34,1.18,1.18,0,0,1-.57,1,1.67,1.67,0,0,1-1,.23,2.43,2.43,0,0,1-.93-0.14" transform="translate(-35.07 -363.21)"/>
    <path class="a" d="M124.13,380.41a2.19,2.19,0,0,1,2.4-2.17,2.07,2.07,0,0,1,2.35,2.07,2.24,2.24,0,0,1-2.41,2.27,2.16,2.16,0,0,1-2.35-2.17m3.9,0.1a1.76,1.76,0,0,0-1.66-2c-0.64,0-1.39.34-1.39,1.71a1.82,1.82,0,0,0,1.73,2c0.4,0,1.32-.19,1.32-1.77" transform="translate(-35.07 -363.21)"/>
    <path class="a" d="M130.44,379.92c0-.84,0-1,0-1.17a0.27,0.27,0,0,0-.25-0.3l-0.23,0c-0.06,0-.1,0-0.1-0.06s0-.05.13-0.05h1.68a2,2,0,0,1,1.09.24,1,1,0,0,1,.4.76,1.63,1.63,0,0,1-.79,1.22c0.51,0.63.91,1.13,1.26,1.47a1.08,1.08,0,0,0,.61.37h0.14a0.07,0.07,0,0,1,.07.06s0,0.06-.11.06h-0.55a1.24,1.24,0,0,1-.63-0.11,2.6,2.6,0,0,1-.78-0.81c-0.23-.3-0.47-0.67-0.54-0.76a0.13,0.13,0,0,0-.11,0h-0.51a0,0,0,0,0,0,0v0.08c0,0.52,0,.94,0,1.18a0.26,0.26,0,0,0,.22.29l0.28,0a0.07,0.07,0,0,1,.07.06s0,0.06-.12.06l-0.89,0-0.7,0c-0.07,0-.11,0-0.11-0.06s0-.06.09-0.06l0.2,0a0.27,0.27,0,0,0,.17-0.29c0-.24,0-0.67,0-1.18v-1Zm0.73,0.43a0.09,0.09,0,0,0,.05.1,1.59,1.59,0,0,0,.44.05,0.58,0.58,0,0,0,.4-0.09,0.94,0.94,0,0,0,.37-0.82,0.87,0.87,0,0,0-.87-1,2,2,0,0,0-.34,0,0.07,0.07,0,0,0-.05.08v1.65Z" transform="translate(-35.07 -363.21)"/>
    <path class="a" d="M106,389c0,0.15,0,.16-0.07.2a3.45,3.45,0,0,1-1.4.25c-1.41,0-2.65-.64-2.65-2.17a2.05,2.05,0,0,1,1-1.81,2.87,2.87,0,0,1,1.54-.36,6.47,6.47,0,0,1,1,.09c0.12,0,.32.05,0.46,0.06s0.08,0,.08.07a7.56,7.56,0,0,0,0,.91c0,0.08,0,.12-0.08.12s-0.05,0-.06-0.07a0.74,0.74,0,0,0-.2-0.46,1.78,1.78,0,0,0-1.24-.42,1.48,1.48,0,0,0-1.64,1.68,1.92,1.92,0,0,0,2,2.06,0.94,0.94,0,0,0,.4-0.06,0.18,0.18,0,0,0,.11-0.2v-0.51c0-.27,0-0.48,0-0.65a0.27,0.27,0,0,0-.25-0.3l-0.22,0a0.08,0.08,0,0,1-.09-0.06s0-.05.12-0.05h1.55c0.08,0,.12,0,0.12.05a0.07,0.07,0,0,1-.07.06l-0.16,0a0.25,0.25,0,0,0-.22.3c0,0.17,0,.39,0,0.66V389Z" transform="translate(-35.07 -363.21)"/>
    <path class="a" d="M108,386.78c0-.84,0-1,0-1.17a0.27,0.27,0,0,0-.25-0.3l-0.23,0c-0.06,0-.1,0-0.1-0.06s0-.05.13-0.05h1.68a2,2,0,0,1,1.09.24,1,1,0,0,1,.4.76,1.62,1.62,0,0,1-.79,1.22c0.51,0.63.91,1.13,1.26,1.47a1.08,1.08,0,0,0,.61.37H112a0.07,0.07,0,0,1,.07.06s0,0.06-.11.06h-0.55a1.24,1.24,0,0,1-.63-0.11,2.6,2.6,0,0,1-.78-0.81c-0.23-.3-0.47-0.67-0.54-0.76a0.13,0.13,0,0,0-.1,0h-0.52a0,0,0,0,0,0,0v0.08c0,0.52,0,.94,0,1.18a0.26,0.26,0,0,0,.22.29l0.28,0a0.07,0.07,0,0,1,.07.06s0,0.06-.12.06l-0.89,0-0.7,0c-0.07,0-.11,0-0.11-0.06s0-.06.09-0.06l0.2,0a0.27,0.27,0,0,0,.17-0.29c0-.24,0-0.67,0-1.18v-1Zm0.73,0.43a0.09,0.09,0,0,0,.05.1,1.59,1.59,0,0,0,.44.05,0.58,0.58,0,0,0,.4-0.09,0.94,0.94,0,0,0,.37-0.82,0.87,0.87,0,0,0-.87-1,2,2,0,0,0-.34,0,0.07,0.07,0,0,0-.05.08v1.65Z" transform="translate(-35.07 -363.21)"/>
    <path class="a" d="M112.35,387.27a2.19,2.19,0,0,1,2.4-2.17,2.07,2.07,0,0,1,2.35,2.07,2.24,2.24,0,0,1-2.41,2.27,2.16,2.16,0,0,1-2.35-2.17m3.9,0.1a1.76,1.76,0,0,0-1.66-2c-0.64,0-1.39.34-1.39,1.71a1.82,1.82,0,0,0,1.73,2c0.4,0,1.32-.19,1.32-1.77" transform="translate(-35.07 -363.21)"/>
    <path class="a" d="M118.6,386.78c0-.84,0-1,0-1.17a0.27,0.27,0,0,0-.25-0.3l-0.22,0c-0.07,0-.1,0-0.1-0.06s0-.05.12-0.05h1.6c0.09,0,.12,0,0.12.05s0,0.06-.09.06l-0.17,0a0.25,0.25,0,0,0-.21.3c0,0.18,0,.33,0,1.17v0.78a1.49,1.49,0,0,0,.44,1.34,1.22,1.22,0,0,0,1.49-.07,1.78,1.78,0,0,0,.33-1.35v-0.7c0-.84,0-1,0-1.17a0.27,0.27,0,0,0-.24-0.3l-0.21,0c-0.07,0-.1,0-0.1-0.06s0-.05.12-0.05h1.36c0.08,0,.12,0,0.12.05s0,0.06-.1.06l-0.17,0c-0.16,0-.2.1-0.21,0.3s0,0.33,0,1.17v0.59a2,2,0,0,1-.55,1.67,1.78,1.78,0,0,1-1.21.4,2,2,0,0,1-1.31-.38,1.78,1.78,0,0,1-.52-1.47v-0.81Z" transform="translate(-35.07 -363.21)"/>
    <path class="a" d="M124.17,386.78c0-.84,0-1,0-1.17a0.27,0.27,0,0,0-.25-0.3l-0.23,0c-0.06,0-.1,0-0.1-0.06s0-.05.13-0.05h1.78a1.46,1.46,0,0,1,1.07.31,1,1,0,0,1,.29.66,1.36,1.36,0,0,1-1.44,1.34h-0.17a0.07,0.07,0,0,1-.07-0.06s0.07-.07.19-0.07a0.87,0.87,0,0,0,.77-0.9,1,1,0,0,0-.34-0.82,0.86,0.86,0,0,0-.57-0.21,0.9,0.9,0,0,0-.25,0,0.1,0.1,0,0,0,0,.1v2.2c0,0.51,0,.95,0,1.19a0.26,0.26,0,0,0,.22.29l0.29,0a0.08,0.08,0,0,1,.09.06s0,0.06-.1.06l-0.94,0-0.72,0c-0.07,0-.11,0-0.11-0.06s0-.06.09-0.06l0.2,0a0.27,0.27,0,0,0,.17-0.29c0-.24,0-0.67,0-1.18v-1Z" transform="translate(-35.07 -363.21)"/>
    <path class="a" d="M44.81,378.34c0-3.6,0-4.25-.06-5s-0.19-1.23-1-1.34A7.67,7.67,0,0,0,43,372a0.18,0.18,0,0,1-.19-0.14c0-.14.11-0.19,0.38-0.19,1.09,0,2.64.05,2.78,0.05,0.57,0,1.69-.05,2.81-0.05,4,0,5,2.32,5,3.54,0,1.83-1.2,3-2.43,4.06,1.83,0.55,4.23,2.21,4.23,4.83s-1.94,5.15-6,5.15c-0.44,0-1.31,0-2.07-.08l-1.55-.05c-0.05,0-.49,0-1,0s-1.06.06-1.45,0.06-0.38-.06-0.38-0.19,0.06-.14.19-0.14a6.73,6.73,0,0,0,.74-0.11c0.46-.08.52-0.6,0.63-1.28a47.14,47.14,0,0,0,.14-5v-4.09Zm2.07,0.49a0.2,0.2,0,0,0,.16.24,7.5,7.5,0,0,0,1.47.11c1.34,0,1.85-.05,2.35-0.6a3.56,3.56,0,0,0,.93-2.48c0-1.77-1-3.74-3.38-3.74a7,7,0,0,0-1.23.11c-0.22.05-.3,0.11-0.3,0.24v6.11Zm0,2.56c0,1.8,0,4.58,0,4.94,0.08,1.12.08,1.39,0.82,1.74a5.72,5.72,0,0,0,2.1.33c1.58,0,3.52-.6,3.52-3.57A4.56,4.56,0,0,0,48.9,380C48.6,380,47.4,380,47,380a0.14,0.14,0,0,0-.14.16v1.28Z" transform="translate(-35.07 -363.21)"/>
    <path class="a" d="M63.79,372.1c0.3-.76.41-0.9,0.57-0.9a1.14,1.14,0,0,1,.57.85c0.44,1,4.28,10.55,5.75,14.07,0.87,2.07,1.53,2.37,2,2.54a3.36,3.36,0,0,0,1,.14,0.26,0.26,0,0,1,.3.19,0.52,0.52,0,0,1-.55.19c-0.35,0-2.13,0-3.79-.06a1.13,1.13,0,0,1-.85-0.16c0-.11.06-0.11,0.16-0.16a0.43,0.43,0,0,0,.22-0.63L67,382.84a0.19,0.19,0,0,0-.22-0.14H61.28a0.25,0.25,0,0,0-.25.19l-1.36,3.71a4.78,4.78,0,0,0-.36,1.55,0.69,0.69,0,0,0,.82.63h0.22c0.19,0,.25.08,0.25,0.19s-0.14.19-.35,0.19c-0.57,0-1.88-.08-2.15-0.08s-1.45.08-2.43,0.08c-0.3,0-.46-0.06-0.46-0.19a0.21,0.21,0,0,1,.22-0.19,6.61,6.61,0,0,0,.71-0.06c1.09-.14,1.55-1,2-2.13Zm2.67,9.65c0.11,0,.11-0.06.08-0.16l-2.37-6.35q-0.2-.53-0.41,0l-2.24,6.35c0,0.11,0,.16.08,0.16h4.85Z" transform="translate(-35.07 -363.21)"/>
    <path class="a" d="M86.5,383.25c0-1.88-.05-2.15-1-2.35a7.67,7.67,0,0,0-.82-0.05,0.23,0.23,0,0,1-.19-0.19c0-.16.11-0.19,0.38-0.19,1.09,0,2.7.05,2.84,0.05s1.61-.05,2.35-0.05c0.27,0,.38,0,0.38.19a0.23,0.23,0,0,1-.19.19,2.7,2.7,0,0,0-.6.05c-0.65.11-.84,0.46-0.9,1.28s0,1.42,0,2.4v2.59c0,1.06,0,1.09-.33,1.25a13.54,13.54,0,0,1-13-1.45,8.87,8.87,0,0,1-2.86-6.6,8.67,8.67,0,0,1,4-7.61,12.06,12.06,0,0,1,6.38-1.47,20,20,0,0,1,3.68.38,10.4,10.4,0,0,0,1.94.25c0.25,0,.3.11,0.3,0.22,0,0.33-.14,1-0.14,3.27,0,0.38-.11.49-0.27,0.49s-0.16-.14-0.16-0.35a3.46,3.46,0,0,0-.55-1.53c-0.6-.87-2.43-1.8-5.54-1.8a7.62,7.62,0,0,0-5,1.5,7.21,7.21,0,0,0-2.37,5.84A9.23,9.23,0,0,0,77.28,386a8.57,8.57,0,0,0,6.14,2.43A6,6,0,0,0,86,388a0.69,0.69,0,0,0,.49-0.71v-4Z" transform="translate(-35.07 -363.21)"/>
    <rect class="a" x="61" y="8.2" width="0.27" height="17.67"/>
  </g>
</svg>
