<svg xmlns="http://www.w3.org/2000/svg" viewBox="0 0 74.26 18.46">
  <defs>
    <style>
      .a {
        fill: #fff;
      }
    </style>
  </defs>
  <title>cbre</title>
  <g>
    <path class="a" d="M347.2,193.16c2.35-.78,2.77-2.75,2.77-4.36,0-2.45-1.73-4.57-6.86-4.57h-9.56v18.42h9.54c5.15,0,7-2.65,7-5.3A4.5,4.5,0,0,0,347.2,193.16Zm-9.11-4.92h6.46a1.5,1.5,0,0,1,1.26,1.47,1.57,1.57,0,0,1-1.32,1.54h-6.4v-3Zm6.13,10.12h-6.13v-3.08h6.29a1.53,1.53,0,0,1,1.37,1.51A1.59,1.59,0,0,1,344.22,198.36Z" transform="translate(-313.44 -184.23)"/>
    <path class="a" d="M371.55,184.24H387.7v4H376v3h10.51v4H376v3.21h11.66v4.21H371.55V184.24Z" transform="translate(-313.44 -184.23)"/>
    <path class="a" d="M362.15,184.26h-9.77v18.43h4.49v-7.46h4.94a2.57,2.57,0,0,1,2.52,2.61v4.84h4.39v-5.95a3.86,3.86,0,0,0-2.66-3.57,4.12,4.12,0,0,0,2.72-4.07C368.76,185.1,365.34,184.26,362.15,184.26ZM364.6,190a1.53,1.53,0,0,1-1.44,1.26h-6.31v-3h6.31a1.45,1.45,0,0,1,1.44,1.28V190Z" transform="translate(-313.44 -184.23)"/>
    <path class="a" d="M330.64,198.23c-0.06,0-6.13.12-8.23-.09a4.83,4.83,0,0,1-.15-9.64c1.28-.17,8.27-0.09,8.34-0.09h0.15v-4.19h-8.06a11.75,11.75,0,0,0-3.84.75,9.39,9.39,0,0,0-3.62,2.93,9.15,9.15,0,0,0-1.82,5.49,11.1,11.1,0,0,0,.15,1.85,9,9,0,0,0,5,6.35,13.62,13.62,0,0,0,5,1l1.49,0h5.66l0-4.44h-0.15Z" transform="translate(-313.44 -184.23)"/>
  </g>
</svg>
