<svg xmlns="http://www.w3.org/2000/svg" viewBox="0 0 68.49 30.47">
  <defs>
    <style>
      .a {
        fill: #fff;
      }
    </style>
  </defs>
  <title>jll</title>
  <g>
    <path class="a" d="M76.76,96.83H69v0.71a7.57,7.57,0,0,1,.92.13,1.52,1.52,0,0,1,.67.29c0.46,0.39.45,1.13,0.45,2.47v9c0,1.83.16,4.41-2.42,4.38a2.78,2.78,0,0,1-2.6-2.25H65.15c0.38,2.42,1.66,4.06,4.79,4.06h0c2.65,0,5-1.22,5-5.36v-9.8c0-1.34,0-2,.45-2.44a2,2,0,0,1,1.35-.46V96.83Z" transform="translate(-35.25 -90.73)"/>
    <path class="a" d="M85.64,96.83H77.9v0.71a2,2,0,0,1,1.35.46,2.16,2.16,0,0,1,.45,1.71c0,0.27,0,.56,0,0.9v10.73c0,0.33,0,.63,0,0.9a2.16,2.16,0,0,1-.45,1.71,2,2,0,0,1-1.35.46v0.71H89.6l1.23-3.58H89.92a3.43,3.43,0,0,1-3.56,2.2,4.14,4.14,0,0,1-2.22-.38c-0.39-.25-0.54-0.92-0.55-2V100.43c0-1.34,0-2.07.45-2.47a2.94,2.94,0,0,1,1.59-.43V96.83h0Z" transform="translate(-35.25 -90.73)"/>
    <path class="a" d="M98.54,96.83H90.8v0.71a2,2,0,0,1,1.35.46,2.16,2.16,0,0,1,.45,1.71c0,0.27,0,.56,0,0.9v10.73c0,0.33,0,.63,0,0.9a2.16,2.16,0,0,1-.45,1.71,2,2,0,0,1-1.35.46v0.71h11.7l1.23-3.58h-0.91a3.43,3.43,0,0,1-3.56,2.2,4.14,4.14,0,0,1-2.22-.38c-0.39-.25-0.54-0.92-0.55-2V100.43c0-1.34,0-2.07.45-2.47a2.94,2.94,0,0,1,1.59-.43V96.83h0Z" transform="translate(-35.25 -90.73)"/>
    <g>
      <path class="a" d="M46.61,120.63a6.82,6.82,0,0,0,1-.59l0.21-.14a9,9,0,0,0,1.14-1,11.41,11.41,0,0,0,1.25-1.59,14.89,14.89,0,0,0,.81-1.39,19.92,19.92,0,0,0,1.87-6,25.77,25.77,0,0,0,.3-4h0a25.75,25.75,0,0,0-.3-4,19.91,19.91,0,0,0-1.87-6c-0.11-.22-0.23-0.43-0.35-0.64a18.12,18.12,0,0,0-1.26,2.91A22.78,22.78,0,0,1,50.55,104c0,0.65.06,1.31,0.06,2h0c0,0.66,0,1.32-.06,2A22,22,0,0,1,49,114.82a17.19,17.19,0,0,1-1.25,2.45c-0.11.18-.22,0.37-0.34,0.55-0.25.36-.51,0.72-0.79,1.07a13.14,13.14,0,0,1-1,1.14,10.65,10.65,0,0,1-1.25,1l-0.1.08v0h0A6.1,6.1,0,0,0,46.61,120.63Zm0-1.73h0Z" transform="translate(-35.25 -90.73)"/>
      <path class="a" d="M51.38,120.63a6.84,6.84,0,0,0,1-.59l0.21-.14a11.42,11.42,0,0,0,3.2-4,19.92,19.92,0,0,0,1.87-6,25.72,25.72,0,0,0,.3-4h0a25.76,25.76,0,0,0-.3-4,19.92,19.92,0,0,0-1.87-6,11.74,11.74,0,0,0-2.89-3.76,14.23,14.23,0,0,0-1.1,1.33l0.34,0.49A20.14,20.14,0,0,1,55.31,104c0,0.65.07,1.31,0.07,2s0,1.32-.07,2a20.14,20.14,0,0,1-3.15,9.89c-0.24.36-.51,0.72-0.79,1.07a13.21,13.21,0,0,1-1,1.14,10.69,10.69,0,0,1-1.25,1l-0.1.08v0h0A6.09,6.09,0,0,0,51.38,120.63Z" transform="translate(-35.25 -90.73)"/>
      <path class="a" d="M57.37,119.89a11.41,11.41,0,0,0,3.2-4,19.91,19.91,0,0,0,1.87-6,25.74,25.74,0,0,0,.3-4h0a25.73,25.73,0,0,0-.3-4,19.91,19.91,0,0,0-1.87-6,11.41,11.41,0,0,0-3.2-4,6.43,6.43,0,0,0-3.62-1.31h0v0a12.7,12.7,0,0,1,3.17,3.34A20.14,20.14,0,0,1,60.07,104q0.07,1,.07,2t-0.07,2a20.13,20.13,0,0,1-3.15,9.89,12.68,12.68,0,0,1-3.17,3.34v0h0A6.43,6.43,0,0,0,57.37,119.89Z" transform="translate(-35.25 -90.73)"/>
      <path class="a" d="M51.38,91.31a6.84,6.84,0,0,0-1,.59L50.14,92a9,9,0,0,0-1.14,1,11.43,11.43,0,0,0-1.25,1.59,14.87,14.87,0,0,0-.81,1.39,19.92,19.92,0,0,0-1.87,6,25.77,25.77,0,0,0-.3,4h0a25.74,25.74,0,0,0,.3,4,19.91,19.91,0,0,0,1.87,6c0.11,0.22.23,0.43,0.35,0.64a18.12,18.12,0,0,0,1.26-2.91,22.78,22.78,0,0,1-1.11-5.68c0-.65-0.06-1.31-0.06-2h0c0-.66,0-1.32.06-2A22,22,0,0,1,49,97.12a17.17,17.17,0,0,1,1.25-2.45c0.11-.18.22-0.37,0.34-0.55,0.25-.36.51-0.72,0.79-1.07a13.18,13.18,0,0,1,1-1.14,10.65,10.65,0,0,1,1.25-1l0.1-.08v0h0A6.09,6.09,0,0,0,51.38,91.31Zm0,1.73h0Z" transform="translate(-35.25 -90.73)"/>
      <path class="a" d="M46.61,91.31a6.87,6.87,0,0,0-1,.59L45.38,92a11.41,11.41,0,0,0-3.2,4,19.92,19.92,0,0,0-1.87,6,25.72,25.72,0,0,0-.3,4h0a25.76,25.76,0,0,0,.3,4,19.93,19.93,0,0,0,1.87,6,11.74,11.74,0,0,0,2.89,3.76,14.25,14.25,0,0,0,1.1-1.33l-0.34-.49a20.14,20.14,0,0,1-3.15-9.89c0-.65-0.07-1.31-0.07-2s0-1.32.07-2a20.14,20.14,0,0,1,3.15-9.89c0.24-.36.51-0.72,0.79-1.07a13.2,13.2,0,0,1,1-1.14,10.69,10.69,0,0,1,1.25-1l0.1-.08v0h0A6.09,6.09,0,0,0,46.61,91.31Z" transform="translate(-35.25 -90.73)"/>
      <path class="a" d="M40.61,92a11.41,11.41,0,0,0-3.2,4,19.92,19.92,0,0,0-1.87,6,25.74,25.74,0,0,0-.3,4h0a25.75,25.75,0,0,0,.3,4,19.92,19.92,0,0,0,1.87,6,11.41,11.41,0,0,0,3.2,4,6.43,6.43,0,0,0,3.62,1.31h0v0a12.7,12.7,0,0,1-3.17-3.34,20.14,20.14,0,0,1-3.15-9.89c0-.65-0.07-1.31-0.07-2s0-1.32.07-2a20.13,20.13,0,0,1,3.15-9.89,12.68,12.68,0,0,1,3.17-3.34v0h0A6.43,6.43,0,0,0,40.61,92Z" transform="translate(-35.25 -90.73)"/>
      <g>
        <path class="a" d="M49.83,119.64a14.21,14.21,0,0,0,1.1-1.33l-0.34-.49c-0.12-.18-0.23-0.37-0.34-0.55A11.43,11.43,0,0,1,49,118.86a9.25,9.25,0,0,0,.84.78" transform="translate(-35.25 -90.73)"/>
        <path class="a" d="M52.41,120a6.82,6.82,0,0,1-1,.59,6.09,6.09,0,0,0,2.38.58h0v0A10.6,10.6,0,0,1,52.41,120" transform="translate(-35.25 -90.73)"/>
        <path class="a" d="M48.55,121.17l0.39-.06-0.39-.29a11.11,11.11,0,0,1-.9-0.79,6.83,6.83,0,0,1-1,.59,6.36,6.36,0,0,0,1.55.49l0.39,0.06m0.45,0v0l-0.06,0-0.39.06,0.45,0h0Z" transform="translate(-35.25 -90.73)"/>
      </g>
      <path class="a" d="M48.16,92.29a14.2,14.2,0,0,0-1.1,1.33l0.34,0.49c0.12,0.18.23,0.37,0.34,0.55A11.43,11.43,0,0,1,49,93.07a9.22,9.22,0,0,0-.84-0.78" transform="translate(-35.25 -90.73)"/>
      <path class="a" d="M45.58,91.9a6.86,6.86,0,0,1,1-.59,6.09,6.09,0,0,0-2.38-.58h0v0a10.61,10.61,0,0,1,1.35,1.13" transform="translate(-35.25 -90.73)"/>
      <path class="a" d="M51.38,91.31a6.36,6.36,0,0,0-1.55-.49l-0.38-.06h0l-0.45,0h0v0l0.06,0h0l0.38,0.29a11.07,11.07,0,0,1,.9.79,6.83,6.83,0,0,1,1-.59" transform="translate(-35.25 -90.73)"/>
    </g>
    <path class="a" d="M101.73,96.8a1.1,1.1,0,0,1,.53.14,1,1,0,0,1,.4.4,1.08,1.08,0,0,1,0,1.08,1,1,0,0,1-.4.4,1.08,1.08,0,0,1-1.08,0,1,1,0,0,1-.4-0.4,1.08,1.08,0,0,1,0-1.08,1,1,0,0,1,.4-0.4A1.1,1.1,0,0,1,101.73,96.8Zm0,0.21a0.88,0.88,0,0,0-.43.11,0.81,0.81,0,0,0-.32.32,0.87,0.87,0,0,0,0,.87,0.82,0.82,0,0,0,.32.32,0.86,0.86,0,0,0,.86,0,0.83,0.83,0,0,0,.32-0.32,0.87,0.87,0,0,0,0-.87,0.81,0.81,0,0,0-.32-0.32A0.88,0.88,0,0,0,101.74,97Zm-0.49,1.45V97.31h0.6a0.45,0.45,0,0,1,.18,0,0.29,0.29,0,0,1,.11.11,0.32,0.32,0,0,1,0,.16,0.3,0.3,0,0,1-.08.21,0.37,0.37,0,0,1-.23.11l0.08,0L102,98.08l0.08,0.14,0.14,0.23H102l-0.1-.19A0.78,0.78,0,0,0,101.7,98a0.26,0.26,0,0,0-.16,0h-0.06v0.47h-0.23Zm0.23-.65h0.09l0.25,0a0.15,0.15,0,0,0,.1-0.14,0.14,0.14,0,0,0,0-.09,0.15,0.15,0,0,0-.08-0.05l-0.25,0h-0.09V97.8Z" transform="translate(-35.25 -90.73)"/>
  </g>
</svg>
