<svg xmlns="http://www.w3.org/2000/svg" viewBox="0 0 55.79 61.8">
  <defs>
    <style>
      .a {
        fill: #fff;
      }
    </style>
  </defs>
  <title>edward</title>
  <g>
    <g>
      <path class="a" d="M77.9,262.76A14.19,14.19,0,1,0,92.09,277,14.19,14.19,0,0,0,77.9,262.76Zm0,27.35A13.16,13.16,0,1,1,91.06,277,13.18,13.18,0,0,1,77.9,290.11Z" transform="translate(-50 -262.76)"/>
      <path class="a" d="M77.9,264a13,13,0,1,0,13,13A13,13,0,0,0,77.9,264Z" transform="translate(-50 -262.76)"/>
    </g>
    <path class="a" d="M80.46,276.6a4.85,4.85,0,0,0,1.6-2.79H81.67a4.41,4.41,0,0,1-1.55,2.6l0.3,0.16,0,0" transform="translate(-50 -262.76)"/>
    <path class="a" d="M82.76,283.72A1,1,0,0,1,82,284.9c-0.38,0-.49-0.4-0.49-1.06V279a2.52,2.52,0,0,0-1.2-2.28L80,276.51a6.86,6.86,0,0,0-2.89-.53c-0.18,0-.34,0-0.51,0H76.52a4.69,4.69,0,0,1-.37-2.1v-1.78H82a4.63,4.63,0,0,0-4.35-4.44,4.83,4.83,0,0,0-4.65,5,4.76,4.76,0,0,0,1.76,3.8,2.06,2.06,0,0,0-1.31,1.69,1.27,1.27,0,0,0,1.37,1.37,1.2,1.2,0,0,0,1.29-1.27c0-1-1.06-1-1.08-1.31a0.29,0.29,0,0,1,.11-0.22,4.76,4.76,0,0,0,2.57.73,5.39,5.39,0,0,0,.79-0.06,1.33,1.33,0,0,0-.15-0.38l0-.07a1.92,1.92,0,0,1-1.53-.63h0.19a1.6,1.6,0,0,1,1.53.62,1.52,1.52,0,0,1,.17.44,4.28,4.28,0,0,1,.09,1v1.77l-2.07.17c-1.92.15-4,.66-4,2.85,0,1.84,1.65,2.58,3.28,2.58a3.34,3.34,0,0,0,2.83-1.33,2.17,2.17,0,0,0,2.11,1.33,2,2,0,0,0,2.26-2.07H82.76Zm-6.6-13.78c0-1.42.61-1.86,1.33-1.86,1,0,1.33.7,1.33,1.86v1.82H76.16v-1.82ZM78.74,283a2,2,0,0,1-1.67,2.13c-1.44,0-1.5-1.31-1.5-2.41s0.13-1.86,1.5-2l1.67-.17V283Z" transform="translate(-50 -262.76)"/>
    <path class="a" d="M83.14,283.56H82.76a0.16,0.16,0,0,0-.16.16,0.9,0.9,0,0,1-.58,1c-0.16,0-.33-0.11-0.33-0.9V279a2.68,2.68,0,0,0-1.23-2.38l0,0-0.3-.16-0.07,0a6.91,6.91,0,0,0-3-.54c-0.19,0-.38,0-0.58,0a0.3,0.3,0,0,0,.08.15c0.17,0,.33,0,0.51,0a6.86,6.86,0,0,1,2.89.53l0.35,0.19a2.52,2.52,0,0,1,1.2,2.28v4.86c0,0.66.11,1.06,0.49,1.06a1,1,0,0,0,.74-1.18h0.38a2,2,0,0,1-2.26,2.07,2.17,2.17,0,0,1-2.11-1.33,3.34,3.34,0,0,1-2.83,1.33c-1.63,0-3.28-.74-3.28-2.58,0-2.2,2.09-2.71,4-2.85l2.07-.17v-1.77a4.28,4.28,0,0,0-.09-1,1.52,1.52,0,0,0-.17-0.44,1.6,1.6,0,0,0-1.53-.62H76.83l0.11,0.15a1.49,1.49,0,0,1,1.35.48l0,0.07a1.33,1.33,0,0,1,.15.38v0a4.11,4.11,0,0,1,.09,1V280l-1.93.16c-1.79.14-4.16,0.6-4.16,3,0,2,1.85,2.73,3.43,2.73a3.76,3.76,0,0,0,2.81-1.17,2.34,2.34,0,0,0,2.13,1.17,2.2,2.2,0,0,0,2.42-2.23,0.16,0.16,0,0,0-.16-0.16" transform="translate(-50 -262.76)"/>
    <path class="a" d="M54.08,303.74a0.14,0.14,0,0,1-.14-0.14v-0.15a0.14,0.14,0,0,1,.14-0.14h1v-6.8h-1a0.14,0.14,0,0,1-.14-0.14v-0.14a0.14,0.14,0,0,1,.14-0.14H60a0.14,0.14,0,0,1,.14.14V298a0.14,0.14,0,0,1-.14.14H59.89a0.14,0.14,0,0,1-.14-0.1,5.11,5.11,0,0,0-.28-0.69,1.81,1.81,0,0,0-.35-0.48,1.23,1.23,0,0,0-.46-0.28,2.11,2.11,0,0,0-.68-0.1H56.41v2.91h0.53a2.2,2.2,0,0,0,.54-0.06,0.73,0.73,0,0,0,.34-0.2,1.25,1.25,0,0,0,.26-0.42,5.6,5.6,0,0,0,.23-0.74,0.14,0.14,0,0,1,.14-0.11h0.11a0.14,0.14,0,0,1,.14.14v3.22a0.14,0.14,0,0,1-.14.14H58.45a0.14,0.14,0,0,1-.14-0.11q-0.07-.3-0.15-0.57a1.67,1.67,0,0,0-.2-0.46,0.88,0.88,0,0,0-.32-0.3,1.11,1.11,0,0,0-.54-0.11h-0.7v3.45h1.81a1.58,1.58,0,0,0,.87-0.22,2.08,2.08,0,0,0,.58-0.54,2.38,2.38,0,0,0,.33-0.66,3.54,3.54,0,0,0,.14-0.58,0.14,0.14,0,0,1,.14-0.12h0.11a0.14,0.14,0,0,1,.14.14v2.27a0.14,0.14,0,0,1-.14.14H54.08Z" transform="translate(-50 -262.76)"/>
    <path class="a" d="M54.08,303.45h1.15v-7.08H54.08v-0.15H60V298H59.89a5.19,5.19,0,0,0-.29-0.71,2,2,0,0,0-.37-0.52,1.37,1.37,0,0,0-.52-0.32,2.24,2.24,0,0,0-.72-0.1H56.26v3.2h0.67a2.33,2.33,0,0,0,.58-0.06,0.88,0.88,0,0,0,.41-0.23,1.38,1.38,0,0,0,.29-0.47,5.75,5.75,0,0,0,.23-0.76h0.11v3.22H58.45q-0.07-.3-0.15-0.58a1.82,1.82,0,0,0-.22-0.5,1,1,0,0,0-.37-0.35,1.24,1.24,0,0,0-.61-0.13H56.26v3.74h2a1.72,1.72,0,0,0,.95-0.24,2.21,2.21,0,0,0,.62-0.58,2.5,2.5,0,0,0,.35-0.7,3.64,3.64,0,0,0,.14-0.6h0.11v2.27H54.08v-0.15Z" transform="translate(-50 -262.76)"/>
    <path class="a" d="M64.48,303.78H64.15l-0.36,0-0.34,0H61.37a0.14,0.14,0,0,1-.14-0.14v-0.15a0.14,0.14,0,0,1,.14-0.14h1v-6.8h-1a0.14,0.14,0,0,1-.14-0.14v-0.15a0.14,0.14,0,0,1,.14-0.14h2.21l0.28,0H65l0.47,0,0.42,0.08,0.42,0.12a3.9,3.9,0,0,1,1.13.58,3.3,3.3,0,0,1,.79.84,3.54,3.54,0,0,1,.45,1,4.66,4.66,0,0,1,.14,1.16,4.37,4.37,0,0,1-.17,1.27,3.62,3.62,0,0,1-.47,1,3.47,3.47,0,0,1-.71.76,3.73,3.73,0,0,1-.87.51,3.34,3.34,0,0,1-.49.18,3.48,3.48,0,0,1-.47.1l-0.53,0H64.48m-0.79-.46,0.27,0h0.51a6.62,6.62,0,0,0,.68,0,2.53,2.53,0,0,0,.63-0.15,2,2,0,0,0,.55-0.32,2.07,2.07,0,0,0,.46-0.55,3.77,3.77,0,0,0,.44-1.1,5.81,5.81,0,0,0,.13-1.25,6.45,6.45,0,0,0-.15-1.45,2.85,2.85,0,0,0-.49-1.08,2.21,2.21,0,0,0-.89-0.69,3.51,3.51,0,0,0-1.4-.25H63.69v6.82Z" transform="translate(-50 -262.76)"/>
    <path class="a" d="M61.37,303.45h1.15v-7.08H61.37v-0.15h2.22l0.29,0H65l0.46,0,0.4,0.07,0.41,0.12a3.74,3.74,0,0,1,1.09.55,3.14,3.14,0,0,1,.76.8,3.37,3.37,0,0,1,.43,1,4.47,4.47,0,0,1,.14,1.13,4.21,4.21,0,0,1-.17,1.23,3.45,3.45,0,0,1-.46,1,3.3,3.3,0,0,1-.68.72,3.58,3.58,0,0,1-.83.49,3.2,3.2,0,0,1-.47.18,3.3,3.3,0,0,1-.46.09l-0.51,0h-1l-0.35,0-0.35,0H61.37v-0.15Zm2.18,0,0.41,0h0.51a6.65,6.65,0,0,0,.7,0,2.64,2.64,0,0,0,.66-0.16,2.12,2.12,0,0,0,.59-0.34,2.21,2.21,0,0,0,.49-0.58,3.88,3.88,0,0,0,.46-1.14,5.92,5.92,0,0,0,.13-1.28,6.56,6.56,0,0,0-.16-1.49,3,3,0,0,0-.51-1.14,2.34,2.34,0,0,0-.95-0.73,3.64,3.64,0,0,0-1.46-.26H64l-0.41,0v7.08Z" transform="translate(-50 -262.76)"/>
    <path class="a" d="M76.46,303.89a0.14,0.14,0,0,1-.13-0.09l-1.66-4.62L73,303.8a0.14,0.14,0,0,1-.13.09H72.58a0.14,0.14,0,0,1-.13-0.09l-2.61-7.29H69a0.14,0.14,0,0,1-.14-0.14v-0.15a0.14,0.14,0,0,1,.14-0.14h3.12a0.14,0.14,0,0,1,.14.14v0.15a0.14,0.14,0,0,1-.14.14H71.25L73.19,302l1.23-3.43-0.74-2H72.92a0.14,0.14,0,0,1-.14-0.14v-0.15a0.14,0.14,0,0,1,.14-0.14H76a0.14,0.14,0,0,1,.14.14v0.15a0.14,0.14,0,0,1-.14.14H75.1L77,302l2-5.47h-0.9a0.14,0.14,0,0,1-.14-0.14v-0.15a0.14,0.14,0,0,1,.14-0.14h2.21a0.14,0.14,0,0,1,.14.14v0.15a0.14,0.14,0,0,1-.14.14H79.5l-2.65,7.29a0.14,0.14,0,0,1-.13.09H76.46Z" transform="translate(-50 -262.76)"/>
    <polygon class="a" points="19 33.46 22.12 33.46 22.12 33.61 21.04 33.61 23.17 39.61 23.19 39.61 24.57 35.79 23.78 33.61 22.91 33.61 22.91 33.46 26.02 33.46 26.02 33.61 24.89 33.61 27.02 39.61 27.04 39.61 29.22 33.61 28.11 33.61 28.11 33.46 30.33 33.46 30.33 33.61 29.39 33.61 26.71 40.99 26.45 40.99 24.67 36.02 24.65 36.02 22.85 40.99 22.57 40.99 19.93 33.61 19 33.61 19 33.46"/>
    <path class="a" d="M83.43,303.74a0.14,0.14,0,0,1-.14-0.14v-0.15a0.14,0.14,0,0,1,.14-0.14h0.94l-1-2.59h-2.2l-1,2.59h0.94a0.14,0.14,0,0,1,.14.14v0.15a0.14,0.14,0,0,1-.14.14H78.92a0.14,0.14,0,0,1-.14-0.14v-0.15a0.14,0.14,0,0,1,.14-0.14h0.81L82.49,296a0.14,0.14,0,0,1,.13-0.09h0.25A0.14,0.14,0,0,1,83,296l2.78,7.32h0.82a0.14,0.14,0,0,1,.14.14v0.15a0.14,0.14,0,0,1-.14.14H83.43Zm-0.21-3.45-0.93-2.47-0.93,2.47h1.86Z" transform="translate(-50 -262.76)"/>
    <path class="a" d="M78.92,303.45h0.91L82.63,296h0.25l2.82,7.41h0.92v0.15H83.43v-0.15h1.15l-1.09-2.88h-2.4L80,303.45h1.15v0.15H78.92v-0.15Zm3.36-6-1.14,3h2.28Z" transform="translate(-50 -262.76)"/>
    <path class="a" d="M93.16,303.81a2.12,2.12,0,0,1-.74-0.11,1.16,1.16,0,0,1-.5-0.35,1.43,1.43,0,0,1-.27-0.55,4.08,4.08,0,0,1-.11-0.71l-0.07-.94a1.84,1.84,0,0,0-.19-0.75,1,1,0,0,0-.34-0.37,1,1,0,0,0-.4-0.14l-0.4,0H89.24v3.45h1a0.14,0.14,0,0,1,.14.14v0.15a0.14,0.14,0,0,1-.14.14H86.91a0.14,0.14,0,0,1-.14-0.14v-0.15a0.14,0.14,0,0,1,.14-0.14h1v-6.8h-1a0.14,0.14,0,0,1-.14-0.14v-0.15a0.14,0.14,0,0,1,.14-0.14h2.21l0.24,0h0.51a7.79,7.79,0,0,1,1.1.07,2,2,0,0,1,.94.42,1.74,1.74,0,0,1,.55.69,1.84,1.84,0,0,1,.16.72,2,2,0,0,1-.06.43,1.5,1.5,0,0,1-.27.55,2,2,0,0,1-.6.5,2,2,0,0,1-.37.16,2.93,2.93,0,0,1,.43.16,2.29,2.29,0,0,1,.58.38,1.35,1.35,0,0,1,.39.64,2.67,2.67,0,0,1,.09.5c0,0.18,0,.36,0,0.55l0,0.54a2.54,2.54,0,0,0,.05.41,1.48,1.48,0,0,0,.18.44,0.33,0.33,0,0,0,.31.15,0.7,0.7,0,0,0,.23,0,0.55,0.55,0,0,0,.21-0.13,0.14,0.14,0,0,1,.1,0h0a0.14,0.14,0,0,1,.1.05l0.09,0.11a0.14,0.14,0,0,1,0,.2L94,303.6l-0.2.1a1.44,1.44,0,0,1-.28.07,2.34,2.34,0,0,1-.39,0M90,299.42a1.67,1.67,0,0,0,.49-0.07,0.78,0.78,0,0,0,.35-0.22,1.08,1.08,0,0,0,.23-0.43A2.68,2.68,0,0,0,91.2,298a2.1,2.1,0,0,0-.13-0.81,1,1,0,0,0-.32-0.43,1.06,1.06,0,0,0-.44-0.19,2.79,2.79,0,0,0-.52,0H89.24v2.93H90Z" transform="translate(-50 -262.76)"/>
    <path class="a" d="M86.91,303.45h1.15v-7.08H86.91v-0.15h2.21l0.25,0h0.5a7.65,7.65,0,0,1,1.08.07,1.8,1.8,0,0,1,.87.39,1.6,1.6,0,0,1,.51.63,1.7,1.7,0,0,1,.15.66,1.86,1.86,0,0,1-.06.4,1.35,1.35,0,0,1-.25.5,1.84,1.84,0,0,1-.55.47,2.49,2.49,0,0,1-1,.28v0l0.45,0.08a2.67,2.67,0,0,1,.58.19,2.14,2.14,0,0,1,.54.36,1.21,1.21,0,0,1,.35.57,2.47,2.47,0,0,1,.09.47q0,0.26,0,.54l0,0.54a2.7,2.7,0,0,0,.06.43,1.6,1.6,0,0,0,.2.49,0.47,0.47,0,0,0,.43.22,0.82,0.82,0,0,0,.28-0.05,0.69,0.69,0,0,0,.26-0.17l0.09,0.11-0.12.09-0.17.09-0.25.07a2.25,2.25,0,0,1-.37,0,2,2,0,0,1-.69-0.1,1,1,0,0,1-.44-0.31,1.29,1.29,0,0,1-.24-0.5,4,4,0,0,1-.11-0.69l-0.07-.94a2,2,0,0,0-.21-0.81A1.14,1.14,0,0,0,91,299.9a1.13,1.13,0,0,0-.46-0.16l-0.41,0h-1v3.74h1.15v0.15H86.91v-0.15Zm2.18-3.88h1a1.81,1.81,0,0,0,.53-0.07,0.92,0.92,0,0,0,.41-0.25,1.21,1.21,0,0,0,.26-0.49,2.8,2.8,0,0,0,.09-0.79,2.23,2.23,0,0,0-.14-0.86,1.17,1.17,0,0,0-.36-0.49,1.2,1.2,0,0,0-.5-0.22,2.94,2.94,0,0,0-.54-0.05H89.42l-0.33,0v3.2Z" transform="translate(-50 -262.76)"/>
    <path class="a" d="M97.5,303.78H97.17l-0.36,0-0.34,0H94.39a0.14,0.14,0,0,1-.14-0.14v-0.15a0.14,0.14,0,0,1,.14-0.14h1v-6.8h-1a0.14,0.14,0,0,1-.14-0.14v-0.15a0.14,0.14,0,0,1,.14-0.14H96.6l0.28,0H98l0.47,0,0.42,0.08,0.42,0.12a3.91,3.91,0,0,1,1.13.58,3.29,3.29,0,0,1,.79.84,3.51,3.51,0,0,1,.45,1,4.64,4.64,0,0,1,.14,1.16,4.39,4.39,0,0,1-.17,1.27,3.64,3.64,0,0,1-.48,1,3.46,3.46,0,0,1-.71.76,3.75,3.75,0,0,1-.87.51,3.33,3.33,0,0,1-.49.18,3.49,3.49,0,0,1-.47.1l-0.53,0H97.5m-0.79-.46,0.27,0h0.51a6.61,6.61,0,0,0,.68,0,2.53,2.53,0,0,0,.63-0.15,2,2,0,0,0,.55-0.32,2.08,2.08,0,0,0,.46-0.55,3.75,3.75,0,0,0,.44-1.1,5.8,5.8,0,0,0,.13-1.25,6.48,6.48,0,0,0-.15-1.45,2.84,2.84,0,0,0-.49-1.08,2.21,2.21,0,0,0-.89-0.69,3.51,3.51,0,0,0-1.4-.25H96.71v6.82Z" transform="translate(-50 -262.76)"/>
    <path class="a" d="M94.39,303.45h1.15v-7.08H94.39v-0.15H96.6l0.29,0H98l0.46,0,0.4,0.07,0.41,0.12a3.75,3.75,0,0,1,1.09.55,3.14,3.14,0,0,1,.76.8,3.38,3.38,0,0,1,.43,1,4.5,4.5,0,0,1,.14,1.13,4.21,4.21,0,0,1-.17,1.23,3.45,3.45,0,0,1-.46,1,3.31,3.31,0,0,1-.68.72,3.59,3.59,0,0,1-.83.49,3.19,3.19,0,0,1-.47.18,3.31,3.31,0,0,1-.46.09l-0.51,0h-1l-0.35,0-0.35,0H94.39v-0.15Zm2.18,0,0.41,0h0.51a6.64,6.64,0,0,0,.7,0,2.63,2.63,0,0,0,.66-0.16,2.12,2.12,0,0,0,.59-0.34,2.2,2.2,0,0,0,.49-0.58,3.88,3.88,0,0,0,.46-1.14,5.92,5.92,0,0,0,.13-1.28,6.56,6.56,0,0,0-.16-1.49,3,3,0,0,0-.51-1.14,2.34,2.34,0,0,0-.95-0.73,3.63,3.63,0,0,0-1.46-.26H97l-0.41,0v7.08Z" transform="translate(-50 -262.76)"/>
    <path class="a" d="M54.65,314.72a0.14,0.14,0,0,1-.14-0.14v-0.14a0.14,0.14,0,0,1,.14-0.14h0.94l-1-2.59h-2.2l-1,2.59h0.94a0.14,0.14,0,0,1,.14.14v0.14a0.14,0.14,0,0,1-.14.14H50.15a0.14,0.14,0,0,1-.14-0.14v-0.14a0.14,0.14,0,0,1,.14-0.14H51L53.72,307a0.14,0.14,0,0,1,.13-0.09H54.1a0.14,0.14,0,0,1,.13.09L57,314.29h0.82a0.14,0.14,0,0,1,.14.14v0.14a0.14,0.14,0,0,1-.14.14H54.65Zm-0.21-3.45-0.93-2.47-0.93,2.47h1.86Z" transform="translate(-50 -262.76)"/>
    <path class="a" d="M50.15,314.44h0.91L53.85,307H54.1l2.82,7.41h0.92v0.14H54.65v-0.14H55.8l-1.09-2.88h-2.4l-1.09,2.88h1.15v0.14H50.15v-0.14Zm3.36-6-1.14,3h2.28Z" transform="translate(-50 -262.76)"/>
    <path class="a" d="M63.73,314.87a0.14,0.14,0,0,1-.12-0.07l-4.12-6.56v6.05h1a0.14,0.14,0,0,1,.14.14v0.14a0.14,0.14,0,0,1-.14.14H58a0.14,0.14,0,0,1-.14-0.14v-0.14a0.14,0.14,0,0,1,.14-0.14h1v-6.8H58a0.14,0.14,0,0,1-.14-0.14v-0.15a0.14,0.14,0,0,1,.14-0.14h2.22a0.14,0.14,0,0,1,.12.07l3.26,5.25V307.5h-1a0.14,0.14,0,0,1-.14-0.14v-0.15a0.14,0.14,0,0,1,.14-0.14h2.45a0.14,0.14,0,0,1,.14.14v0.15a0.14,0.14,0,0,1-.14.14h-1v7.23a0.14,0.14,0,0,1-.14.14H63.73Z" transform="translate(-50 -262.76)"/>
    <polygon class="a" points="8.04 51.67 9.19 51.67 9.19 44.59 8.04 44.59 8.04 44.45 10.26 44.45 13.76 50.09 13.78 50.09 13.78 44.59 12.63 44.59 12.63 44.45 15.08 44.45 15.08 44.59 13.93 44.59 13.93 51.97 13.72 51.97 9.37 45.02 9.35 45.02 9.35 51.67 10.49 51.67 10.49 51.82 8.04 51.82 8.04 51.67"/>
    <path class="a" d="M68.73,314.77H68.39l-0.36,0-0.34,0H65.61a0.14,0.14,0,0,1-.14-0.14v-0.14a0.14,0.14,0,0,1,.14-0.14h1v-6.8h-1a0.14,0.14,0,0,1-.14-0.14v-0.15a0.14,0.14,0,0,1,.14-0.14h2.21l0.29,0h1.15l0.47,0,0.42,0.08,0.42,0.12a3.9,3.9,0,0,1,1.13.57,3.3,3.3,0,0,1,.79.84,3.54,3.54,0,0,1,.45,1,4.64,4.64,0,0,1,.14,1.16,4.38,4.38,0,0,1-.17,1.27,3.6,3.6,0,0,1-.47,1,3.46,3.46,0,0,1-.71.76,3.76,3.76,0,0,1-.87.51,3.32,3.32,0,0,1-.49.18,3.47,3.47,0,0,1-.47.1l-0.53,0H68.73m-0.79-.46,0.27,0h0.51a6.54,6.54,0,0,0,.68,0,2.51,2.51,0,0,0,.63-0.15,2,2,0,0,0,.55-0.32,2.07,2.07,0,0,0,.46-0.55,3.77,3.77,0,0,0,.44-1.1,5.8,5.8,0,0,0,.13-1.25,6.45,6.45,0,0,0-.15-1.45A2.84,2.84,0,0,0,71,308.4a2.21,2.21,0,0,0-.89-0.69,3.51,3.51,0,0,0-1.4-.25H67.94v6.82Z" transform="translate(-50 -262.76)"/>
    <path class="a" d="M65.61,314.44h1.15v-7.08H65.61v-0.15h2.21l0.29,0h1.13l0.46,0,0.4,0.07,0.41,0.12a3.74,3.74,0,0,1,1.09.55,3.14,3.14,0,0,1,.76.8,3.38,3.38,0,0,1,.43,1,4.47,4.47,0,0,1,.14,1.13,4.21,4.21,0,0,1-.17,1.23,3.45,3.45,0,0,1-.46,1,3.3,3.3,0,0,1-.68.72,3.57,3.57,0,0,1-.83.49,3.21,3.21,0,0,1-.47.18,3.26,3.26,0,0,1-.46.09l-0.51,0h-1l-0.35,0-0.35,0H65.61v-0.14Zm2.18,0,0.41,0h0.51a6.65,6.65,0,0,0,.7,0,2.65,2.65,0,0,0,.66-0.16,2.11,2.11,0,0,0,.59-0.34,2.19,2.19,0,0,0,.49-0.58,3.88,3.88,0,0,0,.46-1.14,5.92,5.92,0,0,0,.13-1.28,6.56,6.56,0,0,0-.16-1.49,3,3,0,0,0-.51-1.14,2.34,2.34,0,0,0-.95-0.73,3.64,3.64,0,0,0-1.46-.26H68.2l-0.41,0v7.08Z" transform="translate(-50 -262.76)"/>
    <path class="a" d="M80.29,314.8a2.11,2.11,0,0,1-.74-0.11,1.16,1.16,0,0,1-.5-0.35,1.43,1.43,0,0,1-.27-0.55,4.12,4.12,0,0,1-.11-0.71l-0.07-.94a1.84,1.84,0,0,0-.19-0.75,1,1,0,0,0-.34-0.37,1,1,0,0,0-.4-0.14l-0.4,0H76.37v3.45h1a0.14,0.14,0,0,1,.14.14v0.14a0.14,0.14,0,0,1-.14.14H74a0.14,0.14,0,0,1-.14-0.14v-0.14a0.14,0.14,0,0,1,.14-0.14h1v-6.8H74a0.14,0.14,0,0,1-.14-0.14v-0.15a0.14,0.14,0,0,1,.14-0.14h2.21l0.24,0H77a7.78,7.78,0,0,1,1.1.07,1.94,1.94,0,0,1,.94.42,1.74,1.74,0,0,1,.55.69,1.84,1.84,0,0,1,.16.72,2,2,0,0,1-.06.43,1.48,1.48,0,0,1-.27.55,2,2,0,0,1-.6.5,1.94,1.94,0,0,1-.37.17,2.89,2.89,0,0,1,.43.16,2.28,2.28,0,0,1,.58.38,1.36,1.36,0,0,1,.39.64,2.63,2.63,0,0,1,.09.5c0,0.18,0,.36,0,0.55l0,0.54a2.48,2.48,0,0,0,.05.41,1.46,1.46,0,0,0,.18.44,0.33,0.33,0,0,0,.31.15,0.69,0.69,0,0,0,.23,0,0.55,0.55,0,0,0,.21-0.13,0.14,0.14,0,0,1,.1,0h0a0.14,0.14,0,0,1,.1.05l0.09,0.11a0.14,0.14,0,0,1,0,.2l-0.13.09-0.2.1a1.43,1.43,0,0,1-.28.08,2.34,2.34,0,0,1-.39,0m-3.11-4.38a1.68,1.68,0,0,0,.49-0.07,0.78,0.78,0,0,0,.35-0.22,1.08,1.08,0,0,0,.23-0.43,2.65,2.65,0,0,0,.09-0.75,2.1,2.1,0,0,0-.13-0.81,1,1,0,0,0-.32-0.43,1.06,1.06,0,0,0-.44-0.19,2.79,2.79,0,0,0-.52,0H76.37v2.93h0.81Z" transform="translate(-50 -262.76)"/>
    <path class="a" d="M74,314.44H75.2v-7.08H74v-0.15h2.21l0.25,0H77a7.61,7.61,0,0,1,1.08.07,1.8,1.8,0,0,1,.87.39,1.59,1.59,0,0,1,.51.63,1.69,1.69,0,0,1,.15.66,1.82,1.82,0,0,1-.06.4,1.34,1.34,0,0,1-.25.5,1.86,1.86,0,0,1-.55.47,2.5,2.5,0,0,1-1,.28v0l0.45,0.08a2.67,2.67,0,0,1,.58.19,2.14,2.14,0,0,1,.54.36,1.21,1.21,0,0,1,.35.57,2.5,2.5,0,0,1,.09.47q0,0.26,0,.54l0,0.54a2.6,2.6,0,0,0,.06.43,1.58,1.58,0,0,0,.2.49,0.47,0.47,0,0,0,.43.22,0.83,0.83,0,0,0,.28-0.05,0.7,0.7,0,0,0,.26-0.17l0.09,0.11-0.12.09-0.17.09-0.25.07a2.19,2.19,0,0,1-.37,0,2,2,0,0,1-.69-0.1,1,1,0,0,1-.44-0.31,1.28,1.28,0,0,1-.24-0.5,3.93,3.93,0,0,1-.11-0.69l-0.07-.94a2,2,0,0,0-.21-0.81,1.15,1.15,0,0,0-.39-0.42,1.13,1.13,0,0,0-.46-0.16l-0.41,0h-1v3.74h1.15v0.14H74v-0.14Zm2.18-3.88h1a1.79,1.79,0,0,0,.53-0.07,0.92,0.92,0,0,0,.41-0.25,1.21,1.21,0,0,0,.26-0.49,2.78,2.78,0,0,0,.09-0.79,2.23,2.23,0,0,0-.14-0.86,1.17,1.17,0,0,0-.36-0.49,1.2,1.2,0,0,0-.5-0.22,2.94,2.94,0,0,0-.54-0.05H76.56l-0.33,0v3.2Z" transform="translate(-50 -262.76)"/>
    <path class="a" d="M81.52,314.72a0.14,0.14,0,0,1-.14-0.14v-0.14a0.14,0.14,0,0,1,.14-0.14h1v-6.8h-1a0.14,0.14,0,0,1-.14-0.14v-0.15a0.14,0.14,0,0,1,.14-0.14h5.92a0.14,0.14,0,0,1,.14.14V309a0.14,0.14,0,0,1-.14.14H87.33a0.14,0.14,0,0,1-.14-0.1,5,5,0,0,0-.28-0.69,1.82,1.82,0,0,0-.34-0.48,1.24,1.24,0,0,0-.46-0.28,2.12,2.12,0,0,0-.68-0.1H83.85v2.91h0.53a2.17,2.17,0,0,0,.54-0.06,0.74,0.74,0,0,0,.34-0.2,1.25,1.25,0,0,0,.26-0.42,5.66,5.66,0,0,0,.23-0.74,0.14,0.14,0,0,1,.14-0.11H86a0.14,0.14,0,0,1,.14.14v3.22a0.14,0.14,0,0,1-.14.14H85.89a0.14,0.14,0,0,1-.14-0.11q-0.07-.3-0.15-0.57a1.69,1.69,0,0,0-.2-0.46,0.88,0.88,0,0,0-.32-0.3,1.11,1.11,0,0,0-.54-0.11h-0.7v3.45h1.81a1.59,1.59,0,0,0,.87-0.22,2.08,2.08,0,0,0,.58-0.54,2.38,2.38,0,0,0,.33-0.66,3.55,3.55,0,0,0,.14-0.58,0.14,0.14,0,0,1,.14-0.12h0.11a0.14,0.14,0,0,1,.14.14v2.27a0.14,0.14,0,0,1-.14.14H81.52Z" transform="translate(-50 -262.76)"/>
    <path class="a" d="M81.52,314.44h1.15v-7.08H81.52v-0.15h5.92V309H87.33a5.18,5.18,0,0,0-.29-0.71,1.94,1.94,0,0,0-.37-0.52,1.37,1.37,0,0,0-.52-0.32,2.24,2.24,0,0,0-.72-0.1H83.7v3.2h0.67a2.32,2.32,0,0,0,.58-0.06,0.88,0.88,0,0,0,.41-0.23,1.38,1.38,0,0,0,.29-0.47,5.76,5.76,0,0,0,.23-0.76H86v3.22H85.89q-0.07-.3-0.15-0.58a1.81,1.81,0,0,0-.22-0.5,1,1,0,0,0-.37-0.35,1.24,1.24,0,0,0-.61-0.13H83.7v3.74h2a1.71,1.71,0,0,0,.95-0.24,2.22,2.22,0,0,0,.62-0.58,2.53,2.53,0,0,0,.35-0.7,3.67,3.67,0,0,0,.14-0.6h0.11v2.27H81.52v-0.14Z" transform="translate(-50 -262.76)"/>
    <path class="a" d="M95.85,314.88a0.14,0.14,0,0,1-.13-0.09l-1.66-4.62-1.68,4.63a0.14,0.14,0,0,1-.13.09H92a0.14,0.14,0,0,1-.13-0.09l-2.61-7.29H88.39a0.14,0.14,0,0,1-.14-0.14v-0.15a0.14,0.14,0,0,1,.14-0.14h3.12a0.14,0.14,0,0,1,.14.14v0.15a0.14,0.14,0,0,1-.14.14H90.63L92.58,313l1.23-3.43-0.74-2H92.31a0.14,0.14,0,0,1-.14-0.14v-0.15a0.14,0.14,0,0,1,.14-0.14h3.11a0.14,0.14,0,0,1,.14.14v0.15a0.14,0.14,0,0,1-.14.14H94.49L96.43,313l2-5.47H97.5a0.14,0.14,0,0,1-.14-0.14v-0.15a0.14,0.14,0,0,1,.14-0.14h2.22a0.14,0.14,0,0,1,.14.14v0.15a0.14,0.14,0,0,1-.14.14H98.89l-2.65,7.29a0.14,0.14,0,0,1-.13.09H95.85Z" transform="translate(-50 -262.76)"/>
    <polygon class="a" points="38.39 44.45 41.51 44.45 41.51 44.59 40.43 44.59 42.56 50.6 42.58 50.6 43.96 46.78 43.17 44.59 42.3 44.59 42.3 44.45 45.41 44.45 45.41 44.59 44.28 44.59 46.41 50.6 46.43 50.6 48.61 44.59 47.5 44.59 47.5 44.45 49.71 44.45 49.71 44.59 48.78 44.59 46.1 51.98 45.84 51.98 44.06 47.01 44.04 47.01 42.24 51.98 41.96 51.98 39.32 44.59 38.39 44.59 38.39 44.45"/>
    <path class="a" d="M103,314.88h-0.39l-0.33,0-0.29,0-0.34-.08-0.45-.15a1.16,1.16,0,0,0-.37-0.07,0.21,0.21,0,0,0-.11,0,0.4,0.4,0,0,0-.07.12,0.14,0.14,0,0,1-.13.09h-0.16a0.14,0.14,0,0,1-.14-0.14v-2.23a0.14,0.14,0,0,1,.14-0.14h0.11a0.14,0.14,0,0,1,.14.11,4,4,0,0,0,.28.91,2.6,2.6,0,0,0,.38.6,1.63,1.63,0,0,0,.42.35,1.81,1.81,0,0,0,.45.18,2.18,2.18,0,0,0,.44.07H103a2,2,0,0,0,.84-0.15,1.43,1.43,0,0,0,.51-0.38,1.37,1.37,0,0,0,.26-0.5,1.89,1.89,0,0,0,.08-0.5,1.2,1.2,0,0,0-.12-0.56,1.36,1.36,0,0,0-.31-0.4,1.78,1.78,0,0,0-.42-0.27,3,3,0,0,0-.44-0.17l-1.19-.36a3.21,3.21,0,0,1-1.33-.72,1.67,1.67,0,0,1-.47-1.24,2.39,2.39,0,0,1,.18-0.92,2.18,2.18,0,0,1,.5-0.74,2.33,2.33,0,0,1,.77-0.49,2.89,2.89,0,0,1,1.61-.11,2.84,2.84,0,0,1,.44.15l0.32,0.14a0.55,0.55,0,0,0,.23,0h0.1a1.19,1.19,0,0,0,.09-0.14,0.14,0.14,0,0,1,.12-0.07h0.15a0.14,0.14,0,0,1,.14.14v1.87a0.14,0.14,0,0,1-.14.14H104.8a0.14,0.14,0,0,1-.14-0.12,3,3,0,0,0-.2-0.69,2.09,2.09,0,0,0-.36-0.57,1.69,1.69,0,0,0-.53-0.39,1.66,1.66,0,0,0-.72-0.15,2.39,2.39,0,0,0-.52.06,1.6,1.6,0,0,0-.51.21,1.25,1.25,0,0,0-.39.39,1.12,1.12,0,0,0-.15.61,1,1,0,0,0,.12.49,1.17,1.17,0,0,0,.31.35,2,2,0,0,0,.44.25l0.52,0.19,1.25,0.39,0.5,0.17a2.41,2.41,0,0,1,.62.33,2,2,0,0,1,.53.59,1.83,1.83,0,0,1,.22.94,2.57,2.57,0,0,1-.19,1,2.48,2.48,0,0,1-.55.82,2.73,2.73,0,0,1-.87.57,3,3,0,0,1-1.15.21" transform="translate(-50 -262.76)"/>
    <path class="a" d="M100.39,312.36h0.11a4.15,4.15,0,0,0,.29.94,2.71,2.71,0,0,0,.4.63,1.76,1.76,0,0,0,.46.38,2,2,0,0,0,.48.2,2.29,2.29,0,0,0,.47.07H103a2.11,2.11,0,0,0,.9-0.17,1.57,1.57,0,0,0,.56-0.42,1.51,1.51,0,0,0,.29-0.55,2,2,0,0,0,.08-0.54,1.34,1.34,0,0,0-.13-0.62,1.5,1.5,0,0,0-.34-0.44,1.93,1.93,0,0,0-.45-0.29,3.13,3.13,0,0,0-.46-0.18l-1.19-.36a3.06,3.06,0,0,1-1.27-.68,1.53,1.53,0,0,1-.43-1.14,2.23,2.23,0,0,1,.17-0.86,2,2,0,0,1,.47-0.69,2.16,2.16,0,0,1,.72-0.46,2.75,2.75,0,0,1,1.52-.1,2.69,2.69,0,0,1,.42.14l0.32,0.14a0.69,0.69,0,0,0,.28.06,0.31,0.31,0,0,0,.18,0,0.69,0.69,0,0,0,.13-0.18h0.15v1.87H104.8a3.08,3.08,0,0,0-.21-0.72,2.23,2.23,0,0,0-.39-0.61,1.83,1.83,0,0,0-.57-0.42,1.8,1.8,0,0,0-.78-0.16,2.54,2.54,0,0,0-.55.07,1.72,1.72,0,0,0-.56.23,1.39,1.39,0,0,0-.43.43,1.25,1.25,0,0,0-.17.68,1.11,1.11,0,0,0,.13.56,1.31,1.31,0,0,0,.35.39,2.11,2.11,0,0,0,.48.27l0.53,0.19,1.25,0.39,0.5,0.17a2.23,2.23,0,0,1,.58.31,1.8,1.8,0,0,1,.49.55,1.69,1.69,0,0,1,.2.87,2.41,2.41,0,0,1-.18.93,2.32,2.32,0,0,1-.52.78,2.56,2.56,0,0,1-.83.54,2.84,2.84,0,0,1-1.1.2h-0.38l-0.31,0-0.29,0-0.32-.08-0.44-.14a1.29,1.29,0,0,0-.41-0.08,0.28,0.28,0,0,0-.21.06,0.54,0.54,0,0,0-.1.17h-0.16v-2.23Z" transform="translate(-50 -262.76)"/>
    <polygon class="a" points="12.87 56.04 13.87 56.04 13.87 58.39 16.57 58.39 16.57 56.04 17.56 56.04 17.56 61.7 16.57 61.7 16.57 59.31 13.87 59.31 13.87 61.7 12.87 61.7 12.87 56.04"/>
    <path class="a" d="M68.77,321.65v0a3,3,0,0,1,5.92,0v0a3,3,0,0,1-5.92,0m4.88,0v0a1.94,1.94,0,0,0-1.93-2,1.91,1.91,0,0,0-1.91,2v0a1.93,1.93,0,0,0,1.92,2,1.91,1.91,0,0,0,1.91-2" transform="translate(-50 -262.76)"/>
    <polygon class="a" points="25.89 56.04 26.95 56.04 28.67 58.72 30.39 56.04 31.45 56.04 31.45 61.7 30.46 61.7 30.46 57.64 28.67 60.31 28.64 60.31 26.87 57.66 26.87 61.7 25.89 61.7 25.89 56.04"/>
    <polygon class="a" points="32.91 56.04 37.11 56.04 37.11 56.93 33.9 56.93 33.9 58.4 36.74 58.4 36.74 59.29 33.9 59.29 33.9 60.81 37.15 60.81 37.15 61.7 32.91 61.7 32.91 56.04"/>
    <path class="a" d="M88,323.64l0.6-.71a2.62,2.62,0,0,0,1.79.74,0.84,0.84,0,0,0,1-.71v0c0-.4-0.23-0.62-1.28-0.87-1.21-.29-1.88-0.65-1.88-1.69v0a1.73,1.73,0,0,1,1.93-1.64,3.14,3.14,0,0,1,2.05.71l-0.53.75a2.57,2.57,0,0,0-1.54-.58,0.78,0.78,0,0,0-.92.67v0c0,0.44.26,0.63,1.35,0.89s1.81,0.72,1.81,1.66v0a1.76,1.76,0,0,1-2,1.69,3.49,3.49,0,0,1-2.36-.91" transform="translate(-50 -262.76)"/>
  </g>
</svg>
