<svg xmlns="http://www.w3.org/2000/svg" viewBox="0 0 102.27 18.03">
  <defs>
    <style>
      .a {
        fill: #fff;
      }
    </style>
  </defs>
  <title>vornado</title>
  <g>
    <g>
      <path class="a" d="M95.87,202.8a1.08,1.08,0,0,0,.24-0.73,1.11,1.11,0,0,0-.3-0.81A1.14,1.14,0,0,0,95,201H92.47v3.24h0.61v-1.1h1.53l0.85,1.1h0.72l-0.86-1.14A1,1,0,0,0,95.87,202.8Zm-2.79-1.25h1.79a0.52,0.52,0,0,1,.61.53,0.48,0.48,0,0,1-.56.49H93.09v-1Z" transform="translate(-29.34 -186.26)"/>
      <path class="a" d="M50.7,202.8a1.08,1.08,0,0,0,.24-0.73,1.11,1.11,0,0,0-.3-0.81,1.14,1.14,0,0,0-.81-0.28H47.3v3.24h0.61v-1.1h1.53l0.85,1.1H51l-0.86-1.14A1,1,0,0,0,50.7,202.8Zm-2.79-1.25H49.7a0.52,0.52,0,0,1,.61.53,0.48,0.48,0,0,1-.56.49H47.91v-1Z" transform="translate(-29.34 -186.26)"/>
      <path class="a" d="M54.26,202.82h1.85v-0.57H54.26v-0.71h2.66V201H53.65v3.24H57v-0.57H54.26v-0.83Z" transform="translate(-29.34 -186.26)"/>
      <path class="a" d="M61.63,201H60.95l-1.72,3.25H59.9l0.34-.66h2.11l0.34,0.66h0.68L61.66,201h0Zm0.42,2h-1.5l0.76-1.42Z" transform="translate(-29.34 -186.26)"/>
      <path class="a" d="M66.44,201H65.83v3.25h3v-0.57H66.44V201Z" transform="translate(-29.34 -186.26)"/>
      <path class="a" d="M70.95,201v0.57h1.51v2.68h0.61v-2.68h1.51V201H70.95Z" transform="translate(-29.34 -186.26)"/>
      <path class="a" d="M79.95,201l-1.32,1.45L77.31,201H76.53l1.79,2v1.27h0.61v-1.27l1.79-2H79.95Z" transform="translate(-29.34 -186.26)"/>
      <path class="a" d="M85.86,201v0.57h1.51v2.68H88v-2.68h1.51V201H85.86Z" transform="translate(-29.34 -186.26)"/>
      <path class="a" d="M101.72,201V203a0.58,0.58,0,0,1-.3.53,1.78,1.78,0,0,1-.92.19,1.81,1.81,0,0,1-.92-0.19,0.58,0.58,0,0,1-.3-0.53V201H98.67v2.18a1,1,0,0,0,.5.84,2.46,2.46,0,0,0,1.34.33,2.41,2.41,0,0,0,1.33-.33,1,1,0,0,0,.5-0.84V201h-0.62Z" transform="translate(-29.34 -186.26)"/>
      <path class="a" d="M108.87,202.53a1.93,1.93,0,0,0-.9-0.3l-0.87-.07a2.55,2.55,0,0,1-.63-0.09,0.29,0.29,0,0,1-.24-0.26,0.31,0.31,0,0,1,.23-0.27,1.87,1.87,0,0,1,.72-0.11,3.06,3.06,0,0,1,1.41.35l0,0,0.38-.42,0,0a3,3,0,0,0-1.73-.47,2.28,2.28,0,0,0-1.2.26,0.84,0.84,0,0,0-.44.74,0.68,0.68,0,0,0,.39.66,3.16,3.16,0,0,0,1.11.21,8.57,8.57,0,0,1,1.07.11,0.38,0.38,0,0,1,.35.36,0.41,0.41,0,0,1-.27.37,1.93,1.93,0,0,1-.84.15,3,3,0,0,1-1.57-.45l0,0-0.34.45,0,0a3,3,0,0,0,1.91.54,2.5,2.5,0,0,0,1.3-.28,0.91,0.91,0,0,0,.47-0.82A0.76,0.76,0,0,0,108.87,202.53Z" transform="translate(-29.34 -186.26)"/>
      <path class="a" d="M115.56,201H112v0.57h1.51v2.68h0.61v-2.68h1.51V201h0Z" transform="translate(-29.34 -186.26)"/>
    </g>
    <g>
      <g>
        <path class="a" d="M125.77,186.26a5.48,5.48,0,1,0,5.84,5.47A5.66,5.66,0,0,0,125.77,186.26Zm0,8.89a3.42,3.42,0,1,1,3.51-3.41A3.49,3.49,0,0,1,125.77,195.14Z" transform="translate(-29.34 -186.26)"/>
        <path class="a" d="M50.78,186.26a5.48,5.48,0,1,0,5.84,5.47A5.66,5.66,0,0,0,50.78,186.26Zm0,8.89a3.42,3.42,0,1,1,3.51-3.41A3.49,3.49,0,0,1,50.78,195.14Z" transform="translate(-29.34 -186.26)"/>
        <path class="a" d="M111,186.56h-4.38v10.38H111c3.63,0,5.89-2.15,5.89-5.19S114.67,186.56,111,186.56Zm0.16,8.38h-2.26v-6.37h2.26c2.23,0,3.42,1.3,3.42,3.18S113.43,194.93,111.2,194.93Z" transform="translate(-29.34 -186.26)"/>
        <path class="a" d="M71.24,190.12c0-2.26-1.59-3.57-4.28-3.57H60.51v10.38h2.27v-8.4h4c1.37,0,2.23.42,2.23,1.61s-0.82,1.64-2.19,1.64H64.47l4.72,5.14H72l-3.31-3.59A3.39,3.39,0,0,0,71.24,190.12Z" transform="translate(-29.34 -186.26)"/>
        <path class="a" d="M85.13,193.47l-0.2-.28-0.21-.26-6.45-6.37H76.13v10.38H78.4v-7.16l0.2,0.33a3.53,3.53,0,0,0,.22.3l6.57,6.52h2V186.56H85.13v6.91Z" transform="translate(-29.34 -186.26)"/>
      </g>
      <polygon class="a" points="10.14 0.31 12.93 0.31 6.5 12.65 0 0.31 2.81 0.31 6.48 7.54 10.14 0.31"/>
      <path class="a" d="M101,196.95h2.56l-5.4-10.39H95.84l-5.4,10.39H93l0.81-1.59h6.39Zm-4-7.73,2.19,4.19H94.82Z" transform="translate(-29.34 -186.26)"/>
    </g>
  </g>
</svg>
