<svg xmlns="http://www.w3.org/2000/svg" viewBox="0 0 61.98 41.77">
  <defs>
    <style>
      .a {
        fill: #fff;
      }
    </style>
  </defs>
  <title>coliers</title>
  <g>
    <path class="a" d="M238.1,267H183.47a3.68,3.68,0,0,0-3.68,3.68v34.42a3.67,3.67,0,0,0,3.45,3.67h55.07a3.67,3.67,0,0,0,3.45-3.67V270.73A3.68,3.68,0,0,0,238.1,267ZM240.67,300h0v5.18h0a2.57,2.57,0,0,1-2.41,2.56H183.32a2.57,2.57,0,0,1-2.41-2.56h0V300h0V270.73a2.57,2.57,0,0,1,2.57-2.57H238.1a2.57,2.57,0,0,1,2.57,2.57V300Z" transform="translate(-179.8 -267.05)"/>
    <rect class="a" x="1.11" y="35.52" width="59.76" height="2.57"/>
    <rect class="a" x="1.11" y="32.91" width="59.76" height="2.61"/>
    <path class="a" d="M180.91,305.15a2.57,2.57,0,0,0,2.41,2.56h54.94a2.57,2.57,0,0,0,2.41-2.56H180.91Z" transform="translate(-179.8 -267.05)"/>
    <path class="a" d="M201.55,279.77a3.33,3.33,0,0,0-2.19.74,3.44,3.44,0,0,0-1.29,2.56,3.24,3.24,0,0,0,.83,2.39,3,3,0,0,0,2.5,1.11,3.41,3.41,0,0,0,2.59-1.11,3.54,3.54,0,0,0,1-2.34,3.33,3.33,0,0,0-1.06-2.43A3.27,3.27,0,0,0,201.55,279.77Zm0,6.15a1.29,1.29,0,0,1-1.21-.66,3.58,3.58,0,0,1-.48-2.14,3.16,3.16,0,0,1,.66-2.31,1.21,1.21,0,0,1,1-.42c0.71,0,1.6,1,1.6,2.68S202.54,285.92,201.52,285.92Z" transform="translate(-179.8 -267.05)"/>
    <path class="a" d="M223.37,284.62l-0.23-.14a0.13,0.13,0,0,0-.19.08,2.1,2.1,0,0,1-1.86.89,2.32,2.32,0,0,1-2-2.49v-0.48h3.73c0.28,0,.43,0,0.43-0.25a2.51,2.51,0,0,0-2.33-2.47,2.91,2.91,0,0,0-2.68,1.14,3.2,3.2,0,0,0-.76,2.28,3.49,3.49,0,0,0,.86,2.54,2.68,2.68,0,0,0,2.22.83,3,3,0,0,0,2.8-1.63C223.47,284.73,223.44,284.67,223.37,284.62Zm-2.82-4.28a1.18,1.18,0,0,1,1,1.37c0,0.12-.19.22-0.51,0.22h-1.86C219.33,280.9,219.8,280.34,220.55,280.34Z" transform="translate(-179.8 -267.05)"/>
    <path class="a" d="M224.11,286.43c0.12,0,.72,0,1.8,0s1.8,0,1.91,0a0.09,0.09,0,0,0,.11-0.11V286c0-.08,0-0.11-0.12-0.11h-0.68c-0.31,0-.43-0.15-0.43-0.65v-3a1.76,1.76,0,0,1,.19-0.76,0.81,0.81,0,0,1,.65-0.45,0.69,0.69,0,0,1,.43.13,1.2,1.2,0,0,0,.52.12,0.89,0.89,0,0,0,.83-0.83,0.75,0.75,0,0,0-.8-0.77,2.39,2.39,0,0,0-1.85,1.39H226.6L226.46,280a0.18,0.18,0,0,0-.14-0.19,0.75,0.75,0,0,0-.25.06l-1.86.88a0.16,0.16,0,0,0-.12.14v0.09a0.13,0.13,0,0,0,.12.12l0.28,0.15a1.07,1.07,0,0,1,.58,1.2v3a0.36,0.36,0,0,1-.4.42h-0.54c-0.11,0-.14,0-0.14.12v0.34A0.09,0.09,0,0,0,224.11,286.43Z" transform="translate(-179.8 -267.05)"/>
    <path class="a" d="M232.39,282.31c-0.92-.24-1.39-0.43-1.39-1.06a1,1,0,0,1,1.06-.88,1.25,1.25,0,0,1,1,.48l0.74,0.83a0.1,0.1,0,0,0,.12.06l0.29-.14a0.22,0.22,0,0,0,0-.17l-0.2-1.05a0.41,0.41,0,0,0-.29-0.27,3,3,0,0,0-1.49-.34,2.55,2.55,0,0,0-1.6.51,1.87,1.87,0,0,0-.79,1.62c0,1.09.83,1.62,1.88,1.93s1.48,0.58,1.48,1.2a1,1,0,0,1-1.09.94,1.38,1.38,0,0,1-1.33-.83l-0.51-.86a0.1,0.1,0,0,0-.14,0l-0.29.09a0.09,0.09,0,0,0,0,.13L230,286a0.43,0.43,0,0,0,.12.17,3.26,3.26,0,0,0,1.67.4,2.31,2.31,0,0,0,2.57-2.22,1.58,1.58,0,0,0-.46-1.23A2.83,2.83,0,0,0,232.39,282.31Z" transform="translate(-179.8 -267.05)"/>
    <path class="a" d="M217,286c0-.08,0-0.11-0.15-0.11h-0.62c-0.15,0-.22-0.12-0.25-0.4a13.19,13.19,0,0,1,0-1.33v-1.66c0-1.28,0-2.26,0-2.51s0-.19-0.12-0.19a1.07,1.07,0,0,0-.37.09c-0.26.11-1.79,0.65-2,.74a0.13,0.13,0,0,0-.11.12v0.17c0,0.06,0,.11.15,0.14a0.84,0.84,0,0,1,.8,1v2.17c0,0.43,0,.92,0,1.38,0,0.25-.09.31-0.25,0.31a5.9,5.9,0,0,1-.76,0c-0.66,0-.83,0-0.83,0-0.34,0-.37-0.22-0.4-0.49,0-.46,0-2,0-2.74V280.4c0-.85,0-4,0.06-4.88,0-.22-0.06-0.28-0.15-0.28a1.33,1.33,0,0,0-.34.09,13,13,0,0,1-2.31.89,0.15,0.15,0,0,0-.12.12v0.18a0.1,0.1,0,0,0,.09.13l0.31,0.09a0.94,0.94,0,0,1,.78.92c0,0.4.06,1.72,0.06,2.8v4.82a0.45,0.45,0,0,1-.38.55s-0.23,0-.8,0-0.79,0-.79,0c-0.34,0-.37-0.22-0.4-0.49,0-.46,0-2,0-2.74V280.4c0-.85,0-4,0.06-4.88,0-.22-0.06-0.28-0.15-0.28a1.37,1.37,0,0,0-.34.09,12.91,12.91,0,0,1-2.31.89,0.15,0.15,0,0,0-.12.12v0.18a0.1,0.1,0,0,0,.09.13l0.31,0.09a0.94,0.94,0,0,1,.79.92c0,0.4.06,1.72,0.06,2.8v4.82a0.45,0.45,0,0,1-.38.55h-0.59c-0.18,0-.21,0-0.21.12v0.29a0.12,0.12,0,0,0,.12.15c0.06,0,3,0,5.92,0s5.56,0,5.62,0a0.12,0.12,0,0,0,.12-0.15V286Z" transform="translate(-179.8 -267.05)"/>
    <path class="a" d="M197,283.9a0.07,0.07,0,0,0-.09,0,4.53,4.53,0,0,1-3.55,1.62,3.31,3.31,0,0,1-2.65-1.2,6.23,6.23,0,0,1-1.42-4c0-2.21,1-4.43,3.48-4.43a3.67,3.67,0,0,1,2.68,1.14,5.48,5.48,0,0,1,1.2,2c0,0.12.09,0.19,0.17,0.16l0.29-.09c0.06,0,.08-0.06.06-0.16-0.06-.46-0.37-2.92-0.37-3.2s0-.25-0.22-0.25-0.22,0-.24.1l-0.13.4c0,0.12-.09.12-0.31,0a6.72,6.72,0,0,0-3.11-.74,5.32,5.32,0,0,0-4,1.63,6,6,0,0,0-1.57,4.13,5.87,5.87,0,0,0,1.66,4.16,5.74,5.74,0,0,0,8.41-.85,0.13,0.13,0,0,0,0-.15Z" transform="translate(-179.8 -267.05)"/>
    <circle class="a" cx="35.14" cy="10.75" r="0.94"/>
    <rect class="a" x="8.04" y="22.1" width="0.51" height="3.45"/>
    <polygon class="a" points="12.35 22.17 12.35 24.63 10.37 22.1 9.91 22.1 9.91 25.55 10.42 25.55 10.42 22.97 12.45 25.55 12.79 25.55 12.85 25.55 12.85 22.1 12.35 22.1 12.35 22.17"/>
    <polygon class="a" points="13.95 22.59 15.06 22.59 15.06 25.55 15.58 25.55 15.58 25.49 15.58 22.59 16.69 22.59 16.69 22.1 13.95 22.1 13.95 22.59"/>
    <polygon class="a" points="18.3 24.05 20.1 24.05 20.1 23.57 18.3 23.57 18.3 22.58 20.32 22.58 20.32 22.51 20.32 22.17 20.32 22.1 17.78 22.1 17.78 25.55 20.34 25.55 20.34 25.07 18.3 25.07 18.3 24.05"/>
    <polygon class="a" points="27.88 22.17 27.88 24.63 25.89 22.1 25.44 22.1 25.44 25.55 25.94 25.55 25.94 22.97 27.98 25.55 28.31 25.55 28.38 25.55 28.38 22.1 27.88 22.1 27.88 22.17"/>
    <path class="a" d="M210.76,289.13l-1.57,3.48h0.54l0.39-.88h1.71l0.39,0.88h0.56l-1.57-3.48h-0.44Zm-0.44,2.13L211,289.8l0.65,1.45h-1.3Z" transform="translate(-179.8 -267.05)"/>
    <polygon class="a" points="33.32 22.59 34.43 22.59 34.43 25.55 34.95 25.55 34.95 25.49 34.95 22.59 36.06 22.59 36.06 22.1 33.32 22.1 33.32 22.59"/>
    <rect class="a" x="37.18" y="22.1" width="0.51" height="3.45"/>
    <polygon class="a" points="46.05 22.17 46.05 24.63 44.07 22.1 43.61 22.1 43.61 25.55 44.12 25.55 44.12 22.97 46.15 25.55 46.49 25.55 46.55 25.55 46.55 22.1 46.05 22.1 46.05 22.17"/>
    <path class="a" d="M228.94,289.13l-1.57,3.48h0.54l0.39-.88H230l0.39,0.88h0.56l-1.57-3.48h-0.44Zm-0.44,2.13,0.65-1.45,0.65,1.45h-1.3Z" transform="translate(-179.8 -267.05)"/>
    <polygon class="a" points="52.67 22.1 52.16 22.1 52.16 22.17 52.16 25.55 54.53 25.55 54.53 25.07 52.67 25.07 52.67 22.1"/>
    <path class="a" d="M204,290.21a1.11,1.11,0,0,0-1.27-1.06h-1.49v3.45h0.51v-1.29h0.84l1,1.29h0.63l-1-1.38A1,1,0,0,0,204,290.21Zm-2.25.63v-1.21h1a0.63,0.63,0,0,1,.78.59,0.67,0.67,0,0,1-.78.62H201.8Z" transform="translate(-179.8 -267.05)"/>
    <path class="a" d="M220.48,289.09a1.78,1.78,0,1,0,1.76,1.78A1.75,1.75,0,0,0,220.48,289.09Zm0,3.08a1.25,1.25,0,0,1-1.24-1.3,1.23,1.23,0,0,1,1.23-1.29,1.25,1.25,0,0,1,1.24,1.3A1.23,1.23,0,0,1,220.48,292.17Z" transform="translate(-179.8 -267.05)"/>
  </g>
</svg>
