<svg xmlns="http://www.w3.org/2000/svg" viewBox="0 0 89.97 31.67">
  <defs>
    <style>
      .a {
        fill: #fff;
      }
    </style>
  </defs>
  <title>eastdil</title>
  <g>
    <path class="a" d="M207.74,189.87a14.61,14.61,0,0,0-.76,1.75q-2.16-.06-3.08-0.06t-3.07.06c-0.06,0-.09,0-0.09-0.15a0.12,0.12,0,0,1,.09-0.14,3.58,3.58,0,0,0,.73-0.14,0.66,0.66,0,0,0,.35-0.24,1,1,0,0,0,.1-0.52v-5a1,1,0,0,0-.09-0.52,0.65,0.65,0,0,0-.35-0.24,3.31,3.31,0,0,0-.74-0.14c-0.06,0-.09,0-0.09-0.15s0-.15.09-0.15q1.44,0.06,2.95.06t3-.06a11.34,11.34,0,0,0,.38,1.62c0,0.07-.07.11-0.2,0.11a0.11,0.11,0,0,1-.12-0.08,1.73,1.73,0,0,0-1.81-1.26h-1.15a0.57,0.57,0,0,0-.66.64v2.37h1.44a1,1,0,0,0,.77-0.24,1.72,1.72,0,0,0,.28-0.85c0-.06.05-0.09,0.16-0.09s0.16,0,.16.08,0,0.4,0,.66,0,0.46,0,.62,0,0.38,0,.63,0,0.5,0,.67-0.05.08-.16,0.08-0.16,0-.16-0.08a1.81,1.81,0,0,0-.3-0.9,0.94,0.94,0,0,0-.76-0.26H203.2v2.61a0.57,0.57,0,0,0,.66.63h1.25a2.55,2.55,0,0,0,1.35-.42,2.6,2.6,0,0,0,1-1,0.1,0.1,0,0,1,.1,0,0.27,0.27,0,0,1,.14,0,0.11,0.11,0,0,1,.06.1" transform="translate(-167.29 -179.88)"/>
    <path class="a" d="M213.68,188.34l-1-2.69-1.08,2.69h2.08Zm3.48,3.13c0,0.1,0,.15-0.09.15l-0.9,0-0.74,0-0.87,0-0.92,0c-0.06,0-.09,0-0.09-0.15s0-.14.07-0.14a2.06,2.06,0,0,0,.73-0.13,0.34,0.34,0,0,0,.22-0.32,1.45,1.45,0,0,0-.12-0.44l-0.65-1.77h-2.35l-0.65,1.64a1.56,1.56,0,0,0-.13.51q0,0.46.93,0.51s0.07,0,.07.14,0,0.15-.09.15l-0.76,0-0.7,0-0.62,0-0.66,0c-0.06,0-.09,0-0.09-0.13a0.14,0.14,0,0,1,.13-0.16,1.49,1.49,0,0,0,.75-0.24,2.2,2.2,0,0,0,.57-0.82l2.67-6.08a0.16,0.16,0,0,1,.16-0.09,0.16,0.16,0,0,1,.17.08l2.37,6.08a1.6,1.6,0,0,0,.54.75,1.91,1.91,0,0,0,.91.31,0.12,0.12,0,0,1,.11.14" transform="translate(-167.29 -179.88)"/>
    <path class="a" d="M223.47,189.5a2.16,2.16,0,0,1-.68,1.67,2.61,2.61,0,0,1-1.83.62,5.34,5.34,0,0,1-1.22-.17,4.66,4.66,0,0,0-1.06-.16q0-.9-0.14-1.8c0-.06.06-0.08,0.17-0.08a0.13,0.13,0,0,1,.15.09,2.92,2.92,0,0,0,.8,1.39,2,2,0,0,0,1.35.4,1.48,1.48,0,0,0,1.07-.37,1.38,1.38,0,0,0,.38-1,1.18,1.18,0,0,0-.33-0.8,5.86,5.86,0,0,0-1.41-1,5.77,5.77,0,0,1-1.62-1.12,1.56,1.56,0,0,1-.38-1,1.85,1.85,0,0,1,.69-1.46,2.57,2.57,0,0,1,1.75-.6,4.77,4.77,0,0,1,.92.1,4.66,4.66,0,0,0,.84.09c0,0.62.11,1.17,0.18,1.64,0,0.06-.05.09-0.15,0.09s-0.17,0-.18-0.09a2.24,2.24,0,0,0-.57-1.15,1.49,1.49,0,0,0-1.06-.35,1.44,1.44,0,0,0-1,.35,1.22,1.22,0,0,0-.38.94,1,1,0,0,0,.32.72,6,6,0,0,0,1.38.92,6.26,6.26,0,0,1,1.64,1.13,1.5,1.5,0,0,1,.39,1" transform="translate(-167.29 -179.88)"/>
    <path class="a" d="M232.92,186c0,0.07-.07.1-0.21,0.1a0.1,0.1,0,0,1-.11-0.07,2,2,0,0,0-.7-1.05,2.44,2.44,0,0,0-1.35-.31H230a0.62,0.62,0,0,0-.38.08,0.39,0.39,0,0,0-.1.32v5.38a1,1,0,0,0,.1.52,0.66,0.66,0,0,0,.35.24,3.54,3.54,0,0,0,.73.14,0.12,0.12,0,0,1,.09.14c0,0.1,0,.15-0.09.15l-0.91,0-0.85,0-0.87,0-0.91,0c-0.06,0-.09,0-0.09-0.15a0.12,0.12,0,0,1,.09-0.14,2.31,2.31,0,0,0,.94-0.24,0.74,0.74,0,0,0,.25-0.66v-5.38a0.39,0.39,0,0,0-.1-0.32,0.64,0.64,0,0,0-.39-0.08h-0.45a2.9,2.9,0,0,0-1.47.38,1.78,1.78,0,0,0-.86,1,0.12,0.12,0,0,1-.12.08q-0.2,0-.19-0.12a18.11,18.11,0,0,0,.61-1.8,24.36,24.36,0,0,0,3.57.16,25.18,25.18,0,0,0,3.64-.16,17.76,17.76,0,0,0,.34,1.82" transform="translate(-167.29 -179.88)"/>
    <path class="a" d="M241.47,188a3.42,3.42,0,0,0-.89-2.41,2.89,2.89,0,0,0-2.22-1h0l-1.07,0a0.59,0.59,0,0,0-.67.62v5.4a0.57,0.57,0,0,0,.67.61l1.07,0a3,3,0,0,0,2.23-.94,3.27,3.27,0,0,0,.91-2.36m1.26,0a3.29,3.29,0,0,1-1.18,2.63,4.76,4.76,0,0,1-3.18,1l-1,0-1.05,0q-1.06,0-2.07.06c-0.06,0-.09,0-0.09-0.15a0.12,0.12,0,0,1,.09-0.14,3.61,3.61,0,0,0,.73-0.14,0.67,0.67,0,0,0,.35-0.24,1,1,0,0,0,.1-0.52v-5a1,1,0,0,0-.1-0.52,0.64,0.64,0,0,0-.35-0.24,3.34,3.34,0,0,0-.73-0.14c-0.06,0-.09-0.05-0.09-0.15s0-.15.09-0.15q0.67,0.06,2.07.06l1.05,0,1,0a4.66,4.66,0,0,1,3.15,1,3.36,3.36,0,0,1,1.2,2.67" transform="translate(-167.29 -179.88)"/>
    <path class="a" d="M248.54,191.47c0,0.1,0,.15-0.09.15l-0.91,0-0.86,0-0.85,0-0.92,0c-0.06,0-.09,0-0.09-0.15a0.12,0.12,0,0,1,.09-0.14,2.31,2.31,0,0,0,.94-0.24,0.74,0.74,0,0,0,.25-0.66v-5a1,1,0,0,0-.1-0.52,0.67,0.67,0,0,0-.35-0.24,3.45,3.45,0,0,0-.74-0.14c-0.06,0-.09,0-0.09-0.15s0-.15.09-0.15l0.92,0,0.85,0,0.86,0,0.91,0c0.06,0,.09,0,0.09.15s0,0.15-.09.15a3.46,3.46,0,0,0-.73.14,0.66,0.66,0,0,0-.35.23,1,1,0,0,0-.1.52v5a1,1,0,0,0,.1.52,0.65,0.65,0,0,0,.35.24,3.53,3.53,0,0,0,.73.14,0.12,0.12,0,0,1,.1.14" transform="translate(-167.29 -179.88)"/>
    <path class="a" d="M257.16,189.67a15.52,15.52,0,0,0-.42,1.95q-2.19-.06-3.12-0.06t-3.08.06c-0.06,0-.09,0-0.09-0.15a0.12,0.12,0,0,1,.09-0.14,2.31,2.31,0,0,0,.94-0.24,0.74,0.74,0,0,0,.25-0.66v-5a1,1,0,0,0-.1-0.52,0.66,0.66,0,0,0-.35-0.24,3.44,3.44,0,0,0-.74-0.14c-0.06,0-.09-0.05-0.09-0.15s0-.15.09-0.15l0.91,0,0.86,0,0.86,0,0.91,0c0.06,0,.09.05,0.09,0.15s0,0.15-.09.15a3.42,3.42,0,0,0-.73.14,0.65,0.65,0,0,0-.35.24,1,1,0,0,0-.1.52v5.15a0.57,0.57,0,0,0,.66.63h1.13a2,2,0,0,0,1.19-.35,3.5,3.5,0,0,0,1-1.3,0.11,0.11,0,0,1,.11,0,0.25,0.25,0,0,1,.14,0,0.12,0.12,0,0,1,.07.09" transform="translate(-167.29 -179.88)"/>
    <path class="a" d="M206,203.57a2.25,2.25,0,0,1-.63,1.68,2.31,2.31,0,0,1-1.69.62,4.52,4.52,0,0,1-1.13-.17,4.15,4.15,0,0,0-1-.16c0-.6-0.06-1.2-0.13-1.8,0-.05.05-0.08,0.16-0.08a0.13,0.13,0,0,1,.13.08,3,3,0,0,0,.74,1.39,1.8,1.8,0,0,0,1.25.4,1.31,1.31,0,0,0,1-.37,1.44,1.44,0,0,0,.35-1,1.23,1.23,0,0,0-.31-0.8,5.44,5.44,0,0,0-1.31-1,5.36,5.36,0,0,1-1.5-1.12,1.63,1.63,0,0,1-.35-1,1.91,1.91,0,0,1,.64-1.46,2.28,2.28,0,0,1,1.62-.6,4.12,4.12,0,0,1,.85.1,4,4,0,0,0,.78.09q0.06,0.93.17,1.64c0,0.06,0,.09-0.14.09a0.14,0.14,0,0,1-.17-0.09,2.3,2.3,0,0,0-.52-1.15,1.32,1.32,0,0,0-1-.35,1.21,1.21,0,0,0-1.29,1.3,1.09,1.09,0,0,0,.3.72,5.47,5.47,0,0,0,1.28.91,5.8,5.8,0,0,1,1.52,1.13,1.58,1.58,0,0,1,.36,1" transform="translate(-167.29 -179.88)"/>
    <path class="a" d="M214,203.94a14.87,14.87,0,0,0-.7,1.74q-2-.05-2.85-0.05t-2.84.05c-0.06,0-.09,0-0.09-0.15a0.12,0.12,0,0,1,.09-0.14,3,3,0,0,0,.67-0.14,0.61,0.61,0,0,0,.33-0.24,1,1,0,0,0,.09-0.52v-5a1.12,1.12,0,0,0-.09-0.51,0.59,0.59,0,0,0-.32-0.24,2.88,2.88,0,0,0-.68-0.14c-0.06,0-.09,0-0.09-0.15s0-.15.09-0.15q1.33,0.06,2.73.06t2.74-.06a12,12,0,0,0,.35,1.62c0,0.07-.06.11-0.18,0.11a0.1,0.1,0,0,1-.11-0.07,1.62,1.62,0,0,0-1.67-1.26h-1.07a0.55,0.55,0,0,0-.61.64v2.37h1.33a0.86,0.86,0,0,0,.72-0.24,1.8,1.8,0,0,0,.26-0.86c0-.06,0-0.09.15-0.09s0.15,0,.15.09,0,0.39,0,.66,0,0.46,0,.63,0,0.37,0,.63,0,0.5,0,.67,0,0.08-.15.08-0.15,0-.15-0.08a1.93,1.93,0,0,0-.28-0.9,0.83,0.83,0,0,0-.7-0.26h-1.33v2.61a0.55,0.55,0,0,0,.61.63h1.15a2.23,2.23,0,0,0,1.25-.41,2.52,2.52,0,0,0,.91-1,0.09,0.09,0,0,1,.09,0,0.23,0.23,0,0,1,.13,0,0.11,0.11,0,0,1,.06.1" transform="translate(-167.29 -179.88)"/>
    <path class="a" d="M222.48,203.73q-0.19.85-.37,1.8a7.34,7.34,0,0,0-1.09.14,9.31,9.31,0,0,1-1.5.19,4.5,4.5,0,0,1-2.11-.48A3.43,3.43,0,0,1,216,204a3.9,3.9,0,0,1-.51-2,3.78,3.78,0,0,1,.54-2,3.73,3.73,0,0,1,1.48-1.41,4.44,4.44,0,0,1,2.12-.5,11.32,11.32,0,0,1,1.33.11,8.06,8.06,0,0,0,.95.09c0,0.49.13,1.09,0.24,1.8,0,0.06-.06.08-0.17,0.08a0.11,0.11,0,0,1-.12-0.08A2.14,2.14,0,0,0,221,199a2.37,2.37,0,0,0-1.45-.47,2.6,2.6,0,0,0-2.09,1,3.83,3.83,0,0,0-.84,2.52,3.75,3.75,0,0,0,.83,2.46,2.55,2.55,0,0,0,2,1,2.72,2.72,0,0,0,2.67-1.8,0.14,0.14,0,0,1,.14-0.08c0.1,0,.15,0,0.15.08" transform="translate(-167.29 -179.88)"/>
    <path class="a" d="M231.71,198.48c0,0.1,0,.15-0.09.15a2.16,2.16,0,0,0-.89.25,0.76,0.76,0,0,0-.23.65v3.32a3.33,3.33,0,0,1-.68,2.22,2.38,2.38,0,0,1-1.92.8,3,3,0,0,1-2.2-.76,2.77,2.77,0,0,1-.79-2.08v-3.49a1.08,1.08,0,0,0-.09-0.52,0.59,0.59,0,0,0-.32-0.24,2.83,2.83,0,0,0-.68-0.14c-0.06,0-.08,0-0.08-0.15s0-.15.08-0.15l0.84,0,0.79,0,0.8,0,0.85,0c0.06,0,.08.05,0.08,0.15s0,0.15-.08.15a2.92,2.92,0,0,0-.68.14,0.62,0.62,0,0,0-.32.24,1.07,1.07,0,0,0-.09.52v3.34a3,3,0,0,0,.49,1.91,1.93,1.93,0,0,0,1.6.61q2.08,0,2.08-2.64v-3.21a0.76,0.76,0,0,0-.23-0.66,2,2,0,0,0-.88-0.24c-0.06,0-.08,0-0.08-0.15s0-.15.08-0.15l0.63,0,0.65,0,0.63,0,0.65,0c0.06,0,.09.05,0.09,0.15" transform="translate(-167.29 -179.88)"/>
    <path class="a" d="M237.67,200.24a1.29,1.29,0,0,0-1.35-1.56,2.35,2.35,0,0,0-.67.07,0.48,0.48,0,0,0-.31.23,1.36,1.36,0,0,0-.08.55v2.38a5.46,5.46,0,0,0,.77,0,1.66,1.66,0,0,0,1.24-.41,1.81,1.81,0,0,0,.39-1.3m2.7,5.3c0,0.1,0,.15-0.09.15l-0.64,0-0.43,0-0.48,0-0.48,0-1.6-2.59a2.74,2.74,0,0,0-.55-0.7,1.51,1.51,0,0,0-.84-0.16v2.27a1.09,1.09,0,0,0,.09.52,0.62,0.62,0,0,0,.33.24,2.92,2.92,0,0,0,.67.14,0.12,0.12,0,0,1,.09.14c0,0.1,0,.15-0.08.15-0.24,0-.52,0-0.85,0l-0.8,0-0.79,0c-0.32,0-.61,0-0.84,0-0.06,0-.08,0-0.08-0.15s0-.13.08-0.14a3.06,3.06,0,0,0,.67-0.14,0.62,0.62,0,0,0,.32-0.24,1.07,1.07,0,0,0,.09-0.52v-5a1.08,1.08,0,0,0-.09-0.51,0.59,0.59,0,0,0-.32-0.24,2.87,2.87,0,0,0-.68-0.14c-0.06,0-.08,0-0.08-0.15s0-.15.08-0.15l0.84,0,0.79,0,0.79,0,0.85,0a3,3,0,0,1,1.83.49,1.65,1.65,0,0,1,.65,1.39,1.56,1.56,0,0,1-.43,1.05,2.69,2.69,0,0,1-1.15.74l1.63,2.65a1.33,1.33,0,0,0,.54.51,2.67,2.67,0,0,0,.86.23s0.08,0.05.08,0.14" transform="translate(-167.29 -179.88)"/>
    <path class="a" d="M248.06,203.94a14.84,14.84,0,0,0-.7,1.74q-2-.05-2.85-0.05c-0.56,0-1.51,0-2.84.05-0.06,0-.08,0-0.08-0.15s0-.14.08-0.14a3,3,0,0,0,.67-0.14,0.61,0.61,0,0,0,.33-0.24,1,1,0,0,0,.09-0.52v-5a1.1,1.1,0,0,0-.09-0.51,0.6,0.6,0,0,0-.32-0.24,2.89,2.89,0,0,0-.68-0.14c-0.06,0-.08,0-0.08-0.15s0-.15.08-0.15q1.33,0.06,2.73.06t2.74-.06a12.3,12.3,0,0,0,.36,1.62c0,0.07-.06.11-0.18,0.11a0.1,0.1,0,0,1-.11-0.07,1.62,1.62,0,0,0-1.67-1.26h-1.07a0.55,0.55,0,0,0-.62.64v2.37h1.33a0.87,0.87,0,0,0,.72-0.24,1.86,1.86,0,0,0,.26-0.86c0-.06,0-0.09.14-0.09s0.15,0,.15.09,0,0.39,0,.66,0,0.46,0,.63,0,0.37,0,.63,0,0.5,0,.67-0.05.08-.15,0.08-0.14,0-.14-0.08a1.9,1.9,0,0,0-.28-0.9,0.82,0.82,0,0,0-.7-0.26h-1.33v2.61a0.55,0.55,0,0,0,.62.63h1.15a2.24,2.24,0,0,0,1.25-.41,2.51,2.51,0,0,0,.91-1,0.09,0.09,0,0,1,.09,0,0.23,0.23,0,0,1,.13,0,0.11,0.11,0,0,1,.06.1" transform="translate(-167.29 -179.88)"/>
    <path class="a" d="M256.1,202.05a3.59,3.59,0,0,0-.82-2.41,2.59,2.59,0,0,0-2.06-1h0l-1,0a0.56,0.56,0,0,0-.62.62v5.39a0.54,0.54,0,0,0,.62.61l1,0a2.66,2.66,0,0,0,2.07-.95,3.42,3.42,0,0,0,.84-2.36m1.17,0a3.41,3.41,0,0,1-1.09,2.63,4.19,4.19,0,0,1-2.94,1l-0.94,0-1,0c-0.66,0-1.29,0-1.92.06-0.05,0-.08,0-0.08-0.15a0.12,0.12,0,0,1,.08-0.14,3,3,0,0,0,.67-0.14,0.62,0.62,0,0,0,.32-0.24,1.05,1.05,0,0,0,.09-0.52v-5a1.07,1.07,0,0,0-.09-0.52,0.6,0.6,0,0,0-.32-0.24,3,3,0,0,0-.68-0.14c-0.05,0-.08,0-0.08-0.15s0-.15.08-0.15c0.41,0,1.05.06,1.92,0.06l1,0,0.94,0a4.12,4.12,0,0,1,2.92,1,3.48,3.48,0,0,1,1.11,2.67" transform="translate(-167.29 -179.88)"/>
    <path class="a" d="M195.14,184.2v0l-14.86-4.3a0.34,0.34,0,0,0-.21,0l-12.78,4.45v5.29l12.6,4.25v-5.32l-11.61-3.84,11.92-4.15,13.86,4-13.16,4v11.16l5.09-2.08v-5.16l9.16-3V184.2h0Zm-19.68,11.7-8.16-3.09v5.32l8.16,3.09v-5.32Zm-8.16,10.75,12.54,4.88v-5.31l-12.56-4.89v5.32Zm22.66-3.83-9,3.41v5.31l14.19-5h0V195.4l-5.2,1.57v5.85Z" transform="translate(-167.29 -179.88)"/>
  </g>
</svg>
