<?xml version="1.0" encoding="UTF-8" standalone="no"?>
<svg viewBox="0 0 139 39" version="1.1" xmlns="http://www.w3.org/2000/svg" xmlns:xlink="http://www.w3.org/1999/xlink">
    <title>Inspired</title>
    <g fill="#ffffff">
        <rect x="0.359" y="4.872" width="5.81" height="26.42"></rect>
        <path d="M10.719,12.162 L15.715,12.162 L15.715,14.826 L15.825,14.826 C17.157,12.68 19.452,11.643 21.672,11.643 C27.259,11.643 28.665,14.789 28.665,19.525 L28.665,31.292 L23.411,31.292 L23.411,20.487 C23.411,17.342 22.487,15.788 20.044,15.788 C17.195,15.788 15.974,17.379 15.974,21.265 L15.974,31.292 L10.719,31.292 L10.719,12.162 L10.719,12.162 Z"></path>
        <path d="M36.73,25.075 C36.767,27.37 38.692,28.295 40.763,28.295 C42.281,28.295 44.205,27.703 44.205,25.852 C44.205,24.262 42.022,23.706 38.248,22.892 C35.213,22.226 32.179,21.153 32.179,17.786 C32.179,12.901 36.397,11.643 40.504,11.643 C44.686,11.643 48.534,13.05 48.941,17.749 L43.946,17.749 C43.797,15.714 42.244,15.159 40.357,15.159 C39.172,15.159 37.433,15.381 37.433,16.934 C37.433,18.822 40.393,19.081 43.391,19.784 C46.462,20.487 49.459,21.597 49.459,25.149 C49.459,30.181 45.093,31.809 40.726,31.809 C36.287,31.809 31.957,30.144 31.735,25.075 L36.73,25.075 L36.73,25.075 Z"></path>
        <path d="M52.529,12.162 L57.524,12.162 L57.524,14.603 L57.598,14.603 C58.856,12.568 60.928,11.643 63.297,11.643 C69.291,11.643 71.992,16.491 71.992,21.93 C71.992,27.037 69.18,31.809 63.592,31.809 C61.299,31.809 59.115,30.81 57.857,28.924 L57.783,28.924 L57.783,38.026 L52.529,38.026 L52.529,12.162 L52.529,12.162 Z M66.738,21.782 C66.738,18.748 65.516,15.602 62.149,15.602 C58.709,15.602 57.598,18.674 57.598,21.782 C57.598,24.89 58.782,27.85 62.186,27.85 C65.628,27.85 66.738,24.89 66.738,21.782 L66.738,21.782 Z"></path>
        <rect x="75.283" y="12.162" width="5.255" height="19.13"></rect>
        <path d="M84.681,12.162 L89.676,12.162 L89.676,15.714 L89.75,15.714 C90.712,13.308 93.302,11.643 95.855,11.643 C96.225,11.643 96.668,11.718 97.001,11.829 L97.001,16.713 C96.521,16.601 95.742,16.528 95.114,16.528 C91.265,16.528 89.933,19.303 89.933,22.67 L89.933,31.292 L84.679,31.292 L84.679,12.162 L84.681,12.162 Z"></path>
        <path d="M102.774,23.002 C102.922,26.333 104.551,27.85 107.473,27.85 C109.582,27.85 111.285,26.555 111.618,25.371 L116.243,25.371 C114.764,29.885 111.618,31.809 107.289,31.809 C101.258,31.809 97.52,27.665 97.52,21.744 C97.52,16.009 101.479,11.643 107.289,11.643 C113.802,11.643 116.946,17.119 116.576,23.002 L102.774,23.002 L102.774,23.002 Z M111.322,19.672 C110.841,17.008 109.694,15.602 107.14,15.602 C103.81,15.602 102.848,18.193 102.774,19.672 L111.322,19.672 L111.322,19.672 Z"></path>
        <path d="M133.336,28.849 L133.262,28.849 C132.041,30.921 129.894,31.809 127.452,31.809 C121.68,31.809 118.868,26.851 118.868,21.56 C118.868,16.416 121.717,11.643 127.342,11.643 C129.599,11.643 131.819,12.605 133.003,14.493 L133.077,14.493 L133.077,4.872 L138.331,4.872 L138.331,31.291 L133.336,31.291 L133.336,28.849 L133.336,28.849 Z M128.749,15.602 C125.308,15.602 124.123,18.563 124.123,21.707 C124.123,24.705 125.492,27.85 128.749,27.85 C132.227,27.85 133.263,24.816 133.263,21.67 C133.262,18.563 132.152,15.602 128.749,15.602 L128.749,15.602 Z"></path>
        <polygon points="80.568 0.426 75.283 3.772 75.283 9.201 80.568 5.853"></polygon>
    </g>
</svg>