<svg width="108" height="20" viewBox="0 0 108 20" version="1.1" xmlns="http://www.w3.org/2000/svg">
  <title>Spire Logo</title>
  <g id="logo" fill="#F68426">
    <path d="M18.09 3.005C15.51 1.263 12.378.349 9.022.349c-2.41 0-4.088.456-5.613 1.526-1.518 1.07-2.323 2.567-2.323 4.324 0 1.577.918 3.042 2.456 3.917 1.086.623 2.793 1.005 5.349 1.202 3.107.223 4.337.485 4.792.619 1.612.482 1.612 1.41 1.612 1.716 0 .77-.386 1.364-1.168 1.811-.923.534-2.137.783-3.81.783-2.646 0-5.155-.812-7.448-2.425a.497.497 0 0 0-.691.133l-1.44 2.208a.499.499 0 0 0 .072.625c1.568 1.473 5.464 3.044 9.588 3.044 2.562 0 4.616-.57 6.28-1.744 1.588-1.117 2.359-2.63 2.359-4.628 0-1.55-.556-2.84-1.607-3.743-.98-.838-2.428-1.393-4.446-1.69-.787-.113-2.208-.247-4.115-.397-1.38-.087-2.374-.255-2.955-.492-.92-.364-1.027-.877-1.027-1.23 0-.35.098-.857.976-1.29.76-.389 1.892-.58 3.367-.58 2.262 0 4.509.643 6.686 1.902a.5.5 0 0 0 .633-.12L18.2 3.71a.479.479 0 0 0 .094-.38.48.48 0 0 0-.205-.326" id="Fill-28646"/>
    <path d="M38.969 9.094h-8.646V4.526h8.474c1.808 0 2.613.738 2.613 2.38 0 1.51-.754 2.188-2.441 2.188m4.523-6.525c-1.002-1.092-2.38-1.64-4.077-1.64H27.302a.493.493 0 0 0-.487.489v17.436c0 .269.225.489.487.489h2.53c.267 0 .49-.22.49-.49v-6.16h8.608c1.927 0 3.442-.511 4.49-1.511 1.043-1.007 1.57-2.462 1.57-4.323 0-1.773-.498-3.216-1.498-4.29" id="Fill-28648"/>
    <path d="M54.652.928h-2.53c-.27 0-.486.22-.486.489v17.435c0 .272.217.49.487.49h2.529a.491.491 0 0 0 .493-.49V1.417a.493.493 0 0 0-.493-.489" id="Fill-28650"/>
    <path d="M76.126 9.094H67.48V4.526h8.414c1.854 0 2.678.736 2.678 2.378 0 1.513-.754 2.19-2.445 2.19zm2.335 3.33s-.134 0 .047-.057c.988-.302 1.801-.834 2.417-1.586.81-.98 1.231-2.287 1.231-3.87 0-1.809-.507-3.272-1.5-4.342C79.646 1.475 78.25.927 76.512.927H64.461a.492.492 0 0 0-.484.491v17.435c0 .27.222.487.484.487h2.534a.485.485 0 0 0 .484-.487v-6.159h7.003l3.051 6.415a.5.5 0 0 0 .415.231h3.09a.497.497 0 0 0 .426-.244.494.494 0 0 0-.01-.5l-2.993-6.173z" id="Fill-28652"/>
    <path d="M93.467 15.758v-4.18.023h13.215a.493.493 0 0 0 .496-.487V8.491a.495.495 0 0 0-.496-.483H93.467v.012-3.495h13.215a.492.492 0 0 0 .496-.487v-2.62a.497.497 0 0 0-.496-.489H90.45a.489.489 0 0 0-.49.49v17.435a.49.49 0 0 0 .49.488h16.233c.266 0 .496-.22.496-.488V16.23a.498.498 0 0 0-.496-.488H93.467v.016z" id="Fill-28654"/>
  </g>
</svg>