<?xml version="1.0" encoding="UTF-8" standalone="no"?>
<svg width="108px" height="20px" viewBox="0 0 108 20" version="1.1" xmlns="http://www.w3.org/2000/svg" xmlns:xlink="http://www.w3.org/1999/xlink">
    <!-- Generator: Sketch 3.8.2 (29753) - http://www.bohemiancoding.com/sketch -->
    <title>Spire Logo</title>
    <desc>Created with Sketch.</desc>
    <defs></defs>
    <g id="Page-1" stroke="none" stroke-width="1" fill="none" fill-rule="evenodd">
        <g id="spirelogo" fill="#F68426">
            <g id="logo">
                <path d="M18.0899,3.0045 C15.5099,1.2625 12.3779,0.3485 9.0219,0.3485 C6.6129,0.3485 4.9339,0.8045 3.4089,1.8745 C1.8909,2.9455 1.0859,4.4425 1.0859,6.1995 C1.0859,7.7755 2.0039,9.2405 3.5419,10.1155 C4.6279,10.7385 6.3349,11.1205 8.8909,11.3175 C11.9979,11.5415 13.2279,11.8025 13.6829,11.9365 C15.2949,12.4185 15.2949,13.3465 15.2949,13.6535 C15.2949,14.4225 14.9089,15.0165 14.1269,15.4645 C13.2039,15.9985 11.9899,16.2475 10.3179,16.2475 C7.6709,16.2475 5.1619,15.4355 2.8689,13.8225 C2.7599,13.7515 2.6299,13.7235 2.4989,13.7465 C2.3639,13.7735 2.2499,13.8475 2.1779,13.9555 L0.7379,16.1625 C0.6079,16.3585 0.6439,16.6265 0.8099,16.7875 C2.3779,18.2605 6.2739,19.8325 10.3979,19.8325 C12.9599,19.8325 15.0139,19.2615 16.6789,18.0885 C18.2659,16.9705 19.0369,15.4585 19.0369,13.4605 C19.0369,11.9095 18.4809,10.6195 17.4299,9.7175 C16.4499,8.8785 15.0019,8.3245 12.9839,8.0265 C12.1969,7.9135 10.7759,7.7795 8.8689,7.6295 C7.4899,7.5435 6.4949,7.3745 5.9139,7.1385 C4.9949,6.7745 4.8869,6.2615 4.8869,5.9075 C4.8869,5.5585 4.9849,5.0515 5.8629,4.6175 C6.6229,4.2295 7.7549,4.0375 9.2299,4.0375 C11.4919,4.0375 13.7389,4.6815 15.9159,5.9405 C16.1289,6.0595 16.3969,6.0085 16.5489,5.8195 L18.2009,3.7115 C18.2829,3.6025 18.3209,3.4685 18.2949,3.3315 C18.2759,3.2005 18.2009,3.0785 18.0899,3.0045" id="Fill-28646"></path>
                <path d="M38.9687,9.0938 L30.3227,9.0938 L30.3227,4.5258 L38.7967,4.5258 C40.6047,4.5258 41.4097,5.2638 41.4097,6.9058 C41.4097,8.4168 40.6557,9.0938 38.9687,9.0938 M43.4917,2.5688 C42.4897,1.4768 41.1117,0.9288 39.4147,0.9288 L27.3017,0.9288 C27.0397,0.9288 26.8147,1.1478 26.8147,1.4178 L26.8147,18.8538 C26.8147,19.1228 27.0397,19.3428 27.3017,19.3428 L29.8317,19.3428 C30.0987,19.3428 30.3227,19.1228 30.3227,18.8538 L30.3227,12.6938 L38.9297,12.6938 C40.8567,12.6938 42.3717,12.1818 43.4197,11.1818 C44.4627,10.1748 44.9907,8.7198 44.9907,6.8588 C44.9907,5.0858 44.4917,3.6428 43.4917,2.5688" id="Fill-28648"></path>
                <path d="M54.6516,0.928 L52.1226,0.928 C51.8526,0.928 51.6356,1.148 51.6356,1.417 L51.6356,18.852 C51.6356,19.124 51.8526,19.342 52.1226,19.342 L54.6516,19.342 C54.9226,19.342 55.1446,19.124 55.1446,18.852 L55.1446,1.417 C55.1446,1.148 54.9226,0.928 54.6516,0.928" id="Fill-28650"></path>
                <path d="M76.1263,9.0944 L67.4793,9.0944 L67.4793,4.5264 L75.8933,4.5264 C77.7473,4.5264 78.5713,5.2624 78.5713,6.9044 C78.5713,8.4174 77.8173,9.0944 76.1263,9.0944 L76.1263,9.0944 L76.1263,9.0944 Z M78.4613,12.4234 C78.4613,12.4234 78.3273,12.4234 78.5083,12.3674 C79.4963,12.0654 80.3093,11.5334 80.9253,10.7814 C81.7353,9.8014 82.1563,8.4944 82.1563,6.9104 C82.1563,5.1024 81.6493,3.6394 80.6553,2.5694 C79.6473,1.4754 78.2513,0.9274 76.5133,0.9274 L64.4613,0.9274 C64.1993,0.9274 63.9773,1.1484 63.9773,1.4184 L63.9773,18.8534 C63.9773,19.1234 64.1993,19.3404 64.4613,19.3404 L66.9953,19.3404 C67.2623,19.3404 67.4793,19.1234 67.4793,18.8534 L67.4793,12.6944 L74.4823,12.6944 L77.5333,19.1094 C77.6243,19.2544 77.7883,19.3404 77.9483,19.3404 L81.0373,19.3404 C81.2153,19.3404 81.3733,19.2464 81.4643,19.0964 C81.5533,18.9384 81.5473,18.7514 81.4543,18.5954 L78.4613,12.4234 L78.4613,12.4234 Z" id="Fill-28652"></path>
                <path d="M93.4672,15.7584 L93.4672,11.5774 L93.4672,11.6014 L106.6822,11.6014 C106.9482,11.6014 107.1782,11.3884 107.1782,11.1144 L107.1782,8.4914 C107.1782,8.2254 106.9482,8.0084 106.6822,8.0084 L93.4672,8.0084 L93.4672,8.0204 L93.4672,4.5334 L93.4672,4.5254 L106.6822,4.5254 C106.9482,4.5254 107.1782,4.3144 107.1782,4.0384 L107.1782,1.4184 C107.1782,1.1474 106.9482,0.9294 106.6822,0.9294 L90.4492,0.9294 C90.1772,0.9294 89.9582,1.1474 89.9582,1.4184 L89.9582,18.8544 C89.9582,19.1224 90.1772,19.3424 90.4492,19.3424 L106.6822,19.3424 C106.9482,19.3424 107.1782,19.1224 107.1782,18.8544 L107.1782,16.2304 C107.1782,15.9614 106.9482,15.7424 106.6822,15.7424 L93.4672,15.7424 L93.4672,15.7584 L93.4672,15.7584 Z" id="Fill-28654"></path>
            </g>
        </g>
    </g>
</svg>